{
	"asset":{
		"generator":"Khronos glTF Blender I/O v5.1.20",
		"version":"2.0"
	},
	"scene":0,
	"scenes":[
		{
			"name":"World",
			"nodes":[
				0,
				1
			]
		}
	],
	"nodes":[
		{
			"mesh":0,
			"name":"terrain.001",
			"translation":[
				1,
				-514.482666015625,
				1
			]
		},
		{
			"mesh":1,
			"name":"well.002",
			"translation":[
				-11.453863143920898,
				-518.5460815429688,
				-11.453863143920898
			]
		}
	],
	"materials":[
		{
			"name":"Ground",
			"normalTexture":{
				"index":0
			},
			"pbrMetallicRoughness":{
				"baseColorTexture":{
					"index":1
				},
				"metallicFactor":0
			}
		},
		{
			"doubleSided":true,
			"name":"well",
			"normalTexture":{
				"index":2
			},
			"pbrMetallicRoughness":{
				"baseColorTexture":{
					"index":3
				},
				"metallicFactor":0
			}
		}
	],
	"meshes":[
		{
			"name":"Plane.008",
			"primitives":[
				{
					"attributes":{
						"POSITION":0,
						"NORMAL":1,
						"TEXCOORD_0":2
					},
					"indices":3,
					"material":0
				}
			]
		},
		{
			"name":"Cylinder.015",
			"primitives":[
				{
					"attributes":{
						"POSITION":4,
						"NORMAL":5,
						"TEXCOORD_0":6
					},
					"indices":7,
					"material":1
				}
			]
		}
	],
	"textures":[
		{
			"sampler":0,
			"source":0
		},
		{
			"sampler":0,
			"source":1
		},
		{
			"sampler":0,
			"source":2
		},
		{
			"sampler":0,
			"source":3
		}
	],
	"images":[
		{
			"mimeType":"image/jpeg",
			"name":"soil-normal",
			"uri":"tex/soil-normal.jpg"
		},
		{
			"mimeType":"image/jpeg",
			"name":"soil",
			"uri":"tex/soil.jpg"
		},
		{
			"mimeType":"image/jpeg",
			"name":"cobblestone-normal",
			"uri":"tex/cobblestone-normal.jpg"
		},
		{
			"mimeType":"image/jpeg",
			"name":"cobblestone",
			"uri":"tex/cobblestone.jpg"
		}
	],
	"accessors":[
		{
			"bufferView":0,
			"componentType":5126,
			"count":1316,
			"max":[
				39.85236358642578,
				24.032772064208984,
				39.85236358642578
			],
			"min":[
				-39.85236358642578,
				-0.6477484107017517,
				-39.85236358642578
			],
			"type":"VEC3"
		},
		{
			"bufferView":1,
			"componentType":5126,
			"count":1316,
			"type":"VEC3"
		},
		{
			"bufferView":2,
			"componentType":5126,
			"count":1316,
			"type":"VEC2"
		},
		{
			"bufferView":3,
			"componentType":5123,
			"count":6480,
			"type":"SCALAR"
		},
		{
			"bufferView":4,
			"componentType":5126,
			"count":6919,
			"max":[
				1.07694411277771,
				4.623064994812012,
				1.0976330041885376
			],
			"min":[
				-1.0956770181655884,
				-3.448936700820923,
				-1.0667054653167725
			],
			"type":"VEC3"
		},
		{
			"bufferView":5,
			"componentType":5126,
			"count":6919,
			"type":"VEC3"
		},
		{
			"bufferView":6,
			"componentType":5126,
			"count":6919,
			"type":"VEC2"
		},
		{
			"bufferView":7,
			"componentType":5123,
			"count":14739,
			"type":"SCALAR"
		}
	],
	"bufferViews":[
		{
			"buffer":0,
			"byteLength":15792,
			"byteOffset":0,
			"target":34962
		},
		{
			"buffer":0,
			"byteLength":15792,
			"byteOffset":15792,
			"target":34962
		},
		{
			"buffer":0,
			"byteLength":10528,
			"byteOffset":31584,
			"target":34962
		},
		{
			"buffer":0,
			"byteLength":12960,
			"byteOffset":42112,
			"target":34963
		},
		{
			"buffer":0,
			"byteLength":83028,
			"byteOffset":55072,
			"target":34962
		},
		{
			"buffer":0,
			"byteLength":83028,
			"byteOffset":138100,
			"target":34962
		},
		{
			"buffer":0,
			"byteLength":55352,
			"byteOffset":221128,
			"target":34962
		},
		{
			"buffer":0,
			"byteLength":29478,
			"byteOffset":276480,
			"target":34963
		}
	],
	"samplers":[
		{
			"magFilter":9729,
			"minFilter":9987
		}
	],
	"buffers":[
		{
			"byteLength":305960,
			"uri":"bottom.bin"
		}
	]
}
