{
	"asset":{
		"generator":"Khronos glTF Blender I/O v5.1.20",
		"version":"2.0"
	},
	"scene":0,
	"scenes":[
		{
			"name":"World",
			"nodes":[
				0,
				1,
				2,
				3,
				4,
				5,
				6,
				7,
				8,
				9,
				10,
				11,
				12,
				13,
				14,
				15,
				16,
				17,
				18,
				19,
				20,
				21,
				22,
				23,
				24
			]
		}
	],
	"nodes":[
		{
			"mesh":0,
			"name":"Cylinder.008",
			"scale":[
				20.862024307250977,
				35.9581413269043,
				20.862024307250977
			],
			"translation":[
				0,
				-357.01165771484375,
				0
			]
		},
		{
			"mesh":1,
			"name":"Cube.101",
			"scale":[
				1.4763399362564087,
				1.4763399362564087,
				1.4763399362564087
			],
			"translation":[
				4.4821271896362305,
				-339.6739807128906,
				10.63219928741455
			]
		},
		{
			"mesh":2,
			"name":"JDAM",
			"rotation":[
				0.14594806730747223,
				0.15236835181713104,
				0.303465336561203,
				0.9291888475418091
			],
			"scale":[
				0.09372062236070633,
				0.09372061491012573,
				0.09372060000896454
			],
			"translation":[
				-2.2256264686584473,
				-412.4282531738281,
				-5.526737213134766
			]
		},
		{
			"mesh":3,
			"name":"R-27 (2)",
			"rotation":[
				-0.08444935083389282,
				-0.9460173845291138,
				-0.3052838146686554,
				0.06871114671230316
			],
			"scale":[
				0.05908111855387688,
				0.05908111482858658,
				0.05908110737800598
			],
			"translation":[
				1.449718713760376,
				-398.5280456542969,
				5.027057647705078
			]
		},
		{
			"mesh":4,
			"name":"GBU-12 Paveway II",
			"rotation":[
				0.381648451089859,
				-0.9157493710517883,
				-0.11460195481777191,
				0.051126979291439056
			],
			"scale":[
				0.07083745300769806,
				0.07083744555711746,
				0.07083744555711746
			],
			"translation":[
				-3.742283344268799,
				-399.0835266113281,
				-0.0006484228651970625
			]
		},
		{
			"mesh":5,
			"name":"R-77",
			"rotation":[
				0.5276481509208679,
				-0.2225053310394287,
				-0.1518993377685547,
				0.8056087493896484
			],
			"scale":[
				0.05138622969388962,
				0.051386237144470215,
				0.051386233419179916
			],
			"translation":[
				-4.400764465332031,
				-407.70654296875,
				2.4447920322418213
			]
		},
		{
			"mesh":6,
			"name":"R-27 (2).001",
			"rotation":[
				-0.15018992125988007,
				-0.6030925512313843,
				-0.09614640474319458,
				0.7774819731712341
			],
			"scale":[
				0.09408466517925262,
				0.09408467262983322,
				0.09408465772867203
			],
			"translation":[
				6.494383811950684,
				-411.5824890136719,
				-4.730952739715576
			]
		},
		{
			"mesh":7,
			"name":"PL-11 (2)",
			"rotation":[
				-0.2664635479450226,
				-0.7842968106269836,
				-0.30022260546684265,
				0.4730140268802643
			],
			"scale":[
				0.07912494242191315,
				0.07912495732307434,
				0.07912494987249374
			],
			"translation":[
				5.0575056076049805,
				-409.2247009277344,
				2.5892210006713867
			]
		},
		{
			"mesh":8,
			"name":"KAB-500L",
			"rotation":[
				0.6050995588302612,
				-0.13551685214042664,
				-0.09097431600093842,
				0.7792389988899231
			],
			"scale":[
				0.103508360683918,
				0.1035083457827568,
				0.103508360683918
			],
			"translation":[
				6.567836284637451,
				-412.92144775390625,
				1.4603767395019531
			]
		},
		{
			"mesh":9,
			"name":"GBU-12 Paveway II.001",
			"rotation":[
				0.5376031994819641,
				-0.34703701734542847,
				-0.03435448557138443,
				0.7677029967308044
			],
			"scale":[
				0.051386233419179916,
				0.051386233419179916,
				0.05138624459505081
			],
			"translation":[
				-6.811701774597168,
				-407.06048583984375,
				5.07111930847168
			]
		},
		{
			"mesh":10,
			"name":"AIM-7 Sparrow",
			"rotation":[
				0.6482027173042297,
				-0.24120794236660004,
				0.15608026087284088,
				0.7051885724067688
			],
			"scale":[
				0.08463982492685318,
				0.08463983237743378,
				0.08463983982801437
			],
			"translation":[
				-1.868938684463501,
				-417.4979248046875,
				0.17177999019622803
			]
		},
		{
			"mesh":11,
			"name":"AGM-65 Maverick",
			"rotation":[
				0.33708426356315613,
				-0.3490348756313324,
				-0.15386205911636353,
				0.8607411980628967
			],
			"scale":[
				0.09658607095479965,
				0.09658605605363846,
				0.09658608585596085
			],
			"translation":[
				-1.087507724761963,
				-411.6492004394531,
				6.85068416595459
			]
		},
		{
			"mesh":12,
			"name":"JDAM.001",
			"rotation":[
				0.20948104560375214,
				0.8533344268798828,
				0.06755280494689941,
				0.4726252853870392
			],
			"scale":[
				0.09372062981128693,
				0.09372062236070633,
				0.09372061491012573
			],
			"translation":[
				4.637026786804199,
				-450.2783508300781,
				9.201885223388672
			]
		},
		{
			"mesh":13,
			"name":"Cube.102",
			"scale":[
				0.7431760430335999,
				0.7431760430335999,
				0.7431760430335999
			],
			"translation":[
				1.2518186569213867,
				-373.05572509765625,
				4.224300861358643
			]
		},
		{
			"mesh":14,
			"name":"JDAM.002",
			"rotation":[
				0.2830388844013214,
				0.6155616044998169,
				0.1824309527873993,
				0.7125250101089478
			],
			"scale":[
				0.09372062236070633,
				0.09372061491012573,
				0.09372060745954514
			],
			"translation":[
				-3.929224729537964,
				-441.55682373046875,
				-5.360991477966309
			]
		},
		{
			"mesh":15,
			"name":"R-27 (2).002",
			"rotation":[
				-0.23155973851680756,
				-0.7705971598625183,
				-0.21612495183944702,
				0.553037166595459
			],
			"scale":[
				0.05908111482858658,
				0.05908111482858658,
				0.05908110737800598
			],
			"translation":[
				-0.2538795471191406,
				-427.6566162109375,
				5.192803382873535
			]
		},
		{
			"mesh":16,
			"name":"GBU-12 Paveway II.002",
			"rotation":[
				0.2654682695865631,
				-0.7539834976196289,
				-0.29717960953712463,
				0.5222257971763611
			],
			"scale":[
				0.07083744555711746,
				0.07083744555711746,
				0.07083744555711746
			],
			"translation":[
				-5.4458818435668945,
				-428.21209716796875,
				0.16509725153446198
			]
		},
		{
			"mesh":17,
			"name":"R-77.001",
			"rotation":[
				0.37044352293014526,
				0.23137763142585754,
				-0.40528711676597595,
				0.8031055927276611
			],
			"scale":[
				0.05138622969388962,
				0.051386233419179916,
				0.051386233419179916
			],
			"translation":[
				-6.104362487792969,
				-436.8351135253906,
				2.6105377674102783
			]
		},
		{
			"mesh":18,
			"name":"R-27 (2).003",
			"rotation":[
				-0.17829503118991852,
				-0.10778656601905823,
				-0.0034675905480980873,
				0.9780495762825012
			],
			"scale":[
				0.09408465772867203,
				0.09408467262983322,
				0.09408465772867203
			],
			"translation":[
				4.790785789489746,
				-440.7110595703125,
				-4.565207004547119
			]
		},
		{
			"mesh":19,
			"name":"PL-11 (2).001",
			"rotation":[
				-0.4747246205806732,
				-0.31773513555526733,
				-0.014044134877622128,
				0.8206605315208435
			],
			"scale":[
				0.07912494987249374,
				0.07912496477365494,
				0.07912494987249374
			],
			"translation":[
				3.353907346725464,
				-438.353271484375,
				2.7549667358398438
			]
		},
		{
			"mesh":20,
			"name":"KAB-500L.001",
			"rotation":[
				0.46831727027893066,
				0.29175546765327454,
				-0.393828421831131,
				0.73515784740448
			],
			"scale":[
				0.103508360683918,
				0.1035083532333374,
				0.1035083532333374
			],
			"translation":[
				4.8642377853393555,
				-442.0500183105469,
				1.6261224746704102
			]
		},
		{
			"mesh":21,
			"name":"AIM-7 Sparrow.001",
			"rotation":[
				0.5913731455802917,
				0.25079187750816345,
				-0.31513991951942444,
				0.6986187100410461
			],
			"scale":[
				0.08463983237743378,
				0.08463983237743378,
				0.08463983237743378
			],
			"translation":[
				-3.5725369453430176,
				-446.6264953613281,
				0.3375256657600403
			]
		},
		{
			"mesh":22,
			"name":"AGM-65 Maverick.001",
			"rotation":[
				0.24431560933589935,
				0.17203392088413239,
				-0.28663554787635803,
				0.9102495908737183
			],
			"scale":[
				0.09658607095479965,
				0.09658605605363846,
				0.09658607840538025
			],
			"translation":[
				-2.8350322246551514,
				-441.23028564453125,
				4.943939208984375
			]
		},
		{
			"mesh":23,
			"name":"JDAM.003",
			"rotation":[
				-0.26940789818763733,
				0.8877695202827454,
				-0.36696022748947144,
				0.06800653040409088
			],
			"scale":[
				0.09372062236070633,
				0.09372062236070633,
				0.09372062236070633
			],
			"translation":[
				2.9334285259246826,
				-465.8404846191406,
				0.004360854625701904
			]
		},
		{
			"mesh":24,
			"name":"Cylinder.016",
			"scale":[
				11.68622875213623,
				24.92045783996582,
				11.68622875213623
			],
			"translation":[
				0.14848756790161133,
				-407.7884521484375,
				0.2459176480770111
			]
		}
	],
	"materials":[
		{
			"doubleSided":true,
			"name":"Material.005"
		},
		{
			"doubleSided":true,
			"emissiveFactor":[
				1,
				1,
				1
			],
			"name":"Material.006",
			"pbrMetallicRoughness":{
				"baseColorFactor":[
					0,
					0,
					0,
					1
				]
			}
		},
		{
			"doubleSided":true,
			"emissiveFactor":[
				1,
				1,
				1
			],
			"emissiveTexture":{
				"index":0
			},
			"name":"JDAM.001",
			"pbrMetallicRoughness":{
				"baseColorFactor":[
					0,
					0,
					0,
					1
				]
			}
		},
		{
			"doubleSided":true,
			"emissiveFactor":[
				1,
				1,
				1
			],
			"emissiveTexture":{
				"index":1
			},
			"name":"R-27 (2)",
			"pbrMetallicRoughness":{
				"baseColorFactor":[
					0,
					0,
					0,
					1
				]
			}
		},
		{
			"doubleSided":true,
			"emissiveFactor":[
				1,
				1,
				1
			],
			"emissiveTexture":{
				"index":2
			},
			"name":"GBU-12 Paveway II",
			"pbrMetallicRoughness":{
				"baseColorFactor":[
					0,
					0,
					0,
					1
				]
			}
		},
		{
			"doubleSided":true,
			"emissiveFactor":[
				1,
				1,
				1
			],
			"emissiveTexture":{
				"index":3
			},
			"name":"R-77",
			"pbrMetallicRoughness":{
				"baseColorFactor":[
					0,
					0,
					0,
					1
				]
			}
		},
		{
			"doubleSided":true,
			"emissiveFactor":[
				1,
				1,
				1
			],
			"emissiveTexture":{
				"index":4
			},
			"name":"R-27 (2).001",
			"pbrMetallicRoughness":{
				"baseColorFactor":[
					0,
					0,
					0,
					1
				]
			}
		},
		{
			"doubleSided":true,
			"emissiveFactor":[
				1,
				1,
				1
			],
			"emissiveTexture":{
				"index":5
			},
			"name":"PL-11 (2)",
			"pbrMetallicRoughness":{
				"baseColorFactor":[
					0,
					0,
					0,
					1
				]
			}
		},
		{
			"doubleSided":true,
			"emissiveFactor":[
				1,
				1,
				1
			],
			"emissiveTexture":{
				"index":6
			},
			"name":"KAB-500L",
			"pbrMetallicRoughness":{
				"baseColorFactor":[
					0,
					0,
					0,
					1
				]
			}
		},
		{
			"doubleSided":true,
			"emissiveFactor":[
				1,
				1,
				1
			],
			"emissiveTexture":{
				"index":7
			},
			"name":"GBU-12 Paveway II.001",
			"pbrMetallicRoughness":{
				"baseColorFactor":[
					0,
					0,
					0,
					1
				]
			}
		},
		{
			"doubleSided":true,
			"emissiveFactor":[
				1,
				1,
				1
			],
			"emissiveTexture":{
				"index":8
			},
			"name":"AIM-7 Sparrow",
			"pbrMetallicRoughness":{
				"baseColorFactor":[
					0,
					0,
					0,
					1
				]
			}
		},
		{
			"doubleSided":true,
			"emissiveFactor":[
				1,
				1,
				1
			],
			"emissiveTexture":{
				"index":9
			},
			"name":"AGM-65 Maverick",
			"pbrMetallicRoughness":{
				"baseColorFactor":[
					0,
					0,
					0,
					1
				]
			}
		},
		{
			"doubleSided":true,
			"name":"alert-blue",
			"pbrMetallicRoughness":{
				"baseColorTexture":{
					"index":10
				},
				"metallicFactor":0,
				"roughnessFactor":0.5
			}
		}
	],
	"meshes":[
		{
			"name":"Cylinder.013",
			"primitives":[
				{
					"attributes":{
						"POSITION":0,
						"NORMAL":1,
						"TEXCOORD_0":2
					},
					"indices":3,
					"material":0
				}
			]
		},
		{
			"name":"Cube.105",
			"primitives":[
				{
					"attributes":{
						"POSITION":4,
						"NORMAL":5,
						"TEXCOORD_0":6
					},
					"indices":7,
					"material":1
				}
			]
		},
		{
			"name":"bf4_missiles.001",
			"primitives":[
				{
					"attributes":{
						"POSITION":8,
						"NORMAL":9,
						"TEXCOORD_0":10
					},
					"indices":11,
					"material":2
				}
			]
		},
		{
			"name":"bf4_missiles.006",
			"primitives":[
				{
					"attributes":{
						"POSITION":12,
						"NORMAL":13,
						"TEXCOORD_0":14
					},
					"indices":15,
					"material":3
				}
			]
		},
		{
			"name":"bf4_missiles.011",
			"primitives":[
				{
					"attributes":{
						"POSITION":16,
						"NORMAL":17,
						"TEXCOORD_0":18
					},
					"indices":19,
					"material":4
				}
			]
		},
		{
			"name":"bf4_missiles.010",
			"primitives":[
				{
					"attributes":{
						"POSITION":20,
						"NORMAL":21,
						"TEXCOORD_0":22
					},
					"indices":23,
					"material":5
				}
			]
		},
		{
			"name":"bf4_missiles.003",
			"primitives":[
				{
					"attributes":{
						"POSITION":24,
						"NORMAL":25,
						"TEXCOORD_0":26
					},
					"indices":15,
					"material":6
				}
			]
		},
		{
			"name":"bf4_missiles.007",
			"primitives":[
				{
					"attributes":{
						"POSITION":27,
						"NORMAL":28,
						"TEXCOORD_0":29
					},
					"indices":30,
					"material":7
				}
			]
		},
		{
			"name":"bf4_missiles.004",
			"primitives":[
				{
					"attributes":{
						"POSITION":31,
						"NORMAL":32,
						"TEXCOORD_0":33
					},
					"indices":34,
					"material":8
				}
			]
		},
		{
			"name":"bf4_missiles.005",
			"primitives":[
				{
					"attributes":{
						"POSITION":35,
						"NORMAL":36,
						"TEXCOORD_0":37
					},
					"indices":19,
					"material":9
				}
			]
		},
		{
			"name":"bf4_missiles.009",
			"primitives":[
				{
					"attributes":{
						"POSITION":38,
						"NORMAL":39,
						"TEXCOORD_0":40
					},
					"indices":41,
					"material":10
				}
			]
		},
		{
			"name":"bf4_missiles.012",
			"primitives":[
				{
					"attributes":{
						"POSITION":42,
						"NORMAL":43,
						"TEXCOORD_0":44
					},
					"indices":45,
					"material":11
				}
			]
		},
		{
			"name":"bf4_missiles.013",
			"primitives":[
				{
					"attributes":{
						"POSITION":46,
						"NORMAL":47,
						"TEXCOORD_0":48
					},
					"indices":11,
					"material":2
				}
			]
		},
		{
			"name":"Cube.111",
			"primitives":[
				{
					"attributes":{
						"POSITION":49,
						"NORMAL":50,
						"TEXCOORD_0":51
					},
					"indices":7,
					"material":1
				}
			]
		},
		{
			"name":"bf4_missiles.014",
			"primitives":[
				{
					"attributes":{
						"POSITION":52,
						"NORMAL":53,
						"TEXCOORD_0":54
					},
					"indices":11,
					"material":2
				}
			]
		},
		{
			"name":"bf4_missiles.015",
			"primitives":[
				{
					"attributes":{
						"POSITION":55,
						"NORMAL":56,
						"TEXCOORD_0":57
					},
					"indices":15,
					"material":3
				}
			]
		},
		{
			"name":"bf4_missiles.016",
			"primitives":[
				{
					"attributes":{
						"POSITION":58,
						"NORMAL":59,
						"TEXCOORD_0":60
					},
					"indices":19,
					"material":4
				}
			]
		},
		{
			"name":"bf4_missiles.017",
			"primitives":[
				{
					"attributes":{
						"POSITION":61,
						"NORMAL":62,
						"TEXCOORD_0":63
					},
					"indices":23,
					"material":5
				}
			]
		},
		{
			"name":"bf4_missiles.018",
			"primitives":[
				{
					"attributes":{
						"POSITION":64,
						"NORMAL":65,
						"TEXCOORD_0":66
					},
					"indices":15,
					"material":6
				}
			]
		},
		{
			"name":"bf4_missiles.019",
			"primitives":[
				{
					"attributes":{
						"POSITION":67,
						"NORMAL":68,
						"TEXCOORD_0":69
					},
					"indices":30,
					"material":7
				}
			]
		},
		{
			"name":"bf4_missiles.020",
			"primitives":[
				{
					"attributes":{
						"POSITION":70,
						"NORMAL":71,
						"TEXCOORD_0":72
					},
					"indices":34,
					"material":8
				}
			]
		},
		{
			"name":"bf4_missiles.021",
			"primitives":[
				{
					"attributes":{
						"POSITION":73,
						"NORMAL":74,
						"TEXCOORD_0":75
					},
					"indices":41,
					"material":10
				}
			]
		},
		{
			"name":"bf4_missiles.022",
			"primitives":[
				{
					"attributes":{
						"POSITION":76,
						"NORMAL":77,
						"TEXCOORD_0":78
					},
					"indices":45,
					"material":11
				}
			]
		},
		{
			"name":"bf4_missiles.023",
			"primitives":[
				{
					"attributes":{
						"POSITION":79,
						"NORMAL":80,
						"TEXCOORD_0":81
					},
					"indices":11,
					"material":2
				}
			]
		},
		{
			"name":"Cylinder.022",
			"primitives":[
				{
					"attributes":{
						"POSITION":82,
						"NORMAL":83,
						"TEXCOORD_0":84
					},
					"indices":85,
					"material":12
				}
			]
		}
	],
	"textures":[
		{
			"sampler":0,
			"source":0
		},
		{
			"sampler":0,
			"source":1
		},
		{
			"sampler":0,
			"source":2
		},
		{
			"sampler":0,
			"source":3
		},
		{
			"sampler":0,
			"source":1
		},
		{
			"sampler":0,
			"source":4
		},
		{
			"sampler":0,
			"source":5
		},
		{
			"sampler":0,
			"source":2
		},
		{
			"sampler":0,
			"source":6
		},
		{
			"sampler":0,
			"source":7
		},
		{
			"sampler":0,
			"source":8
		}
	],
	"images":[
		{
			"mimeType":"image/jpeg",
			"name":"t_jdam_d",
			"uri":"tex/t_jdam_d.jpg"
		},
		{
			"mimeType":"image/jpeg",
			"name":"vympel_r-27_d",
			"uri":"tex/vympel_r-27_d.jpg"
		},
		{
			"mimeType":"image/jpeg",
			"name":"us_paveway_ii_d",
			"uri":"tex/us_paveway_ii_d.jpg"
		},
		{
			"mimeType":"image/jpeg",
			"name":"vympel_r-77_d",
			"uri":"tex/vympel_r-77_d.jpg"
		},
		{
			"mimeType":"image/jpeg",
			"name":"ch_pl-11_d",
			"uri":"tex/ch_pl-11_d.jpg"
		},
		{
			"mimeType":"image/jpeg",
			"name":"kab-500l_d",
			"uri":"tex/kab-500l_d.jpg"
		},
		{
			"mimeType":"image/jpeg",
			"name":"aim-7msparrow_d",
			"uri":"tex/aim-7msparrow_d.jpg"
		},
		{
			"mimeType":"image/jpeg",
			"name":"agm-65 maverick_d",
			"uri":"tex/agm-65%20maverick_d.jpg"
		},
		{
			"mimeType":"image/jpeg",
			"name":"alert-blue",
			"uri":"tex/alert-blue.jpg"
		}
	],
	"accessors":[
		{
			"bufferView":0,
			"componentType":5126,
			"count":176,
			"max":[
				1,
				1,
				1
			],
			"min":[
				-1,
				-1.000001311302185,
				-1
			],
			"type":"VEC3"
		},
		{
			"bufferView":1,
			"componentType":5126,
			"count":176,
			"type":"VEC3"
		},
		{
			"bufferView":2,
			"componentType":5126,
			"count":176,
			"type":"VEC2"
		},
		{
			"bufferView":3,
			"componentType":5123,
			"count":276,
			"type":"SCALAR"
		},
		{
			"bufferView":4,
			"componentType":5126,
			"count":360,
			"max":[
				4.86519718170166,
				7.143627643585205,
				1
			],
			"min":[
				-11.435821533203125,
				-15.198695182800293,
				-12.862874984741211
			],
			"type":"VEC3"
		},
		{
			"bufferView":5,
			"componentType":5126,
			"count":360,
			"type":"VEC3"
		},
		{
			"bufferView":6,
			"componentType":5126,
			"count":360,
			"type":"VEC2"
		},
		{
			"bufferView":7,
			"componentType":5123,
			"count":540,
			"type":"SCALAR"
		},
		{
			"bufferView":8,
			"componentType":5126,
			"count":753,
			"max":[
				10.3309326171875,
				83.08013153076172,
				12.157028198242188
			],
			"min":[
				-10.3306884765625,
				-69.03507232666016,
				-10.408973693847656
			],
			"type":"VEC3"
		},
		{
			"bufferView":9,
			"componentType":5126,
			"count":753,
			"type":"VEC3"
		},
		{
			"bufferView":10,
			"componentType":5126,
			"count":753,
			"type":"VEC2"
		},
		{
			"bufferView":11,
			"componentType":5123,
			"count":1998,
			"type":"SCALAR"
		},
		{
			"bufferView":12,
			"componentType":5126,
			"count":637,
			"max":[
				16.376510620117188,
				64.78886413574219,
				14.975433349609375
			],
			"min":[
				-13.578079223632812,
				-93.95333862304688,
				-14.979164123535156
			],
			"type":"VEC3"
		},
		{
			"bufferView":13,
			"componentType":5126,
			"count":637,
			"type":"VEC3"
		},
		{
			"bufferView":14,
			"componentType":5126,
			"count":637,
			"type":"VEC2"
		},
		{
			"bufferView":15,
			"componentType":5123,
			"count":1722,
			"type":"SCALAR"
		},
		{
			"bufferView":16,
			"componentType":5126,
			"count":876,
			"max":[
				15.942301750183105,
				63.58855056762695,
				16.884838104248047
			],
			"min":[
				-16.354598999023438,
				-66.05595397949219,
				-15.412063598632812
			],
			"type":"VEC3"
		},
		{
			"bufferView":17,
			"componentType":5126,
			"count":876,
			"type":"VEC3"
		},
		{
			"bufferView":18,
			"componentType":5126,
			"count":876,
			"type":"VEC2"
		},
		{
			"bufferView":19,
			"componentType":5123,
			"count":2484,
			"type":"SCALAR"
		},
		{
			"bufferView":20,
			"componentType":5126,
			"count":1533,
			"max":[
				11.092499732971191,
				20.199787139892578,
				11.571773529052734
			],
			"min":[
				-11.092499732971191,
				-116.90951538085938,
				-10.613327026367188
			],
			"type":"VEC3"
		},
		{
			"bufferView":21,
			"componentType":5126,
			"count":1533,
			"type":"VEC3"
		},
		{
			"bufferView":22,
			"componentType":5126,
			"count":1533,
			"type":"VEC2"
		},
		{
			"bufferView":23,
			"componentType":5123,
			"count":3036,
			"type":"SCALAR"
		},
		{
			"bufferView":24,
			"componentType":5126,
			"count":637,
			"max":[
				16.376510620117188,
				64.78886413574219,
				14.975433349609375
			],
			"min":[
				-13.578079223632812,
				-93.95333862304688,
				-14.979164123535156
			],
			"type":"VEC3"
		},
		{
			"bufferView":25,
			"componentType":5126,
			"count":637,
			"type":"VEC3"
		},
		{
			"bufferView":26,
			"componentType":5126,
			"count":637,
			"type":"VEC2"
		},
		{
			"bufferView":27,
			"componentType":5126,
			"count":467,
			"max":[
				9.507408142089844,
				42.10995864868164,
				10.0257568359375
			],
			"min":[
				-9.506988525390625,
				-112.13804626464844,
				-8.988639831542969
			],
			"type":"VEC3"
		},
		{
			"bufferView":28,
			"componentType":5126,
			"count":467,
			"type":"VEC3"
		},
		{
			"bufferView":29,
			"componentType":5126,
			"count":467,
			"type":"VEC2"
		},
		{
			"bufferView":30,
			"componentType":5123,
			"count":1356,
			"type":"SCALAR"
		},
		{
			"bufferView":31,
			"componentType":5126,
			"count":813,
			"max":[
				9.359283447265625,
				62.469268798828125,
				11.303237915039062
			],
			"min":[
				-9.359909057617188,
				-56.511131286621094,
				-7.449363708496094
			],
			"type":"VEC3"
		},
		{
			"bufferView":32,
			"componentType":5126,
			"count":813,
			"type":"VEC3"
		},
		{
			"bufferView":33,
			"componentType":5126,
			"count":813,
			"type":"VEC2"
		},
		{
			"bufferView":34,
			"componentType":5123,
			"count":2088,
			"type":"SCALAR"
		},
		{
			"bufferView":35,
			"componentType":5126,
			"count":876,
			"max":[
				15.942301750183105,
				63.58855056762695,
				16.884838104248047
			],
			"min":[
				-16.354598999023438,
				-66.05595397949219,
				-15.412063598632812
			],
			"type":"VEC3"
		},
		{
			"bufferView":36,
			"componentType":5126,
			"count":876,
			"type":"VEC3"
		},
		{
			"bufferView":37,
			"componentType":5126,
			"count":876,
			"type":"VEC2"
		},
		{
			"bufferView":38,
			"componentType":5126,
			"count":303,
			"max":[
				19.88092803955078,
				55.769287109375,
				19.606098175048828
			],
			"min":[
				-19.880767822265625,
				-86.97681427001953,
				-20.155601501464844
			],
			"type":"VEC3"
		},
		{
			"bufferView":39,
			"componentType":5126,
			"count":303,
			"type":"VEC3"
		},
		{
			"bufferView":40,
			"componentType":5126,
			"count":303,
			"type":"VEC2"
		},
		{
			"bufferView":41,
			"componentType":5123,
			"count":900,
			"type":"SCALAR"
		},
		{
			"bufferView":42,
			"componentType":5126,
			"count":618,
			"max":[
				9.669036865234375,
				43.393096923828125,
				12.077327728271484
			],
			"min":[
				-9.669158935546875,
				-51.57420349121094,
				-7.189369201660156
			],
			"type":"VEC3"
		},
		{
			"bufferView":43,
			"componentType":5126,
			"count":618,
			"type":"VEC3"
		},
		{
			"bufferView":44,
			"componentType":5126,
			"count":618,
			"type":"VEC2"
		},
		{
			"bufferView":45,
			"componentType":5123,
			"count":1542,
			"type":"SCALAR"
		},
		{
			"bufferView":46,
			"componentType":5126,
			"count":753,
			"max":[
				10.3309326171875,
				83.08013153076172,
				12.157028198242188
			],
			"min":[
				-10.3306884765625,
				-69.03507232666016,
				-10.408973693847656
			],
			"type":"VEC3"
		},
		{
			"bufferView":47,
			"componentType":5126,
			"count":753,
			"type":"VEC3"
		},
		{
			"bufferView":48,
			"componentType":5126,
			"count":753,
			"type":"VEC2"
		},
		{
			"bufferView":49,
			"componentType":5126,
			"count":360,
			"max":[
				4.86519718170166,
				7.143627643585205,
				1
			],
			"min":[
				-11.435821533203125,
				-15.198695182800293,
				-12.862874984741211
			],
			"type":"VEC3"
		},
		{
			"bufferView":50,
			"componentType":5126,
			"count":360,
			"type":"VEC3"
		},
		{
			"bufferView":51,
			"componentType":5126,
			"count":360,
			"type":"VEC2"
		},
		{
			"bufferView":52,
			"componentType":5126,
			"count":753,
			"max":[
				10.3309326171875,
				83.08013153076172,
				12.157028198242188
			],
			"min":[
				-10.3306884765625,
				-69.03507232666016,
				-10.408973693847656
			],
			"type":"VEC3"
		},
		{
			"bufferView":53,
			"componentType":5126,
			"count":753,
			"type":"VEC3"
		},
		{
			"bufferView":54,
			"componentType":5126,
			"count":753,
			"type":"VEC2"
		},
		{
			"bufferView":55,
			"componentType":5126,
			"count":637,
			"max":[
				16.376510620117188,
				64.78886413574219,
				14.975433349609375
			],
			"min":[
				-13.578079223632812,
				-93.95333862304688,
				-14.979164123535156
			],
			"type":"VEC3"
		},
		{
			"bufferView":56,
			"componentType":5126,
			"count":637,
			"type":"VEC3"
		},
		{
			"bufferView":57,
			"componentType":5126,
			"count":637,
			"type":"VEC2"
		},
		{
			"bufferView":58,
			"componentType":5126,
			"count":876,
			"max":[
				15.942301750183105,
				63.58855056762695,
				16.884838104248047
			],
			"min":[
				-16.354598999023438,
				-66.05595397949219,
				-15.412063598632812
			],
			"type":"VEC3"
		},
		{
			"bufferView":59,
			"componentType":5126,
			"count":876,
			"type":"VEC3"
		},
		{
			"bufferView":60,
			"componentType":5126,
			"count":876,
			"type":"VEC2"
		},
		{
			"bufferView":61,
			"componentType":5126,
			"count":1533,
			"max":[
				11.092499732971191,
				20.199787139892578,
				11.571773529052734
			],
			"min":[
				-11.092499732971191,
				-116.90951538085938,
				-10.613327026367188
			],
			"type":"VEC3"
		},
		{
			"bufferView":62,
			"componentType":5126,
			"count":1533,
			"type":"VEC3"
		},
		{
			"bufferView":63,
			"componentType":5126,
			"count":1533,
			"type":"VEC2"
		},
		{
			"bufferView":64,
			"componentType":5126,
			"count":637,
			"max":[
				16.376510620117188,
				64.78886413574219,
				14.975433349609375
			],
			"min":[
				-13.578079223632812,
				-93.95333862304688,
				-14.979164123535156
			],
			"type":"VEC3"
		},
		{
			"bufferView":65,
			"componentType":5126,
			"count":637,
			"type":"VEC3"
		},
		{
			"bufferView":66,
			"componentType":5126,
			"count":637,
			"type":"VEC2"
		},
		{
			"bufferView":67,
			"componentType":5126,
			"count":467,
			"max":[
				9.507408142089844,
				42.10995864868164,
				10.0257568359375
			],
			"min":[
				-9.506988525390625,
				-112.13804626464844,
				-8.988639831542969
			],
			"type":"VEC3"
		},
		{
			"bufferView":68,
			"componentType":5126,
			"count":467,
			"type":"VEC3"
		},
		{
			"bufferView":69,
			"componentType":5126,
			"count":467,
			"type":"VEC2"
		},
		{
			"bufferView":70,
			"componentType":5126,
			"count":813,
			"max":[
				9.359283447265625,
				62.469268798828125,
				11.303237915039062
			],
			"min":[
				-9.359909057617188,
				-56.511131286621094,
				-7.449363708496094
			],
			"type":"VEC3"
		},
		{
			"bufferView":71,
			"componentType":5126,
			"count":813,
			"type":"VEC3"
		},
		{
			"bufferView":72,
			"componentType":5126,
			"count":813,
			"type":"VEC2"
		},
		{
			"bufferView":73,
			"componentType":5126,
			"count":303,
			"max":[
				19.88092803955078,
				55.769287109375,
				19.606098175048828
			],
			"min":[
				-19.880767822265625,
				-86.97681427001953,
				-20.155601501464844
			],
			"type":"VEC3"
		},
		{
			"bufferView":74,
			"componentType":5126,
			"count":303,
			"type":"VEC3"
		},
		{
			"bufferView":75,
			"componentType":5126,
			"count":303,
			"type":"VEC2"
		},
		{
			"bufferView":76,
			"componentType":5126,
			"count":618,
			"max":[
				9.669036865234375,
				43.393096923828125,
				12.077327728271484
			],
			"min":[
				-9.669158935546875,
				-51.57420349121094,
				-7.189369201660156
			],
			"type":"VEC3"
		},
		{
			"bufferView":77,
			"componentType":5126,
			"count":618,
			"type":"VEC3"
		},
		{
			"bufferView":78,
			"componentType":5126,
			"count":618,
			"type":"VEC2"
		},
		{
			"bufferView":79,
			"componentType":5126,
			"count":753,
			"max":[
				10.3309326171875,
				83.08013153076172,
				12.157028198242188
			],
			"min":[
				-10.3306884765625,
				-69.03507232666016,
				-10.408973693847656
			],
			"type":"VEC3"
		},
		{
			"bufferView":80,
			"componentType":5126,
			"count":753,
			"type":"VEC3"
		},
		{
			"bufferView":81,
			"componentType":5126,
			"count":753,
			"type":"VEC2"
		},
		{
			"bufferView":82,
			"componentType":5126,
			"count":42,
			"max":[
				1.1915698051452637,
				1,
				1
			],
			"min":[
				-0.8660253882408142,
				-1.367258071899414,
				-1.5638595819473267
			],
			"type":"VEC3"
		},
		{
			"bufferView":83,
			"componentType":5126,
			"count":42,
			"type":"VEC3"
		},
		{
			"bufferView":84,
			"componentType":5126,
			"count":42,
			"type":"VEC2"
		},
		{
			"bufferView":85,
			"componentType":5123,
			"count":42,
			"type":"SCALAR"
		}
	],
	"bufferViews":[
		{
			"buffer":0,
			"byteLength":2112,
			"byteOffset":0,
			"target":34962
		},
		{
			"buffer":0,
			"byteLength":2112,
			"byteOffset":2112,
			"target":34962
		},
		{
			"buffer":0,
			"byteLength":1408,
			"byteOffset":4224,
			"target":34962
		},
		{
			"buffer":0,
			"byteLength":552,
			"byteOffset":5632,
			"target":34963
		},
		{
			"buffer":0,
			"byteLength":4320,
			"byteOffset":6184,
			"target":34962
		},
		{
			"buffer":0,
			"byteLength":4320,
			"byteOffset":10504,
			"target":34962
		},
		{
			"buffer":0,
			"byteLength":2880,
			"byteOffset":14824,
			"target":34962
		},
		{
			"buffer":0,
			"byteLength":1080,
			"byteOffset":17704,
			"target":34963
		},
		{
			"buffer":0,
			"byteLength":9036,
			"byteOffset":18784,
			"target":34962
		},
		{
			"buffer":0,
			"byteLength":9036,
			"byteOffset":27820,
			"target":34962
		},
		{
			"buffer":0,
			"byteLength":6024,
			"byteOffset":36856,
			"target":34962
		},
		{
			"buffer":0,
			"byteLength":3996,
			"byteOffset":42880,
			"target":34963
		},
		{
			"buffer":0,
			"byteLength":7644,
			"byteOffset":46876,
			"target":34962
		},
		{
			"buffer":0,
			"byteLength":7644,
			"byteOffset":54520,
			"target":34962
		},
		{
			"buffer":0,
			"byteLength":5096,
			"byteOffset":62164,
			"target":34962
		},
		{
			"buffer":0,
			"byteLength":3444,
			"byteOffset":67260,
			"target":34963
		},
		{
			"buffer":0,
			"byteLength":10512,
			"byteOffset":70704,
			"target":34962
		},
		{
			"buffer":0,
			"byteLength":10512,
			"byteOffset":81216,
			"target":34962
		},
		{
			"buffer":0,
			"byteLength":7008,
			"byteOffset":91728,
			"target":34962
		},
		{
			"buffer":0,
			"byteLength":4968,
			"byteOffset":98736,
			"target":34963
		},
		{
			"buffer":0,
			"byteLength":18396,
			"byteOffset":103704,
			"target":34962
		},
		{
			"buffer":0,
			"byteLength":18396,
			"byteOffset":122100,
			"target":34962
		},
		{
			"buffer":0,
			"byteLength":12264,
			"byteOffset":140496,
			"target":34962
		},
		{
			"buffer":0,
			"byteLength":6072,
			"byteOffset":152760,
			"target":34963
		},
		{
			"buffer":0,
			"byteLength":7644,
			"byteOffset":158832,
			"target":34962
		},
		{
			"buffer":0,
			"byteLength":7644,
			"byteOffset":166476,
			"target":34962
		},
		{
			"buffer":0,
			"byteLength":5096,
			"byteOffset":174120,
			"target":34962
		},
		{
			"buffer":0,
			"byteLength":5604,
			"byteOffset":179216,
			"target":34962
		},
		{
			"buffer":0,
			"byteLength":5604,
			"byteOffset":184820,
			"target":34962
		},
		{
			"buffer":0,
			"byteLength":3736,
			"byteOffset":190424,
			"target":34962
		},
		{
			"buffer":0,
			"byteLength":2712,
			"byteOffset":194160,
			"target":34963
		},
		{
			"buffer":0,
			"byteLength":9756,
			"byteOffset":196872,
			"target":34962
		},
		{
			"buffer":0,
			"byteLength":9756,
			"byteOffset":206628,
			"target":34962
		},
		{
			"buffer":0,
			"byteLength":6504,
			"byteOffset":216384,
			"target":34962
		},
		{
			"buffer":0,
			"byteLength":4176,
			"byteOffset":222888,
			"target":34963
		},
		{
			"buffer":0,
			"byteLength":10512,
			"byteOffset":227064,
			"target":34962
		},
		{
			"buffer":0,
			"byteLength":10512,
			"byteOffset":237576,
			"target":34962
		},
		{
			"buffer":0,
			"byteLength":7008,
			"byteOffset":248088,
			"target":34962
		},
		{
			"buffer":0,
			"byteLength":3636,
			"byteOffset":255096,
			"target":34962
		},
		{
			"buffer":0,
			"byteLength":3636,
			"byteOffset":258732,
			"target":34962
		},
		{
			"buffer":0,
			"byteLength":2424,
			"byteOffset":262368,
			"target":34962
		},
		{
			"buffer":0,
			"byteLength":1800,
			"byteOffset":264792,
			"target":34963
		},
		{
			"buffer":0,
			"byteLength":7416,
			"byteOffset":266592,
			"target":34962
		},
		{
			"buffer":0,
			"byteLength":7416,
			"byteOffset":274008,
			"target":34962
		},
		{
			"buffer":0,
			"byteLength":4944,
			"byteOffset":281424,
			"target":34962
		},
		{
			"buffer":0,
			"byteLength":3084,
			"byteOffset":286368,
			"target":34963
		},
		{
			"buffer":0,
			"byteLength":9036,
			"byteOffset":289452,
			"target":34962
		},
		{
			"buffer":0,
			"byteLength":9036,
			"byteOffset":298488,
			"target":34962
		},
		{
			"buffer":0,
			"byteLength":6024,
			"byteOffset":307524,
			"target":34962
		},
		{
			"buffer":0,
			"byteLength":4320,
			"byteOffset":313548,
			"target":34962
		},
		{
			"buffer":0,
			"byteLength":4320,
			"byteOffset":317868,
			"target":34962
		},
		{
			"buffer":0,
			"byteLength":2880,
			"byteOffset":322188,
			"target":34962
		},
		{
			"buffer":0,
			"byteLength":9036,
			"byteOffset":325068,
			"target":34962
		},
		{
			"buffer":0,
			"byteLength":9036,
			"byteOffset":334104,
			"target":34962
		},
		{
			"buffer":0,
			"byteLength":6024,
			"byteOffset":343140,
			"target":34962
		},
		{
			"buffer":0,
			"byteLength":7644,
			"byteOffset":349164,
			"target":34962
		},
		{
			"buffer":0,
			"byteLength":7644,
			"byteOffset":356808,
			"target":34962
		},
		{
			"buffer":0,
			"byteLength":5096,
			"byteOffset":364452,
			"target":34962
		},
		{
			"buffer":0,
			"byteLength":10512,
			"byteOffset":369548,
			"target":34962
		},
		{
			"buffer":0,
			"byteLength":10512,
			"byteOffset":380060,
			"target":34962
		},
		{
			"buffer":0,
			"byteLength":7008,
			"byteOffset":390572,
			"target":34962
		},
		{
			"buffer":0,
			"byteLength":18396,
			"byteOffset":397580,
			"target":34962
		},
		{
			"buffer":0,
			"byteLength":18396,
			"byteOffset":415976,
			"target":34962
		},
		{
			"buffer":0,
			"byteLength":12264,
			"byteOffset":434372,
			"target":34962
		},
		{
			"buffer":0,
			"byteLength":7644,
			"byteOffset":446636,
			"target":34962
		},
		{
			"buffer":0,
			"byteLength":7644,
			"byteOffset":454280,
			"target":34962
		},
		{
			"buffer":0,
			"byteLength":5096,
			"byteOffset":461924,
			"target":34962
		},
		{
			"buffer":0,
			"byteLength":5604,
			"byteOffset":467020,
			"target":34962
		},
		{
			"buffer":0,
			"byteLength":5604,
			"byteOffset":472624,
			"target":34962
		},
		{
			"buffer":0,
			"byteLength":3736,
			"byteOffset":478228,
			"target":34962
		},
		{
			"buffer":0,
			"byteLength":9756,
			"byteOffset":481964,
			"target":34962
		},
		{
			"buffer":0,
			"byteLength":9756,
			"byteOffset":491720,
			"target":34962
		},
		{
			"buffer":0,
			"byteLength":6504,
			"byteOffset":501476,
			"target":34962
		},
		{
			"buffer":0,
			"byteLength":3636,
			"byteOffset":507980,
			"target":34962
		},
		{
			"buffer":0,
			"byteLength":3636,
			"byteOffset":511616,
			"target":34962
		},
		{
			"buffer":0,
			"byteLength":2424,
			"byteOffset":515252,
			"target":34962
		},
		{
			"buffer":0,
			"byteLength":7416,
			"byteOffset":517676,
			"target":34962
		},
		{
			"buffer":0,
			"byteLength":7416,
			"byteOffset":525092,
			"target":34962
		},
		{
			"buffer":0,
			"byteLength":4944,
			"byteOffset":532508,
			"target":34962
		},
		{
			"buffer":0,
			"byteLength":9036,
			"byteOffset":537452,
			"target":34962
		},
		{
			"buffer":0,
			"byteLength":9036,
			"byteOffset":546488,
			"target":34962
		},
		{
			"buffer":0,
			"byteLength":6024,
			"byteOffset":555524,
			"target":34962
		},
		{
			"buffer":0,
			"byteLength":504,
			"byteOffset":561548,
			"target":34962
		},
		{
			"buffer":0,
			"byteLength":504,
			"byteOffset":562052,
			"target":34962
		},
		{
			"buffer":0,
			"byteLength":336,
			"byteOffset":562556,
			"target":34962
		},
		{
			"buffer":0,
			"byteLength":84,
			"byteOffset":562892,
			"target":34963
		}
	],
	"samplers":[
		{
			"magFilter":9729,
			"minFilter":9987
		}
	],
	"buffers":[
		{
			"byteLength":562976,
			"uri":"collision-world-05.bin"
		}
	]
}
