{
	"asset":{
		"generator":"Khronos glTF Blender I/O v5.1.20",
		"version":"2.0"
	},
	"extensionsUsed":[
		"KHR_materials_emissive_strength",
		"KHR_lights_punctual"
	],
	"extensionsRequired":[
		"KHR_lights_punctual"
	],
	"extensions":{
		"KHR_lights_punctual":{
			"lights":[
				{
					"color":[
						1,
						0.29297223687171936,
						0
					],
					"intensity":2717.5706532941126,
					"type":"point",
					"name":"Point.006"
				}
			]
		}
	},
	"scene":0,
	"scenes":[
		{
			"name":"World",
			"nodes":[
				0,
				1,
				2,
				3,
				4,
				5,
				6,
				7,
				8,
				9,
				10,
				11,
				12,
				13,
				14,
				15
			]
		}
	],
	"nodes":[
		{
			"mesh":0,
			"name":"171401",
			"translation":[
				3.233731746673584,
				-300.1036071777344,
				0.3093588352203369
			]
		},
		{
			"mesh":1,
			"name":"20181027_OBP001_0.001",
			"translation":[
				0.850105881690979,
				-302.8989562988281,
				-4.6897711753845215
			]
		},
		{
			"mesh":2,
			"name":"gv32O",
			"translation":[
				3.856626510620117,
				-307.7587890625,
				-0.7776761054992676
			]
		},
		{
			"mesh":3,
			"name":"Cube.119",
			"translation":[
				0.08125913143157959,
				-205.99908447265625,
				1.9587424993515015
			]
		},
		{
			"mesh":4,
			"name":"Cube.120",
			"rotation":[
				-0.08970050513744354,
				-0.15518318116664886,
				-0.8563387393951416,
				0.48430976271629333
			],
			"translation":[
				2.388087272644043,
				-209.28858947753906,
				0.9642236828804016
			]
		},
		{
			"mesh":5,
			"name":"Cube.122",
			"rotation":[
				-0.5000001788139343,
				0.5000001192092896,
				-0.4999998211860657,
				0.49999988079071045
			],
			"translation":[
				0.059707045555114746,
				-228.9432373046875,
				0.01733049750328064
			]
		},
		{
			"mesh":6,
			"name":"Cube.123",
			"rotation":[
				-0.5000001788139343,
				0.5000001192092896,
				-0.4999998211860657,
				0.49999988079071045
			],
			"translation":[
				0.059707045555114746,
				-228.9432373046875,
				0.01733049750328064
			]
		},
		{
			"mesh":7,
			"name":"asfafwagheh",
			"rotation":[
				0,
				-0.9396610260009766,
				0,
				0.3421069383621216
			],
			"translation":[
				5.437798500061035,
				-283.7055358886719,
				-0.4547247290611267
			]
		},
		{
			"mesh":8,
			"name":"safafw",
			"rotation":[
				0,
				0.5622120499610901,
				0,
				0.8269931077957153
			],
			"translation":[
				1.3688867092132568,
				-284.0845947265625,
				-3.552845001220703
			]
		},
		{
			"mesh":9,
			"name":"sadafwa",
			"rotation":[
				-0.05402423441410065,
				0.9734386205673218,
				-0.10071397572755814,
				0.19838203489780426
			],
			"translation":[
				-3.946622371673584,
				-292.9398193359375,
				0.4889065623283386
			]
		},
		{
			"mesh":10,
			"name":"czkkl",
			"rotation":[
				-0.11810576170682907,
				-0.5447536110877991,
				-0.12827639281749725,
				0.8202680945396423
			],
			"translation":[
				1.486092209815979,
				-294.4882507324219,
				4.156649112701416
			]
		},
		{
			"mesh":11,
			"name":"Cylinder.013",
			"translation":[
				0.14848756790161133,
				-201.93850708007812,
				0.2459176480770111
			]
		},
		{
			"mesh":12,
			"name":"Cylinder.014",
			"translation":[
				0.18069827556610107,
				-257.58905029296875,
				0.48263680934906006
			]
		},
		{
			"mesh":13,
			"name":"Cylinder.015",
			"translation":[
				0.14848756790161133,
				-304.23040771484375,
				0.2459176480770111
			]
		},
		{
			"mesh":14,
			"name":"Plane.004",
			"translation":[
				-3.4346632957458496,
				-296.7770690917969,
				1.1873505115509033
			]
		},
		{
			"extensions":{
				"KHR_lights_punctual":{
					"light":0
				}
			},
			"name":"Point.003",
			"rotation":[
				0.7071069478988647,
				0,
				0,
				0.7071065902709961
			],
			"translation":[
				-0.3740445077419281,
				-248.0968017578125,
				0.36612436175346375
			]
		}
	],
	"materials":[
		{
			"doubleSided":true,
			"emissiveFactor":[
				1,
				1,
				1
			],
			"emissiveTexture":{
				"index":0
			},
			"extensions":{
				"KHR_materials_emissive_strength":{
					"emissiveStrength":5
				}
			},
			"name":"171401",
			"pbrMetallicRoughness":{
				"baseColorTexture":{
					"index":1
				},
				"metallicFactor":0,
				"roughnessFactor":0
			}
		},
		{
			"doubleSided":true,
			"emissiveFactor":[
				1,
				1,
				1
			],
			"emissiveTexture":{
				"index":2
			},
			"extensions":{
				"KHR_materials_emissive_strength":{
					"emissiveStrength":5
				}
			},
			"name":"20181027_OBP001_0.001",
			"pbrMetallicRoughness":{
				"baseColorTexture":{
					"index":3
				},
				"metallicFactor":0,
				"roughnessFactor":0
			}
		},
		{
			"doubleSided":true,
			"emissiveFactor":[
				1,
				1,
				1
			],
			"emissiveTexture":{
				"index":4
			},
			"extensions":{
				"KHR_materials_emissive_strength":{
					"emissiveStrength":5
				}
			},
			"name":"gv32O",
			"pbrMetallicRoughness":{
				"baseColorTexture":{
					"index":5
				},
				"metallicFactor":0,
				"roughnessFactor":0
			}
		},
		{
			"doubleSided":true,
			"emissiveFactor":[
				1,
				0.05780536810346164,
				0.0009103329735162079
			],
			"extensions":{
				"KHR_materials_emissive_strength":{
					"emissiveStrength":2.0000481605529785
				}
			},
			"name":"red-emissive",
			"pbrMetallicRoughness":{
				"baseColorFactor":[
					0.5457167029380798,
					0.021219048649072647,
					0.0027310645673424006,
					1
				],
				"metallicFactor":0,
				"roughnessFactor":0.5
			}
		},
		{
			"doubleSided":true,
			"name":"alert",
			"pbrMetallicRoughness":{
				"baseColorTexture":{
					"index":6
				},
				"metallicFactor":0,
				"roughnessFactor":0.5
			}
		},
		{
			"doubleSided":true,
			"name":"orange",
			"pbrMetallicRoughness":{
				"baseColorTexture":{
					"index":7
				},
				"metallicFactor":0,
				"roughnessFactor":0.5
			}
		},
		{
			"doubleSided":true,
			"name":"dazzle-blue",
			"pbrMetallicRoughness":{
				"baseColorTexture":{
					"index":8
				},
				"metallicFactor":0,
				"roughnessFactor":0.5
			}
		},
		{
			"doubleSided":true,
			"emissiveFactor":[
				1,
				1,
				1
			],
			"emissiveTexture":{
				"index":9
			},
			"extensions":{
				"KHR_materials_emissive_strength":{
					"emissiveStrength":5
				}
			},
			"name":"asfafwagheh",
			"pbrMetallicRoughness":{
				"baseColorTexture":{
					"index":10
				},
				"metallicFactor":0,
				"roughnessFactor":0
			}
		},
		{
			"doubleSided":true,
			"emissiveFactor":[
				1,
				1,
				1
			],
			"emissiveTexture":{
				"index":11
			},
			"extensions":{
				"KHR_materials_emissive_strength":{
					"emissiveStrength":5
				}
			},
			"name":"safafw",
			"pbrMetallicRoughness":{
				"baseColorTexture":{
					"index":12
				},
				"metallicFactor":0,
				"roughnessFactor":0
			}
		},
		{
			"doubleSided":true,
			"emissiveFactor":[
				1,
				1,
				1
			],
			"emissiveTexture":{
				"index":13
			},
			"extensions":{
				"KHR_materials_emissive_strength":{
					"emissiveStrength":5
				}
			},
			"name":"sadafwa",
			"pbrMetallicRoughness":{
				"baseColorTexture":{
					"index":14
				},
				"metallicFactor":0,
				"roughnessFactor":0
			}
		},
		{
			"doubleSided":true,
			"emissiveFactor":[
				1,
				1,
				1
			],
			"emissiveTexture":{
				"index":15
			},
			"name":"czkkl",
			"pbrMetallicRoughness":{
				"baseColorTexture":{
					"index":16
				},
				"metallicFactor":0,
				"roughnessFactor":0
			}
		},
		{
			"doubleSided":true,
			"name":"alert-blue",
			"pbrMetallicRoughness":{
				"baseColorTexture":{
					"index":17
				},
				"metallicFactor":0,
				"roughnessFactor":0.5
			}
		}
	],
	"meshes":[
		{
			"name":"171401",
			"primitives":[
				{
					"attributes":{
						"POSITION":0,
						"NORMAL":1,
						"TEXCOORD_0":2
					},
					"indices":3,
					"material":0
				}
			]
		},
		{
			"name":"20181027_OBP001_0.001",
			"primitives":[
				{
					"attributes":{
						"POSITION":4,
						"NORMAL":5,
						"TEXCOORD_0":6
					},
					"indices":3,
					"material":1
				}
			]
		},
		{
			"name":"gv32O",
			"primitives":[
				{
					"attributes":{
						"POSITION":7,
						"NORMAL":8,
						"TEXCOORD_0":9
					},
					"indices":10,
					"material":2
				}
			]
		},
		{
			"name":"Cube.123",
			"primitives":[
				{
					"attributes":{
						"POSITION":11,
						"NORMAL":12,
						"TEXCOORD_0":13
					},
					"indices":14,
					"material":3
				}
			]
		},
		{
			"name":"Cube.124",
			"primitives":[
				{
					"attributes":{
						"POSITION":15,
						"NORMAL":16,
						"TEXCOORD_0":17
					},
					"indices":18,
					"material":4
				}
			]
		},
		{
			"name":"Cube.126",
			"primitives":[
				{
					"attributes":{
						"POSITION":19,
						"NORMAL":20,
						"TEXCOORD_0":21
					},
					"indices":22,
					"material":5
				}
			]
		},
		{
			"name":"Cube.127",
			"primitives":[
				{
					"attributes":{
						"POSITION":23,
						"NORMAL":24,
						"TEXCOORD_0":25
					},
					"indices":26,
					"material":6
				}
			]
		},
		{
			"name":"asfafwagheh",
			"primitives":[
				{
					"attributes":{
						"POSITION":27,
						"NORMAL":28,
						"TEXCOORD_0":29
					},
					"indices":3,
					"material":7
				}
			]
		},
		{
			"name":"safafw",
			"primitives":[
				{
					"attributes":{
						"POSITION":30,
						"NORMAL":31,
						"TEXCOORD_0":32
					},
					"indices":3,
					"material":8
				}
			]
		},
		{
			"name":"sadafwa",
			"primitives":[
				{
					"attributes":{
						"POSITION":33,
						"NORMAL":34,
						"TEXCOORD_0":35
					},
					"indices":3,
					"material":9
				}
			]
		},
		{
			"name":"czkkl",
			"primitives":[
				{
					"attributes":{
						"POSITION":36,
						"NORMAL":37,
						"TEXCOORD_0":38
					},
					"indices":3,
					"material":10
				}
			]
		},
		{
			"name":"Cylinder.019",
			"primitives":[
				{
					"attributes":{
						"POSITION":39,
						"NORMAL":40,
						"TEXCOORD_0":41
					},
					"indices":42,
					"material":4
				}
			]
		},
		{
			"name":"Cylinder.020",
			"primitives":[
				{
					"attributes":{
						"POSITION":43,
						"NORMAL":44,
						"TEXCOORD_0":45
					},
					"indices":46,
					"material":4
				}
			]
		},
		{
			"name":"Cylinder.021",
			"primitives":[
				{
					"attributes":{
						"POSITION":47,
						"NORMAL":48,
						"TEXCOORD_0":49
					},
					"indices":50,
					"material":6
				}
			]
		},
		{
			"name":"Plane.007",
			"primitives":[
				{
					"attributes":{
						"POSITION":51,
						"NORMAL":52,
						"TEXCOORD_0":53
					},
					"indices":54,
					"material":11
				}
			]
		}
	],
	"textures":[
		{
			"sampler":0,
			"source":0
		},
		{
			"sampler":0,
			"source":0
		},
		{
			"sampler":0,
			"source":1
		},
		{
			"sampler":0,
			"source":1
		},
		{
			"sampler":0,
			"source":2
		},
		{
			"sampler":0,
			"source":2
		},
		{
			"sampler":1,
			"source":3
		},
		{
			"sampler":1,
			"source":4
		},
		{
			"sampler":1,
			"source":5
		},
		{
			"sampler":0,
			"source":6
		},
		{
			"sampler":0,
			"source":6
		},
		{
			"sampler":0,
			"source":7
		},
		{
			"sampler":0,
			"source":7
		},
		{
			"sampler":0,
			"source":8
		},
		{
			"sampler":0,
			"source":8
		},
		{
			"sampler":0,
			"source":9
		},
		{
			"sampler":0,
			"source":9
		},
		{
			"sampler":1,
			"source":10
		}
	],
	"images":[
		{
			"mimeType":"image/jpeg",
			"name":"171401",
			"uri":"tex/171401.jpg"
		},
		{
			"mimeType":"image/jpeg",
			"name":"20181027_OBP001_0",
			"uri":"tex/20181027_OBP001_0.jpg"
		},
		{
			"mimeType":"image/jpeg",
			"name":"gv32O",
			"uri":"tex/gv32O.jpg"
		},
		{
			"mimeType":"image/jpeg",
			"name":"alert",
			"uri":"tex/alert.jpg"
		},
		{
			"mimeType":"image/jpeg",
			"name":"tex2",
			"uri":"tex/tex2.jpg"
		},
		{
			"mimeType":"image/jpeg",
			"name":"dazzle_modro",
			"uri":"tex/dazzle_modro.jpg"
		},
		{
			"mimeType":"image/jpeg",
			"name":"asfafwagheh",
			"uri":"tex/asfafwagheh.jpg"
		},
		{
			"mimeType":"image/jpeg",
			"name":"safafw",
			"uri":"tex/safafw.jpg"
		},
		{
			"mimeType":"image/jpeg",
			"name":"sadafwa",
			"uri":"tex/sadafwa.jpg"
		},
		{
			"mimeType":"image/jpeg",
			"name":"czkkl",
			"uri":"tex/czkkl.jpg"
		},
		{
			"mimeType":"image/jpeg",
			"name":"alert-blue",
			"uri":"tex/alert-blue.jpg"
		}
	],
	"accessors":[
		{
			"bufferView":0,
			"componentType":5126,
			"count":4,
			"max":[
				3.7895805835723877,
				0,
				2.7044973373413086
			],
			"min":[
				-3.7895805835723877,
				0,
				-2.7044973373413086
			],
			"type":"VEC3"
		},
		{
			"bufferView":1,
			"componentType":5126,
			"count":4,
			"type":"VEC3"
		},
		{
			"bufferView":2,
			"componentType":5126,
			"count":4,
			"type":"VEC2"
		},
		{
			"bufferView":3,
			"componentType":5123,
			"count":6,
			"type":"SCALAR"
		},
		{
			"bufferView":4,
			"componentType":5126,
			"count":4,
			"max":[
				3.244364023208618,
				0,
				1.8249547481536865
			],
			"min":[
				-3.244364023208618,
				0,
				-1.8249547481536865
			],
			"type":"VEC3"
		},
		{
			"bufferView":5,
			"componentType":5126,
			"count":4,
			"type":"VEC3"
		},
		{
			"bufferView":6,
			"componentType":5126,
			"count":4,
			"type":"VEC2"
		},
		{
			"bufferView":7,
			"componentType":5126,
			"count":4,
			"max":[
				3.60878849029541,
				0,
				2.300602674484253
			],
			"min":[
				-3.60878849029541,
				0,
				-2.300602674484253
			],
			"type":"VEC3"
		},
		{
			"bufferView":8,
			"componentType":5126,
			"count":4,
			"type":"VEC3"
		},
		{
			"bufferView":9,
			"componentType":5126,
			"count":4,
			"type":"VEC2"
		},
		{
			"bufferView":10,
			"componentType":5123,
			"count":6,
			"type":"SCALAR"
		},
		{
			"bufferView":11,
			"componentType":5126,
			"count":2333,
			"max":[
				8.465778350830078,
				29.130876541137695,
				5.210797309875488
			],
			"min":[
				-7.9499921798706055,
				-5.742819786071777,
				-8.235610008239746
			],
			"type":"VEC3"
		},
		{
			"bufferView":12,
			"componentType":5126,
			"count":2333,
			"type":"VEC3"
		},
		{
			"bufferView":13,
			"componentType":5126,
			"count":2333,
			"type":"VEC2"
		},
		{
			"bufferView":14,
			"componentType":5123,
			"count":3264,
			"type":"SCALAR"
		},
		{
			"bufferView":15,
			"componentType":5126,
			"count":139,
			"max":[
				9.44962215423584,
				8.594550132751465,
				12.723481178283691
			],
			"min":[
				-23.312171936035156,
				-17.478038787841797,
				-12.900134086608887
			],
			"type":"VEC3"
		},
		{
			"bufferView":16,
			"componentType":5126,
			"count":139,
			"type":"VEC3"
		},
		{
			"bufferView":17,
			"componentType":5126,
			"count":139,
			"type":"VEC2"
		},
		{
			"bufferView":18,
			"componentType":5123,
			"count":144,
			"type":"SCALAR"
		},
		{
			"bufferView":19,
			"componentType":5126,
			"count":739,
			"max":[
				51.33268356323242,
				9.303451538085938,
				9.303451538085938
			],
			"min":[
				-2.506789445877075,
				-9.303451538085938,
				-9.303451538085938
			],
			"type":"VEC3"
		},
		{
			"bufferView":20,
			"componentType":5126,
			"count":739,
			"type":"VEC3"
		},
		{
			"bufferView":21,
			"componentType":5126,
			"count":739,
			"type":"VEC2"
		},
		{
			"bufferView":22,
			"componentType":5123,
			"count":1191,
			"type":"SCALAR"
		},
		{
			"bufferView":23,
			"componentType":5126,
			"count":340,
			"max":[
				46.45009231567383,
				9.38784408569336,
				9.38784408569336
			],
			"min":[
				2.375800132751465,
				-9.38784408569336,
				-9.38784408569336
			],
			"type":"VEC3"
		},
		{
			"bufferView":24,
			"componentType":5126,
			"count":340,
			"type":"VEC3"
		},
		{
			"bufferView":25,
			"componentType":5126,
			"count":340,
			"type":"VEC2"
		},
		{
			"bufferView":26,
			"componentType":5123,
			"count":480,
			"type":"SCALAR"
		},
		{
			"bufferView":27,
			"componentType":5126,
			"count":4,
			"max":[
				2.49847674369812,
				0,
				1.4990860223770142
			],
			"min":[
				-2.49847674369812,
				0,
				-1.4990860223770142
			],
			"type":"VEC3"
		},
		{
			"bufferView":28,
			"componentType":5126,
			"count":4,
			"type":"VEC3"
		},
		{
			"bufferView":29,
			"componentType":5126,
			"count":4,
			"type":"VEC2"
		},
		{
			"bufferView":30,
			"componentType":5126,
			"count":4,
			"max":[
				2.756122350692749,
				0,
				1.830065131187439
			],
			"min":[
				-2.756122350692749,
				0,
				-1.830065131187439
			],
			"type":"VEC3"
		},
		{
			"bufferView":31,
			"componentType":5126,
			"count":4,
			"type":"VEC3"
		},
		{
			"bufferView":32,
			"componentType":5126,
			"count":4,
			"type":"VEC2"
		},
		{
			"bufferView":33,
			"componentType":5126,
			"count":4,
			"max":[
				6.663799285888672,
				0,
				3.748387336730957
			],
			"min":[
				-6.663799285888672,
				0,
				-3.748387336730957
			],
			"type":"VEC3"
		},
		{
			"bufferView":34,
			"componentType":5126,
			"count":4,
			"type":"VEC3"
		},
		{
			"bufferView":35,
			"componentType":5126,
			"count":4,
			"type":"VEC2"
		},
		{
			"bufferView":36,
			"componentType":5126,
			"count":4,
			"max":[
				3.4597880840301514,
				0,
				2.4668290615081787
			],
			"min":[
				-3.4597880840301514,
				0,
				-2.4668290615081787
			],
			"type":"VEC3"
		},
		{
			"bufferView":37,
			"componentType":5126,
			"count":4,
			"type":"VEC3"
		},
		{
			"bufferView":38,
			"componentType":5126,
			"count":4,
			"type":"VEC2"
		},
		{
			"bufferView":39,
			"componentType":5126,
			"count":34,
			"max":[
				9.551203727722168,
				17.733394622802734,
				11.028779983520508
			],
			"min":[
				-9.551203727722168,
				-24.246126174926758,
				-11.028779983520508
			],
			"type":"VEC3"
		},
		{
			"bufferView":40,
			"componentType":5126,
			"count":34,
			"type":"VEC3"
		},
		{
			"bufferView":41,
			"componentType":5126,
			"count":34,
			"type":"VEC2"
		},
		{
			"bufferView":42,
			"componentType":5123,
			"count":36,
			"type":"SCALAR"
		},
		{
			"bufferView":43,
			"componentType":5126,
			"count":265,
			"max":[
				15.736458778381348,
				35.02495574951172,
				18.05440330505371
			],
			"min":[
				-15.605330467224121,
				-29.711244583129883,
				-18.135976791381836
			],
			"type":"VEC3"
		},
		{
			"bufferView":44,
			"componentType":5126,
			"count":265,
			"type":"VEC3"
		},
		{
			"bufferView":45,
			"componentType":5126,
			"count":265,
			"type":"VEC2"
		},
		{
			"bufferView":46,
			"componentType":5123,
			"count":288,
			"type":"SCALAR"
		},
		{
			"bufferView":47,
			"componentType":5126,
			"count":41,
			"max":[
				13.924957275390625,
				18.790517807006836,
				11.68622875213623
			],
			"min":[
				-10.12057113647461,
				-25.691486358642578,
				-18.27562141418457
			],
			"type":"VEC3"
		},
		{
			"bufferView":48,
			"componentType":5126,
			"count":41,
			"type":"VEC3"
		},
		{
			"bufferView":49,
			"componentType":5126,
			"count":41,
			"type":"VEC2"
		},
		{
			"bufferView":50,
			"componentType":5123,
			"count":42,
			"type":"SCALAR"
		},
		{
			"bufferView":51,
			"componentType":5126,
			"count":528,
			"max":[
				28.978717803955078,
				13.725265502929688,
				14.626402854919434
			],
			"min":[
				-8.769350051879883,
				-1.3617459535598755,
				-17.724384307861328
			],
			"type":"VEC3"
		},
		{
			"bufferView":52,
			"componentType":5126,
			"count":528,
			"type":"VEC3"
		},
		{
			"bufferView":53,
			"componentType":5126,
			"count":528,
			"type":"VEC2"
		},
		{
			"bufferView":54,
			"componentType":5123,
			"count":792,
			"type":"SCALAR"
		}
	],
	"bufferViews":[
		{
			"buffer":0,
			"byteLength":48,
			"byteOffset":0,
			"target":34962
		},
		{
			"buffer":0,
			"byteLength":48,
			"byteOffset":48,
			"target":34962
		},
		{
			"buffer":0,
			"byteLength":32,
			"byteOffset":96,
			"target":34962
		},
		{
			"buffer":0,
			"byteLength":12,
			"byteOffset":128,
			"target":34963
		},
		{
			"buffer":0,
			"byteLength":48,
			"byteOffset":140,
			"target":34962
		},
		{
			"buffer":0,
			"byteLength":48,
			"byteOffset":188,
			"target":34962
		},
		{
			"buffer":0,
			"byteLength":32,
			"byteOffset":236,
			"target":34962
		},
		{
			"buffer":0,
			"byteLength":48,
			"byteOffset":268,
			"target":34962
		},
		{
			"buffer":0,
			"byteLength":48,
			"byteOffset":316,
			"target":34962
		},
		{
			"buffer":0,
			"byteLength":32,
			"byteOffset":364,
			"target":34962
		},
		{
			"buffer":0,
			"byteLength":12,
			"byteOffset":396,
			"target":34963
		},
		{
			"buffer":0,
			"byteLength":27996,
			"byteOffset":408,
			"target":34962
		},
		{
			"buffer":0,
			"byteLength":27996,
			"byteOffset":28404,
			"target":34962
		},
		{
			"buffer":0,
			"byteLength":18664,
			"byteOffset":56400,
			"target":34962
		},
		{
			"buffer":0,
			"byteLength":6528,
			"byteOffset":75064,
			"target":34963
		},
		{
			"buffer":0,
			"byteLength":1668,
			"byteOffset":81592,
			"target":34962
		},
		{
			"buffer":0,
			"byteLength":1668,
			"byteOffset":83260,
			"target":34962
		},
		{
			"buffer":0,
			"byteLength":1112,
			"byteOffset":84928,
			"target":34962
		},
		{
			"buffer":0,
			"byteLength":288,
			"byteOffset":86040,
			"target":34963
		},
		{
			"buffer":0,
			"byteLength":8868,
			"byteOffset":86328,
			"target":34962
		},
		{
			"buffer":0,
			"byteLength":8868,
			"byteOffset":95196,
			"target":34962
		},
		{
			"buffer":0,
			"byteLength":5912,
			"byteOffset":104064,
			"target":34962
		},
		{
			"buffer":0,
			"byteLength":2382,
			"byteOffset":109976,
			"target":34963
		},
		{
			"buffer":0,
			"byteLength":4080,
			"byteOffset":112360,
			"target":34962
		},
		{
			"buffer":0,
			"byteLength":4080,
			"byteOffset":116440,
			"target":34962
		},
		{
			"buffer":0,
			"byteLength":2720,
			"byteOffset":120520,
			"target":34962
		},
		{
			"buffer":0,
			"byteLength":960,
			"byteOffset":123240,
			"target":34963
		},
		{
			"buffer":0,
			"byteLength":48,
			"byteOffset":124200,
			"target":34962
		},
		{
			"buffer":0,
			"byteLength":48,
			"byteOffset":124248,
			"target":34962
		},
		{
			"buffer":0,
			"byteLength":32,
			"byteOffset":124296,
			"target":34962
		},
		{
			"buffer":0,
			"byteLength":48,
			"byteOffset":124328,
			"target":34962
		},
		{
			"buffer":0,
			"byteLength":48,
			"byteOffset":124376,
			"target":34962
		},
		{
			"buffer":0,
			"byteLength":32,
			"byteOffset":124424,
			"target":34962
		},
		{
			"buffer":0,
			"byteLength":48,
			"byteOffset":124456,
			"target":34962
		},
		{
			"buffer":0,
			"byteLength":48,
			"byteOffset":124504,
			"target":34962
		},
		{
			"buffer":0,
			"byteLength":32,
			"byteOffset":124552,
			"target":34962
		},
		{
			"buffer":0,
			"byteLength":48,
			"byteOffset":124584,
			"target":34962
		},
		{
			"buffer":0,
			"byteLength":48,
			"byteOffset":124632,
			"target":34962
		},
		{
			"buffer":0,
			"byteLength":32,
			"byteOffset":124680,
			"target":34962
		},
		{
			"buffer":0,
			"byteLength":408,
			"byteOffset":124712,
			"target":34962
		},
		{
			"buffer":0,
			"byteLength":408,
			"byteOffset":125120,
			"target":34962
		},
		{
			"buffer":0,
			"byteLength":272,
			"byteOffset":125528,
			"target":34962
		},
		{
			"buffer":0,
			"byteLength":72,
			"byteOffset":125800,
			"target":34963
		},
		{
			"buffer":0,
			"byteLength":3180,
			"byteOffset":125872,
			"target":34962
		},
		{
			"buffer":0,
			"byteLength":3180,
			"byteOffset":129052,
			"target":34962
		},
		{
			"buffer":0,
			"byteLength":2120,
			"byteOffset":132232,
			"target":34962
		},
		{
			"buffer":0,
			"byteLength":576,
			"byteOffset":134352,
			"target":34963
		},
		{
			"buffer":0,
			"byteLength":492,
			"byteOffset":134928,
			"target":34962
		},
		{
			"buffer":0,
			"byteLength":492,
			"byteOffset":135420,
			"target":34962
		},
		{
			"buffer":0,
			"byteLength":328,
			"byteOffset":135912,
			"target":34962
		},
		{
			"buffer":0,
			"byteLength":84,
			"byteOffset":136240,
			"target":34963
		},
		{
			"buffer":0,
			"byteLength":6336,
			"byteOffset":136324,
			"target":34962
		},
		{
			"buffer":0,
			"byteLength":6336,
			"byteOffset":142660,
			"target":34962
		},
		{
			"buffer":0,
			"byteLength":4224,
			"byteOffset":148996,
			"target":34962
		},
		{
			"buffer":0,
			"byteLength":1584,
			"byteOffset":153220,
			"target":34963
		}
	],
	"samplers":[
		{
			"magFilter":9729,
			"minFilter":9987,
			"wrapS":33071,
			"wrapT":33071
		},
		{
			"magFilter":9729,
			"minFilter":9987
		}
	],
	"buffers":[
		{
			"byteLength":154804,
			"uri":"collision-world-04.bin"
		}
	]
}
