{
	"asset":{
		"generator":"Khronos glTF Blender I/O v5.1.20",
		"version":"2.0"
	},
	"extensionsUsed":[
		"KHR_materials_emissive_strength"
	],
	"scene":0,
	"scenes":[
		{
			"name":"World",
			"nodes":[
				0,
				1,
				2
			]
		}
	],
	"nodes":[
		{
			"mesh":0,
			"name":"Cube.103",
			"translation":[
				8.79153060913086,
				-152.25709533691406,
				-1.3046579360961914
			]
		},
		{
			"mesh":1,
			"name":"Cube.114",
			"rotation":[
				-0.47120028734207153,
				-0.10979107022285461,
				-0.2538423538208008,
				0.8375442028045654
			],
			"scale":[
				3.4792003631591797,
				3.4792001247406006,
				3.4791994094848633
			],
			"translation":[
				1.5640225410461426,
				-165.1572265625,
				0.041028738021850586
			]
		},
		{
			"mesh":2,
			"name":"Cylinder.012",
			"translation":[
				0.14848756790161133,
				-172.04222106933594,
				0.2459176480770111
			]
		}
	],
	"materials":[
		{
			"doubleSided":true,
			"emissiveFactor":[
				1,
				1,
				1
			],
			"name":"emissive_crna",
			"pbrMetallicRoughness":{
				"baseColorFactor":[
					0,
					0,
					0,
					1
				],
				"metallicFactor":0,
				"roughnessFactor":0.5
			}
		},
		{
			"doubleSided":true,
			"emissiveFactor":[
				1,
				0.05780536810346164,
				0.0009103329735162079
			],
			"extensions":{
				"KHR_materials_emissive_strength":{
					"emissiveStrength":2.0000481605529785
				}
			},
			"name":"red-emissive",
			"pbrMetallicRoughness":{
				"baseColorFactor":[
					0.5457167029380798,
					0.021219048649072647,
					0.0027310645673424006,
					1
				],
				"metallicFactor":0,
				"roughnessFactor":0.5
			}
		},
		{
			"doubleSided":true,
			"name":"alert",
			"pbrMetallicRoughness":{
				"baseColorTexture":{
					"index":0
				},
				"metallicFactor":0,
				"roughnessFactor":0.5
			}
		}
	],
	"meshes":[
		{
			"name":"Cube.106",
			"primitives":[
				{
					"attributes":{
						"POSITION":0,
						"NORMAL":1,
						"TEXCOORD_0":2
					},
					"indices":3,
					"material":0
				}
			]
		},
		{
			"name":"Cube.118",
			"primitives":[
				{
					"attributes":{
						"POSITION":4,
						"NORMAL":5,
						"TEXCOORD_0":6
					},
					"indices":7,
					"material":1
				}
			]
		},
		{
			"name":"Cylinder.018",
			"primitives":[
				{
					"attributes":{
						"POSITION":8,
						"NORMAL":9,
						"TEXCOORD_0":10
					},
					"indices":11,
					"material":2
				}
			]
		}
	],
	"textures":[
		{
			"sampler":0,
			"source":0
		}
	],
	"images":[
		{
			"mimeType":"image/jpeg",
			"name":"alert",
			"uri":"tex/alert.jpg"
		}
	],
	"accessors":[
		{
			"bufferView":0,
			"componentType":5126,
			"count":24,
			"max":[
				1,
				1,
				1
			],
			"min":[
				-1,
				-1,
				-1
			],
			"type":"VEC3"
		},
		{
			"bufferView":1,
			"componentType":5126,
			"count":24,
			"type":"VEC3"
		},
		{
			"bufferView":2,
			"componentType":5126,
			"count":24,
			"type":"VEC2"
		},
		{
			"bufferView":3,
			"componentType":5123,
			"count":36,
			"type":"SCALAR"
		},
		{
			"bufferView":4,
			"componentType":5126,
			"count":192,
			"max":[
				1.0138564109802246,
				1.0138564109802246,
				1.0138564109802246
			],
			"min":[
				-1.0138564109802246,
				-1.0138564109802246,
				-1.0138564109802246
			],
			"type":"VEC3"
		},
		{
			"bufferView":5,
			"componentType":5126,
			"count":192,
			"type":"VEC3"
		},
		{
			"bufferView":6,
			"componentType":5126,
			"count":192,
			"type":"VEC2"
		},
		{
			"bufferView":7,
			"componentType":5123,
			"count":288,
			"type":"SCALAR"
		},
		{
			"bufferView":8,
			"componentType":5126,
			"count":426,
			"max":[
				19.59417724609375,
				38.92103576660156,
				14.18340015411377
			],
			"min":[
				-22.682233810424805,
				-22.219083786010742,
				-17.258983612060547
			],
			"type":"VEC3"
		},
		{
			"bufferView":9,
			"componentType":5126,
			"count":426,
			"type":"VEC3"
		},
		{
			"bufferView":10,
			"componentType":5126,
			"count":426,
			"type":"VEC2"
		},
		{
			"bufferView":11,
			"componentType":5123,
			"count":582,
			"type":"SCALAR"
		}
	],
	"bufferViews":[
		{
			"buffer":0,
			"byteLength":288,
			"byteOffset":0,
			"target":34962
		},
		{
			"buffer":0,
			"byteLength":288,
			"byteOffset":288,
			"target":34962
		},
		{
			"buffer":0,
			"byteLength":192,
			"byteOffset":576,
			"target":34962
		},
		{
			"buffer":0,
			"byteLength":72,
			"byteOffset":768,
			"target":34963
		},
		{
			"buffer":0,
			"byteLength":2304,
			"byteOffset":840,
			"target":34962
		},
		{
			"buffer":0,
			"byteLength":2304,
			"byteOffset":3144,
			"target":34962
		},
		{
			"buffer":0,
			"byteLength":1536,
			"byteOffset":5448,
			"target":34962
		},
		{
			"buffer":0,
			"byteLength":576,
			"byteOffset":6984,
			"target":34963
		},
		{
			"buffer":0,
			"byteLength":5112,
			"byteOffset":7560,
			"target":34962
		},
		{
			"buffer":0,
			"byteLength":5112,
			"byteOffset":12672,
			"target":34962
		},
		{
			"buffer":0,
			"byteLength":3408,
			"byteOffset":17784,
			"target":34962
		},
		{
			"buffer":0,
			"byteLength":1164,
			"byteOffset":21192,
			"target":34963
		}
	],
	"samplers":[
		{
			"magFilter":9729,
			"minFilter":9987
		}
	],
	"buffers":[
		{
			"byteLength":22356,
			"uri":"collision-world-03.bin"
		}
	]
}
