{
	"asset":{
		"generator":"Khronos glTF Blender I/O v5.1.20",
		"version":"2.0"
	},
	"extensionsUsed":[
		"KHR_materials_emissive_strength",
		"KHR_lights_punctual"
	],
	"extensionsRequired":[
		"KHR_lights_punctual"
	],
	"extensions":{
		"KHR_lights_punctual":{
			"lights":[
				{
					"color":[
						1,
						0.02618047036230564,
						0
					],
					"intensity":2717.5706532941126,
					"type":"point",
					"name":"Point"
				}
			]
		}
	},
	"scene":0,
	"scenes":[
		{
			"name":"World",
			"nodes":[
				0,
				1,
				2,
				3,
				4,
				5,
				6,
				7,
				8,
				9,
				10,
				11,
				12,
				13,
				14,
				15,
				16,
				17,
				18,
				19,
				20,
				21,
				22,
				23,
				24,
				25,
				26,
				27,
				28,
				29,
				30
			]
		}
	],
	"nodes":[
		{
			"mesh":0,
			"name":"Cylinder.009",
			"scale":[
				0.9629634618759155,
				0.9629634618759155,
				0.9629634618759155
			],
			"translation":[
				1.2364740371704102,
				-62.51131057739258,
				-0.38197165727615356
			]
		},
		{
			"mesh":1,
			"name":"Cylinder.011",
			"scale":[
				0.9629634618759155,
				0.9629634618759155,
				0.9629634618759155
			],
			"translation":[
				0.15066289901733398,
				-29.80329132080078,
				0.24701079726219177
			]
		},
		{
			"mesh":2,
			"name":"Cube.126",
			"rotation":[
				0.004922099411487579,
				-0.01860911212861538,
				-0.06821684539318085,
				0.9974849224090576
			],
			"translation":[
				-2.6249630451202393,
				-30.38341522216797,
				0.19593560695648193
			]
		},
		{
			"mesh":3,
			"name":"Cube.127",
			"rotation":[
				0,
				-0.7486087083816528,
				0,
				0.6630120873451233
			],
			"translation":[
				4.194552898406982,
				-67.85498809814453,
				0.7587776780128479
			]
		},
		{
			"mesh":4,
			"name":"Cube.128",
			"rotation":[
				0,
				-0.9999973177909851,
				0,
				0.0023176211398094893
			],
			"translation":[
				0.4466061592102051,
				-74.03376770019531,
				-0.1642860770225525
			]
		},
		{
			"mesh":5,
			"name":"Cube.129",
			"rotation":[
				0,
				0.999302327632904,
				0,
				0.037350207567214966
			],
			"translation":[
				-5.434165000915527,
				-67.85498809814453,
				0.7587776780128479
			]
		},
		{
			"mesh":6,
			"name":"Cube.130",
			"rotation":[
				0,
				0.9728407859802246,
				0,
				0.23147526383399963
			],
			"translation":[
				-5.164915084838867,
				-68.97235870361328,
				-5.3552045822143555
			]
		},
		{
			"mesh":7,
			"name":"Cube.131",
			"rotation":[
				0,
				0.8591824173927307,
				0,
				0.5116694569587708
			],
			"translation":[
				-3.377558469772339,
				-70.91732788085938,
				-1.8614906072616577
			]
		},
		{
			"mesh":8,
			"name":"Cube.132",
			"rotation":[
				0,
				0.4709281325340271,
				0,
				0.8821715712547302
			],
			"translation":[
				2.197208881378174,
				-70.8999252319336,
				-1.900278925895691
			]
		},
		{
			"mesh":9,
			"name":"beam.002",
			"rotation":[
				0,
				0.999302327632904,
				0,
				0.03735022246837616
			],
			"translation":[
				-12.351512908935547,
				-44.53380584716797,
				-1.1086887121200562
			]
		},
		{
			"mesh":10,
			"name":"Cube.134",
			"rotation":[
				0,
				0.9944830536842346,
				0,
				0.10489749163389206
			],
			"translation":[
				-11.298328399658203,
				-45.029991149902344,
				-3.120762348175049
			]
		},
		{
			"mesh":11,
			"name":"Cube.139",
			"rotation":[
				-0.04465186223387718,
				0.4026705324649811,
				0.0807691216468811,
				0.9106805324554443
			],
			"translation":[
				0.9290460348129272,
				-35.159820556640625,
				-0.1419195532798767
			]
		},
		{
			"mesh":12,
			"name":"Cube.140",
			"rotation":[
				-0.0010177204385399818,
				0.9542069435119629,
				0.043644342571496964,
				0.29594501852989197
			],
			"scale":[
				0.9629635214805603,
				0.9629634618759155,
				0.9629632830619812
			],
			"translation":[
				-2.8036539554595947,
				-60.29139709472656,
				-4.029991149902344
			]
		},
		{
			"mesh":13,
			"name":"Cube.141",
			"rotation":[
				0,
				0.6980578899383545,
				0,
				0.7160413265228271
			],
			"scale":[
				0.9629634618759155,
				0.9629634618759155,
				0.9629634618759155
			],
			"translation":[
				2.221372127532959,
				-33.51006317138672,
				4.809864044189453
			]
		},
		{
			"mesh":14,
			"name":"Cube.142",
			"rotation":[
				-0.20681431889533997,
				0.5292760729789734,
				-0.2547655999660492,
				0.7824251651763916
			],
			"translation":[
				1.6588557958602905,
				-35.621192932128906,
				-4.00818395614624
			]
		},
		{
			"mesh":15,
			"name":"Cube.143",
			"rotation":[
				0.5264772772789001,
				0.7375755906105042,
				-0.14644700288772583,
				0.3966827690601349
			],
			"translation":[
				-1.6483433246612549,
				-37.15930938720703,
				-3.630626678466797
			]
		},
		{
			"mesh":16,
			"name":"Cube.146",
			"rotation":[
				0,
				-0.28823065757751465,
				0,
				0.9575610160827637
			],
			"scale":[
				0.9629635810852051,
				0.9629634618759155,
				0.9629635810852051
			],
			"translation":[
				2.44710111618042,
				-49.40326690673828,
				-3.2065954208374023
			]
		},
		{
			"mesh":17,
			"name":"Cube.149",
			"rotation":[
				0,
				-0.28823065757751465,
				0,
				0.9575610160827637
			],
			"scale":[
				0.9629635810852051,
				0.9629634618759155,
				0.9629635810852051
			],
			"translation":[
				4.050132751464844,
				-49.040802001953125,
				-3.841637134552002
			]
		},
		{
			"mesh":18,
			"name":"Cube.151",
			"rotation":[
				0,
				-0.26438650488853455,
				0,
				0.9644168019294739
			],
			"translation":[
				7.311650276184082,
				-63.075164794921875,
				-3.7059693336486816
			]
		},
		{
			"mesh":19,
			"name":"Cube.152",
			"scale":[
				0.581013560295105,
				0.11675912886857986,
				1.7901030778884888
			],
			"translation":[
				-4.560023784637451,
				-63.583099365234375,
				-1.831644892692566
			]
		},
		{
			"mesh":20,
			"name":"vxcvx.002",
			"rotation":[
				0.01311182789504528,
				-0.36301541328430176,
				-0.013590360060334206,
				0.9315918684005737
			],
			"scale":[
				0.6851521134376526,
				0.6851520538330078,
				0.6851521134376526
			],
			"translation":[
				0.2980388402938843,
				-32.46977233886719,
				2.3590950965881348
			]
		},
		{
			"mesh":21,
			"name":"Cube.153",
			"translation":[
				2.287973403930664,
				-60.08137130737305,
				4.76287317276001
			]
		},
		{
			"mesh":22,
			"name":"Cube.161",
			"rotation":[
				-0.08594689518213272,
				-0.27187153697013855,
				0.03362404555082321,
				0.9578980207443237
			],
			"translation":[
				0.9290460348129272,
				-37.75325012207031,
				-0.1419195532798767
			]
		},
		{
			"mesh":23,
			"name":"Cube.162",
			"rotation":[
				-0.1108013316988945,
				0.18363720178604126,
				-0.08940154314041138,
				0.9726293683052063
			],
			"translation":[
				0.9290460348129272,
				-43.554054260253906,
				-0.1419195532798767
			]
		},
		{
			"mesh":24,
			"name":"Cube.163",
			"rotation":[
				-0.04900668188929558,
				-0.6223244071006775,
				0.08807698637247086,
				0.7762429714202881
			],
			"translation":[
				2.8743443489074707,
				-40.00775909423828,
				-0.3386278748512268
			]
		},
		{
			"mesh":25,
			"name":"vxcvx.003",
			"rotation":[
				0.01311182789504528,
				-0.36301541328430176,
				-0.013590360060334206,
				0.9315918684005737
			],
			"scale":[
				0.6851521134376526,
				0.6851520538330078,
				0.6851521134376526
			],
			"translation":[
				-1.3486407995224,
				-39.7871208190918,
				0.8168057203292847
			]
		},
		{
			"mesh":26,
			"name":"vxcvx.004",
			"rotation":[
				0.01311182789504528,
				-0.36301541328430176,
				-0.013590360060334206,
				0.9315918684005737
			],
			"scale":[
				0.6851521134376526,
				0.6851520538330078,
				0.6851521134376526
			],
			"translation":[
				-1.2062125205993652,
				-43.922916412353516,
				-0.9047383069992065
			]
		},
		{
			"mesh":27,
			"name":"Cube.183",
			"rotation":[
				0,
				-0.28823065757751465,
				0,
				0.9575610160827637
			],
			"scale":[
				0.9629635810852051,
				0.9629634618759155,
				0.9629635810852051
			],
			"translation":[
				4.091971397399902,
				-50.42992401123047,
				2.066629409790039
			]
		},
		{
			"mesh":28,
			"name":"mouth.001",
			"scale":[
				0.17871826887130737,
				0.17871826887130737,
				0.17871826887130737
			],
			"translation":[
				0.560552179813385,
				-78.34261322021484,
				0.055308252573013306
			]
		},
		{
			"mesh":29,
			"name":"mouth.003",
			"rotation":[
				0,
				0.4633462727069855,
				0,
				0.8861773610115051
			],
			"scale":[
				0.17871826887130737,
				0.17871826887130737,
				0.17871826887130737
			],
			"translation":[
				2.095733642578125,
				-55.33259201049805,
				0.3740328848361969
			]
		},
		{
			"extensions":{
				"KHR_lights_punctual":{
					"light":0
				}
			},
			"name":"Point",
			"rotation":[
				0.7071069478988647,
				0,
				0,
				0.7071065902709961
			],
			"translation":[
				2.4079017639160156,
				-55.63528823852539,
				0.36611929535865784
			]
		}
	],
	"materials":[
		{
			"doubleSided":true,
			"name":"alert",
			"pbrMetallicRoughness":{
				"baseColorTexture":{
					"index":0
				},
				"metallicFactor":0,
				"roughnessFactor":0.5
			}
		},
		{
			"doubleSided":true,
			"emissiveFactor":[
				1,
				1,
				1
			],
			"emissiveTexture":{
				"index":1
			},
			"extensions":{
				"KHR_materials_emissive_strength":{
					"emissiveStrength":5
				}
			},
			"name":"mouth",
			"pbrMetallicRoughness":{
				"baseColorFactor":[
					0.12253385782241821,
					0.11071726679801941,
					0.12264115363359451,
					1
				],
				"metallicFactor":0,
				"roughnessFactor":0.15636366605758667
			}
		},
		{
			"doubleSided":true,
			"name":"teeth",
			"pbrMetallicRoughness":{
				"baseColorFactor":[
					0.800000011920929,
					0.800000011920929,
					0.800000011920929,
					1
				],
				"metallicFactor":0,
				"roughnessFactor":0.030909091234207153
			}
		}
	],
	"meshes":[
		{
			"name":"Cylinder.014",
			"primitives":[
				{
					"attributes":{
						"POSITION":0,
						"NORMAL":1,
						"TEXCOORD_0":2
					},
					"indices":3,
					"material":0
				}
			]
		},
		{
			"name":"Cylinder.017",
			"primitives":[
				{
					"attributes":{
						"POSITION":4,
						"NORMAL":5,
						"TEXCOORD_0":6
					},
					"indices":7,
					"material":0
				}
			]
		},
		{
			"name":"Cube.130",
			"primitives":[
				{
					"attributes":{
						"POSITION":8,
						"NORMAL":9,
						"TEXCOORD_0":10
					},
					"indices":11,
					"material":0
				}
			]
		},
		{
			"name":"Cube.131",
			"primitives":[
				{
					"attributes":{
						"POSITION":12,
						"NORMAL":13,
						"TEXCOORD_0":14
					},
					"indices":15,
					"material":0
				}
			]
		},
		{
			"name":"Cube.132",
			"primitives":[
				{
					"attributes":{
						"POSITION":16,
						"NORMAL":17,
						"TEXCOORD_0":18
					},
					"indices":15,
					"material":0
				}
			]
		},
		{
			"name":"Cube.133",
			"primitives":[
				{
					"attributes":{
						"POSITION":19,
						"NORMAL":20,
						"TEXCOORD_0":21
					},
					"indices":15,
					"material":0
				}
			]
		},
		{
			"name":"Cube.134",
			"primitives":[
				{
					"attributes":{
						"POSITION":22,
						"NORMAL":23,
						"TEXCOORD_0":24
					},
					"indices":15,
					"material":0
				}
			]
		},
		{
			"name":"Cube.135",
			"primitives":[
				{
					"attributes":{
						"POSITION":25,
						"NORMAL":26,
						"TEXCOORD_0":27
					},
					"indices":15,
					"material":0
				}
			]
		},
		{
			"name":"Cube.136",
			"primitives":[
				{
					"attributes":{
						"POSITION":28,
						"NORMAL":29,
						"TEXCOORD_0":30
					},
					"indices":15,
					"material":0
				}
			]
		},
		{
			"name":"Cube.138",
			"primitives":[
				{
					"attributes":{
						"POSITION":31,
						"NORMAL":32,
						"TEXCOORD_0":33
					},
					"indices":15,
					"material":0
				}
			]
		},
		{
			"name":"Cube.139",
			"primitives":[
				{
					"attributes":{
						"POSITION":34,
						"NORMAL":35,
						"TEXCOORD_0":36
					},
					"indices":15,
					"material":0
				}
			]
		},
		{
			"name":"Cube.144",
			"primitives":[
				{
					"attributes":{
						"POSITION":37,
						"NORMAL":38,
						"TEXCOORD_0":39
					},
					"indices":15,
					"material":0
				}
			]
		},
		{
			"name":"Cube.145",
			"primitives":[
				{
					"attributes":{
						"POSITION":40,
						"NORMAL":41,
						"TEXCOORD_0":42
					},
					"indices":15,
					"material":0
				}
			]
		},
		{
			"name":"Cube.146",
			"primitives":[
				{
					"attributes":{
						"POSITION":43,
						"NORMAL":44,
						"TEXCOORD_0":45
					},
					"indices":15,
					"material":0
				}
			]
		},
		{
			"name":"Cube.147",
			"primitives":[
				{
					"attributes":{
						"POSITION":46,
						"NORMAL":47,
						"TEXCOORD_0":48
					},
					"indices":15,
					"material":0
				}
			]
		},
		{
			"name":"Cube.148",
			"primitives":[
				{
					"attributes":{
						"POSITION":49,
						"NORMAL":50,
						"TEXCOORD_0":51
					},
					"indices":15,
					"material":0
				}
			]
		},
		{
			"name":"Cube.151",
			"primitives":[
				{
					"attributes":{
						"POSITION":52,
						"NORMAL":53,
						"TEXCOORD_0":54
					},
					"indices":15,
					"material":0
				}
			]
		},
		{
			"name":"Cube.154",
			"primitives":[
				{
					"attributes":{
						"POSITION":55,
						"NORMAL":56,
						"TEXCOORD_0":57
					},
					"indices":15,
					"material":0
				}
			]
		},
		{
			"name":"Cube.156",
			"primitives":[
				{
					"attributes":{
						"POSITION":58,
						"NORMAL":59,
						"TEXCOORD_0":60
					},
					"indices":15,
					"material":0
				}
			]
		},
		{
			"name":"Cube.157",
			"primitives":[
				{
					"attributes":{
						"POSITION":61,
						"NORMAL":62,
						"TEXCOORD_0":63
					},
					"indices":15,
					"material":0
				}
			]
		},
		{
			"name":"Cube.158",
			"primitives":[
				{
					"attributes":{
						"POSITION":64,
						"NORMAL":65,
						"TEXCOORD_0":66
					},
					"indices":67,
					"material":0
				}
			]
		},
		{
			"name":"Cube.159",
			"primitives":[
				{
					"attributes":{
						"POSITION":68,
						"NORMAL":69,
						"TEXCOORD_0":70
					},
					"indices":15,
					"material":0
				}
			]
		},
		{
			"name":"Cube.167",
			"primitives":[
				{
					"attributes":{
						"POSITION":71,
						"NORMAL":72,
						"TEXCOORD_0":73
					},
					"indices":15,
					"material":0
				}
			]
		},
		{
			"name":"Cube.168",
			"primitives":[
				{
					"attributes":{
						"POSITION":74,
						"NORMAL":75,
						"TEXCOORD_0":76
					},
					"indices":15,
					"material":0
				}
			]
		},
		{
			"name":"Cube.169",
			"primitives":[
				{
					"attributes":{
						"POSITION":77,
						"NORMAL":78,
						"TEXCOORD_0":79
					},
					"indices":15,
					"material":0
				}
			]
		},
		{
			"name":"Cube.189",
			"primitives":[
				{
					"attributes":{
						"POSITION":80,
						"NORMAL":81,
						"TEXCOORD_0":82
					},
					"indices":67,
					"material":0
				}
			]
		},
		{
			"name":"Cube.190",
			"primitives":[
				{
					"attributes":{
						"POSITION":83,
						"NORMAL":84,
						"TEXCOORD_0":85
					},
					"indices":67,
					"material":0
				}
			]
		},
		{
			"name":"Cube.191",
			"primitives":[
				{
					"attributes":{
						"POSITION":86,
						"NORMAL":87,
						"TEXCOORD_0":88
					},
					"indices":15,
					"material":0
				}
			]
		},
		{
			"name":"posast.006",
			"primitives":[
				{
					"attributes":{
						"POSITION":89,
						"NORMAL":90,
						"TEXCOORD_0":91
					},
					"indices":92,
					"material":1
				},
				{
					"attributes":{
						"POSITION":93,
						"NORMAL":94,
						"TEXCOORD_0":95
					},
					"indices":96,
					"material":2
				}
			]
		},
		{
			"name":"posast.008",
			"primitives":[
				{
					"attributes":{
						"POSITION":97,
						"NORMAL":98,
						"TEXCOORD_0":99
					},
					"indices":92,
					"material":1
				},
				{
					"attributes":{
						"POSITION":100,
						"NORMAL":101,
						"TEXCOORD_0":102
					},
					"indices":96,
					"material":2
				}
			]
		}
	],
	"textures":[
		{
			"sampler":0,
			"source":0
		},
		{
			"sampler":0,
			"source":1
		}
	],
	"images":[
		{
			"mimeType":"image/jpeg",
			"name":"alert",
			"uri":"tex/alert.jpg"
		},
		{
			"mimeType":"image/jpeg",
			"name":"mouth_emit",
			"uri":"tex/mouth_emit.jpg"
		}
	],
	"accessors":[
		{
			"bufferView":0,
			"componentType":5126,
			"count":265,
			"max":[
				9.579145431518555,
				21.320499420166016,
				10.990131378173828
			],
			"min":[
				-9.499324798583984,
				-18.085920333862305,
				-11.039787292480469
			],
			"type":"VEC3"
		},
		{
			"bufferView":1,
			"componentType":5126,
			"count":265,
			"type":"VEC3"
		},
		{
			"bufferView":2,
			"componentType":5126,
			"count":265,
			"type":"VEC2"
		},
		{
			"bufferView":3,
			"componentType":5123,
			"count":288,
			"type":"SCALAR"
		},
		{
			"bufferView":4,
			"componentType":5126,
			"count":284,
			"max":[
				10.555974006652832,
				2.3057079315185547,
				12.18898868560791
			],
			"min":[
				-10.5559720993042,
				-15.308446884155273,
				-12.18898868560791
			],
			"type":"VEC3"
		},
		{
			"bufferView":5,
			"componentType":5126,
			"count":284,
			"type":"VEC3"
		},
		{
			"bufferView":6,
			"componentType":5126,
			"count":284,
			"type":"VEC2"
		},
		{
			"bufferView":7,
			"componentType":5123,
			"count":492,
			"type":"SCALAR"
		},
		{
			"bufferView":8,
			"componentType":5126,
			"count":22,
			"max":[
				6.315120697021484,
				2.1393754482269287,
				2.3094120025634766
			],
			"min":[
				-4.452981472015381,
				-1.6199058294296265,
				-1.7045360803604126
			],
			"type":"VEC3"
		},
		{
			"bufferView":9,
			"componentType":5126,
			"count":22,
			"type":"VEC3"
		},
		{
			"bufferView":10,
			"componentType":5126,
			"count":22,
			"type":"VEC2"
		},
		{
			"bufferView":11,
			"componentType":5123,
			"count":30,
			"type":"SCALAR"
		},
		{
			"bufferView":12,
			"componentType":5126,
			"count":24,
			"max":[
				8.15139102935791,
				0.3417908251285553,
				0.17929089069366455
			],
			"min":[
				-9.396197319030762,
				-0.34179675579071045,
				-0.17928750813007355
			],
			"type":"VEC3"
		},
		{
			"bufferView":13,
			"componentType":5126,
			"count":24,
			"type":"VEC3"
		},
		{
			"bufferView":14,
			"componentType":5126,
			"count":24,
			"type":"VEC2"
		},
		{
			"bufferView":15,
			"componentType":5123,
			"count":36,
			"type":"SCALAR"
		},
		{
			"bufferView":16,
			"componentType":5126,
			"count":24,
			"max":[
				-2.4794821739196777,
				-1.5816843509674072,
				0.5127468705177307
			],
			"min":[
				-14.952346801757812,
				-2.005983591079712,
				0.29017943143844604
			],
			"type":"VEC3"
		},
		{
			"bufferView":17,
			"componentType":5126,
			"count":24,
			"type":"VEC3"
		},
		{
			"bufferView":18,
			"componentType":5126,
			"count":24,
			"type":"VEC2"
		},
		{
			"bufferView":19,
			"componentType":5126,
			"count":24,
			"max":[
				-1.0409656763076782,
				0.24874818325042725,
				0.13048450648784637
			],
			"min":[
				-13.141550064086914,
				-0.24875874817371368,
				-0.13048504292964935
			],
			"type":"VEC3"
		},
		{
			"bufferView":20,
			"componentType":5126,
			"count":24,
			"type":"VEC3"
		},
		{
			"bufferView":21,
			"componentType":5126,
			"count":24,
			"type":"VEC2"
		},
		{
			"bufferView":22,
			"componentType":5126,
			"count":24,
			"max":[
				6.486996173858643,
				0.2719562351703644,
				0.14265549182891846
			],
			"min":[
				-14.777241706848145,
				-0.2719562351703644,
				-0.14265549182891846
			],
			"type":"VEC3"
		},
		{
			"bufferView":23,
			"componentType":5126,
			"count":24,
			"type":"VEC3"
		},
		{
			"bufferView":24,
			"componentType":5126,
			"count":24,
			"type":"VEC2"
		},
		{
			"bufferView":25,
			"componentType":5126,
			"count":24,
			"max":[
				6.39417028427124,
				0.2719562351703644,
				0.14265652000904083
			],
			"min":[
				-10.889469146728516,
				-0.2719562351703644,
				-0.14265543222427368
			],
			"type":"VEC3"
		},
		{
			"bufferView":26,
			"componentType":5126,
			"count":24,
			"type":"VEC3"
		},
		{
			"bufferView":27,
			"componentType":5126,
			"count":24,
			"type":"VEC2"
		},
		{
			"bufferView":28,
			"componentType":5126,
			"count":24,
			"max":[
				9.486567497253418,
				0.3199957013130188,
				0.1678478866815567
			],
			"min":[
				-12.415682792663574,
				-0.31996920704841614,
				-0.16784775257110596
			],
			"type":"VEC3"
		},
		{
			"bufferView":29,
			"componentType":5126,
			"count":24,
			"type":"VEC3"
		},
		{
			"bufferView":30,
			"componentType":5126,
			"count":24,
			"type":"VEC2"
		},
		{
			"bufferView":31,
			"componentType":5126,
			"count":24,
			"max":[
				11.650790214538574,
				0.30637234449386597,
				0.08272607624530792
			],
			"min":[
				-11.591227531433105,
				-0.273534893989563,
				-0.22071203589439392
			],
			"type":"VEC3"
		},
		{
			"bufferView":32,
			"componentType":5126,
			"count":24,
			"type":"VEC3"
		},
		{
			"bufferView":33,
			"componentType":5126,
			"count":24,
			"type":"VEC2"
		},
		{
			"bufferView":34,
			"componentType":5126,
			"count":24,
			"max":[
				11.600805282592773,
				0.2735355496406555,
				0.22410136461257935
			],
			"min":[
				-11.641189575195312,
				-0.30637162923812866,
				-0.07933683693408966
			],
			"type":"VEC3"
		},
		{
			"bufferView":35,
			"componentType":5126,
			"count":24,
			"type":"VEC3"
		},
		{
			"bufferView":36,
			"componentType":5126,
			"count":24,
			"type":"VEC2"
		},
		{
			"bufferView":37,
			"componentType":5126,
			"count":24,
			"max":[
				4.196638107299805,
				0.19436585903167725,
				0.10195989906787872
			],
			"min":[
				-12.907126426696777,
				-0.1943763941526413,
				-0.10195684432983398
			],
			"type":"VEC3"
		},
		{
			"bufferView":38,
			"componentType":5126,
			"count":24,
			"type":"VEC3"
		},
		{
			"bufferView":39,
			"componentType":5126,
			"count":24,
			"type":"VEC2"
		},
		{
			"bufferView":40,
			"componentType":5126,
			"count":24,
			"max":[
				0.6757993698120117,
				0.22539383172988892,
				0.1182323694229126
			],
			"min":[
				-10.930537223815918,
				-0.22539383172988892,
				-0.11822965741157532
			],
			"type":"VEC3"
		},
		{
			"bufferView":41,
			"componentType":5126,
			"count":24,
			"type":"VEC3"
		},
		{
			"bufferView":42,
			"componentType":5126,
			"count":24,
			"type":"VEC2"
		},
		{
			"bufferView":43,
			"componentType":5126,
			"count":24,
			"max":[
				1.7331222295761108,
				0.2824159562587738,
				0.14814215898513794
			],
			"min":[
				-1.7331222295761108,
				-0.2824159562587738,
				-0.14814215898513794
			],
			"type":"VEC3"
		},
		{
			"bufferView":44,
			"componentType":5126,
			"count":24,
			"type":"VEC3"
		},
		{
			"bufferView":45,
			"componentType":5126,
			"count":24,
			"type":"VEC2"
		},
		{
			"bufferView":46,
			"componentType":5126,
			"count":24,
			"max":[
				1.668933391571045,
				0.2719562351703644,
				0.14265549182891846
			],
			"min":[
				-1.668933391571045,
				-0.2719562351703644,
				-0.14265549182891846
			],
			"type":"VEC3"
		},
		{
			"bufferView":47,
			"componentType":5126,
			"count":24,
			"type":"VEC3"
		},
		{
			"bufferView":48,
			"componentType":5126,
			"count":24,
			"type":"VEC2"
		},
		{
			"bufferView":49,
			"componentType":5126,
			"count":24,
			"max":[
				1.668933629989624,
				0.271956205368042,
				0.14265552163124084
			],
			"min":[
				-1.668933629989624,
				-0.271956205368042,
				-0.14265552163124084
			],
			"type":"VEC3"
		},
		{
			"bufferView":50,
			"componentType":5126,
			"count":24,
			"type":"VEC3"
		},
		{
			"bufferView":51,
			"componentType":5126,
			"count":24,
			"type":"VEC2"
		},
		{
			"bufferView":52,
			"componentType":5126,
			"count":24,
			"max":[
				1,
				1,
				1
			],
			"min":[
				-1,
				-1,
				-1
			],
			"type":"VEC3"
		},
		{
			"bufferView":53,
			"componentType":5126,
			"count":24,
			"type":"VEC3"
		},
		{
			"bufferView":54,
			"componentType":5126,
			"count":24,
			"type":"VEC2"
		},
		{
			"bufferView":55,
			"componentType":5126,
			"count":24,
			"max":[
				1,
				1,
				1
			],
			"min":[
				-1,
				-1,
				-1
			],
			"type":"VEC3"
		},
		{
			"bufferView":56,
			"componentType":5126,
			"count":24,
			"type":"VEC3"
		},
		{
			"bufferView":57,
			"componentType":5126,
			"count":24,
			"type":"VEC2"
		},
		{
			"bufferView":58,
			"componentType":5126,
			"count":24,
			"max":[
				2.23873233795166,
				0.790084719657898,
				0.7900847792625427
			],
			"min":[
				-2.23873233795166,
				-0.790084719657898,
				-0.7900847792625427
			],
			"type":"VEC3"
		},
		{
			"bufferView":59,
			"componentType":5126,
			"count":24,
			"type":"VEC3"
		},
		{
			"bufferView":60,
			"componentType":5126,
			"count":24,
			"type":"VEC2"
		},
		{
			"bufferView":61,
			"componentType":5126,
			"count":24,
			"max":[
				1,
				1,
				1
			],
			"min":[
				-1,
				-1,
				-1
			],
			"type":"VEC3"
		},
		{
			"bufferView":62,
			"componentType":5126,
			"count":24,
			"type":"VEC3"
		},
		{
			"bufferView":63,
			"componentType":5126,
			"count":24,
			"type":"VEC2"
		},
		{
			"bufferView":64,
			"componentType":5126,
			"count":24,
			"max":[
				1,
				0.2365705966949463,
				1
			],
			"min":[
				-1,
				-0.2365705966949463,
				-1
			],
			"type":"VEC3"
		},
		{
			"bufferView":65,
			"componentType":5126,
			"count":24,
			"type":"VEC3"
		},
		{
			"bufferView":66,
			"componentType":5126,
			"count":24,
			"type":"VEC2"
		},
		{
			"bufferView":67,
			"componentType":5123,
			"count":36,
			"type":"SCALAR"
		},
		{
			"bufferView":68,
			"componentType":5126,
			"count":24,
			"max":[
				0.3992203176021576,
				0.08022637665271759,
				1.2299978733062744
			],
			"min":[
				-0.3992203176021576,
				-0.08022637665271759,
				-1.2299978733062744
			],
			"type":"VEC3"
		},
		{
			"bufferView":69,
			"componentType":5126,
			"count":24,
			"type":"VEC3"
		},
		{
			"bufferView":70,
			"componentType":5126,
			"count":24,
			"type":"VEC2"
		},
		{
			"bufferView":71,
			"componentType":5126,
			"count":24,
			"max":[
				6.535514831542969,
				0.18498440086841583,
				0.0970354899764061
			],
			"min":[
				-9.742379188537598,
				-0.1849871575832367,
				-0.09703512489795685
			],
			"type":"VEC3"
		},
		{
			"bufferView":72,
			"componentType":5126,
			"count":24,
			"type":"VEC3"
		},
		{
			"bufferView":73,
			"componentType":5126,
			"count":24,
			"type":"VEC2"
		},
		{
			"bufferView":74,
			"componentType":5126,
			"count":24,
			"max":[
				5.656708717346191,
				0.22754785418510437,
				0.1193658635020256
			],
			"min":[
				-14.367197036743164,
				-0.22756487131118774,
				-0.11936601251363754
			],
			"type":"VEC3"
		},
		{
			"bufferView":75,
			"componentType":5126,
			"count":24,
			"type":"VEC3"
		},
		{
			"bufferView":76,
			"componentType":5126,
			"count":24,
			"type":"VEC2"
		},
		{
			"bufferView":77,
			"componentType":5126,
			"count":24,
			"max":[
				4.969224452972412,
				0.21192926168441772,
				0.1111699789762497
			],
			"min":[
				-13.679718971252441,
				-0.21193240582942963,
				-0.11116909980773926
			],
			"type":"VEC3"
		},
		{
			"bufferView":78,
			"componentType":5126,
			"count":24,
			"type":"VEC3"
		},
		{
			"bufferView":79,
			"componentType":5126,
			"count":24,
			"type":"VEC2"
		},
		{
			"bufferView":80,
			"componentType":5126,
			"count":24,
			"max":[
				1,
				0.2365705966949463,
				1
			],
			"min":[
				-1,
				-0.2365705966949463,
				-1
			],
			"type":"VEC3"
		},
		{
			"bufferView":81,
			"componentType":5126,
			"count":24,
			"type":"VEC3"
		},
		{
			"bufferView":82,
			"componentType":5126,
			"count":24,
			"type":"VEC2"
		},
		{
			"bufferView":83,
			"componentType":5126,
			"count":24,
			"max":[
				1,
				0.2365705966949463,
				1
			],
			"min":[
				-1,
				-0.2365705966949463,
				-1
			],
			"type":"VEC3"
		},
		{
			"bufferView":84,
			"componentType":5126,
			"count":24,
			"type":"VEC3"
		},
		{
			"bufferView":85,
			"componentType":5126,
			"count":24,
			"type":"VEC2"
		},
		{
			"bufferView":86,
			"componentType":5126,
			"count":24,
			"max":[
				1,
				1,
				1
			],
			"min":[
				-1,
				-1,
				-1
			],
			"type":"VEC3"
		},
		{
			"bufferView":87,
			"componentType":5126,
			"count":24,
			"type":"VEC3"
		},
		{
			"bufferView":88,
			"componentType":5126,
			"count":24,
			"type":"VEC2"
		},
		{
			"bufferView":89,
			"componentType":5126,
			"count":8073,
			"max":[
				40.08906173706055,
				24.74555015563965,
				46.84745407104492
			],
			"min":[
				-40.52153015136719,
				-43.01677703857422,
				-52.9420051574707
			],
			"type":"VEC3"
		},
		{
			"bufferView":90,
			"componentType":5126,
			"count":8073,
			"type":"VEC3"
		},
		{
			"bufferView":91,
			"componentType":5126,
			"count":8073,
			"type":"VEC2"
		},
		{
			"bufferView":92,
			"componentType":5123,
			"count":26550,
			"type":"SCALAR"
		},
		{
			"bufferView":93,
			"componentType":5126,
			"count":6205,
			"max":[
				23.23674964904785,
				24.263423919677734,
				27.730051040649414
			],
			"min":[
				-20.538959503173828,
				-11.270620346069336,
				-27.090120315551758
			],
			"type":"VEC3"
		},
		{
			"bufferView":94,
			"componentType":5126,
			"count":6205,
			"type":"VEC3"
		},
		{
			"bufferView":95,
			"componentType":5126,
			"count":6205,
			"type":"VEC2"
		},
		{
			"bufferView":96,
			"componentType":5123,
			"count":16803,
			"type":"SCALAR"
		},
		{
			"bufferView":97,
			"componentType":5126,
			"count":8073,
			"max":[
				40.08906173706055,
				24.74555015563965,
				46.84745407104492
			],
			"min":[
				-40.52153015136719,
				-43.01677703857422,
				-52.9420051574707
			],
			"type":"VEC3"
		},
		{
			"bufferView":98,
			"componentType":5126,
			"count":8073,
			"type":"VEC3"
		},
		{
			"bufferView":99,
			"componentType":5126,
			"count":8073,
			"type":"VEC2"
		},
		{
			"bufferView":100,
			"componentType":5126,
			"count":6205,
			"max":[
				23.23674964904785,
				24.263423919677734,
				27.730051040649414
			],
			"min":[
				-20.538959503173828,
				-11.270620346069336,
				-27.090120315551758
			],
			"type":"VEC3"
		},
		{
			"bufferView":101,
			"componentType":5126,
			"count":6205,
			"type":"VEC3"
		},
		{
			"bufferView":102,
			"componentType":5126,
			"count":6205,
			"type":"VEC2"
		}
	],
	"bufferViews":[
		{
			"buffer":0,
			"byteLength":3180,
			"byteOffset":0,
			"target":34962
		},
		{
			"buffer":0,
			"byteLength":3180,
			"byteOffset":3180,
			"target":34962
		},
		{
			"buffer":0,
			"byteLength":2120,
			"byteOffset":6360,
			"target":34962
		},
		{
			"buffer":0,
			"byteLength":576,
			"byteOffset":8480,
			"target":34963
		},
		{
			"buffer":0,
			"byteLength":3408,
			"byteOffset":9056,
			"target":34962
		},
		{
			"buffer":0,
			"byteLength":3408,
			"byteOffset":12464,
			"target":34962
		},
		{
			"buffer":0,
			"byteLength":2272,
			"byteOffset":15872,
			"target":34962
		},
		{
			"buffer":0,
			"byteLength":984,
			"byteOffset":18144,
			"target":34963
		},
		{
			"buffer":0,
			"byteLength":264,
			"byteOffset":19128,
			"target":34962
		},
		{
			"buffer":0,
			"byteLength":264,
			"byteOffset":19392,
			"target":34962
		},
		{
			"buffer":0,
			"byteLength":176,
			"byteOffset":19656,
			"target":34962
		},
		{
			"buffer":0,
			"byteLength":60,
			"byteOffset":19832,
			"target":34963
		},
		{
			"buffer":0,
			"byteLength":288,
			"byteOffset":19892,
			"target":34962
		},
		{
			"buffer":0,
			"byteLength":288,
			"byteOffset":20180,
			"target":34962
		},
		{
			"buffer":0,
			"byteLength":192,
			"byteOffset":20468,
			"target":34962
		},
		{
			"buffer":0,
			"byteLength":72,
			"byteOffset":20660,
			"target":34963
		},
		{
			"buffer":0,
			"byteLength":288,
			"byteOffset":20732,
			"target":34962
		},
		{
			"buffer":0,
			"byteLength":288,
			"byteOffset":21020,
			"target":34962
		},
		{
			"buffer":0,
			"byteLength":192,
			"byteOffset":21308,
			"target":34962
		},
		{
			"buffer":0,
			"byteLength":288,
			"byteOffset":21500,
			"target":34962
		},
		{
			"buffer":0,
			"byteLength":288,
			"byteOffset":21788,
			"target":34962
		},
		{
			"buffer":0,
			"byteLength":192,
			"byteOffset":22076,
			"target":34962
		},
		{
			"buffer":0,
			"byteLength":288,
			"byteOffset":22268,
			"target":34962
		},
		{
			"buffer":0,
			"byteLength":288,
			"byteOffset":22556,
			"target":34962
		},
		{
			"buffer":0,
			"byteLength":192,
			"byteOffset":22844,
			"target":34962
		},
		{
			"buffer":0,
			"byteLength":288,
			"byteOffset":23036,
			"target":34962
		},
		{
			"buffer":0,
			"byteLength":288,
			"byteOffset":23324,
			"target":34962
		},
		{
			"buffer":0,
			"byteLength":192,
			"byteOffset":23612,
			"target":34962
		},
		{
			"buffer":0,
			"byteLength":288,
			"byteOffset":23804,
			"target":34962
		},
		{
			"buffer":0,
			"byteLength":288,
			"byteOffset":24092,
			"target":34962
		},
		{
			"buffer":0,
			"byteLength":192,
			"byteOffset":24380,
			"target":34962
		},
		{
			"buffer":0,
			"byteLength":288,
			"byteOffset":24572,
			"target":34962
		},
		{
			"buffer":0,
			"byteLength":288,
			"byteOffset":24860,
			"target":34962
		},
		{
			"buffer":0,
			"byteLength":192,
			"byteOffset":25148,
			"target":34962
		},
		{
			"buffer":0,
			"byteLength":288,
			"byteOffset":25340,
			"target":34962
		},
		{
			"buffer":0,
			"byteLength":288,
			"byteOffset":25628,
			"target":34962
		},
		{
			"buffer":0,
			"byteLength":192,
			"byteOffset":25916,
			"target":34962
		},
		{
			"buffer":0,
			"byteLength":288,
			"byteOffset":26108,
			"target":34962
		},
		{
			"buffer":0,
			"byteLength":288,
			"byteOffset":26396,
			"target":34962
		},
		{
			"buffer":0,
			"byteLength":192,
			"byteOffset":26684,
			"target":34962
		},
		{
			"buffer":0,
			"byteLength":288,
			"byteOffset":26876,
			"target":34962
		},
		{
			"buffer":0,
			"byteLength":288,
			"byteOffset":27164,
			"target":34962
		},
		{
			"buffer":0,
			"byteLength":192,
			"byteOffset":27452,
			"target":34962
		},
		{
			"buffer":0,
			"byteLength":288,
			"byteOffset":27644,
			"target":34962
		},
		{
			"buffer":0,
			"byteLength":288,
			"byteOffset":27932,
			"target":34962
		},
		{
			"buffer":0,
			"byteLength":192,
			"byteOffset":28220,
			"target":34962
		},
		{
			"buffer":0,
			"byteLength":288,
			"byteOffset":28412,
			"target":34962
		},
		{
			"buffer":0,
			"byteLength":288,
			"byteOffset":28700,
			"target":34962
		},
		{
			"buffer":0,
			"byteLength":192,
			"byteOffset":28988,
			"target":34962
		},
		{
			"buffer":0,
			"byteLength":288,
			"byteOffset":29180,
			"target":34962
		},
		{
			"buffer":0,
			"byteLength":288,
			"byteOffset":29468,
			"target":34962
		},
		{
			"buffer":0,
			"byteLength":192,
			"byteOffset":29756,
			"target":34962
		},
		{
			"buffer":0,
			"byteLength":288,
			"byteOffset":29948,
			"target":34962
		},
		{
			"buffer":0,
			"byteLength":288,
			"byteOffset":30236,
			"target":34962
		},
		{
			"buffer":0,
			"byteLength":192,
			"byteOffset":30524,
			"target":34962
		},
		{
			"buffer":0,
			"byteLength":288,
			"byteOffset":30716,
			"target":34962
		},
		{
			"buffer":0,
			"byteLength":288,
			"byteOffset":31004,
			"target":34962
		},
		{
			"buffer":0,
			"byteLength":192,
			"byteOffset":31292,
			"target":34962
		},
		{
			"buffer":0,
			"byteLength":288,
			"byteOffset":31484,
			"target":34962
		},
		{
			"buffer":0,
			"byteLength":288,
			"byteOffset":31772,
			"target":34962
		},
		{
			"buffer":0,
			"byteLength":192,
			"byteOffset":32060,
			"target":34962
		},
		{
			"buffer":0,
			"byteLength":288,
			"byteOffset":32252,
			"target":34962
		},
		{
			"buffer":0,
			"byteLength":288,
			"byteOffset":32540,
			"target":34962
		},
		{
			"buffer":0,
			"byteLength":192,
			"byteOffset":32828,
			"target":34962
		},
		{
			"buffer":0,
			"byteLength":288,
			"byteOffset":33020,
			"target":34962
		},
		{
			"buffer":0,
			"byteLength":288,
			"byteOffset":33308,
			"target":34962
		},
		{
			"buffer":0,
			"byteLength":192,
			"byteOffset":33596,
			"target":34962
		},
		{
			"buffer":0,
			"byteLength":72,
			"byteOffset":33788,
			"target":34963
		},
		{
			"buffer":0,
			"byteLength":288,
			"byteOffset":33860,
			"target":34962
		},
		{
			"buffer":0,
			"byteLength":288,
			"byteOffset":34148,
			"target":34962
		},
		{
			"buffer":0,
			"byteLength":192,
			"byteOffset":34436,
			"target":34962
		},
		{
			"buffer":0,
			"byteLength":288,
			"byteOffset":34628,
			"target":34962
		},
		{
			"buffer":0,
			"byteLength":288,
			"byteOffset":34916,
			"target":34962
		},
		{
			"buffer":0,
			"byteLength":192,
			"byteOffset":35204,
			"target":34962
		},
		{
			"buffer":0,
			"byteLength":288,
			"byteOffset":35396,
			"target":34962
		},
		{
			"buffer":0,
			"byteLength":288,
			"byteOffset":35684,
			"target":34962
		},
		{
			"buffer":0,
			"byteLength":192,
			"byteOffset":35972,
			"target":34962
		},
		{
			"buffer":0,
			"byteLength":288,
			"byteOffset":36164,
			"target":34962
		},
		{
			"buffer":0,
			"byteLength":288,
			"byteOffset":36452,
			"target":34962
		},
		{
			"buffer":0,
			"byteLength":192,
			"byteOffset":36740,
			"target":34962
		},
		{
			"buffer":0,
			"byteLength":288,
			"byteOffset":36932,
			"target":34962
		},
		{
			"buffer":0,
			"byteLength":288,
			"byteOffset":37220,
			"target":34962
		},
		{
			"buffer":0,
			"byteLength":192,
			"byteOffset":37508,
			"target":34962
		},
		{
			"buffer":0,
			"byteLength":288,
			"byteOffset":37700,
			"target":34962
		},
		{
			"buffer":0,
			"byteLength":288,
			"byteOffset":37988,
			"target":34962
		},
		{
			"buffer":0,
			"byteLength":192,
			"byteOffset":38276,
			"target":34962
		},
		{
			"buffer":0,
			"byteLength":288,
			"byteOffset":38468,
			"target":34962
		},
		{
			"buffer":0,
			"byteLength":288,
			"byteOffset":38756,
			"target":34962
		},
		{
			"buffer":0,
			"byteLength":192,
			"byteOffset":39044,
			"target":34962
		},
		{
			"buffer":0,
			"byteLength":96876,
			"byteOffset":39236,
			"target":34962
		},
		{
			"buffer":0,
			"byteLength":96876,
			"byteOffset":136112,
			"target":34962
		},
		{
			"buffer":0,
			"byteLength":64584,
			"byteOffset":232988,
			"target":34962
		},
		{
			"buffer":0,
			"byteLength":53100,
			"byteOffset":297572,
			"target":34963
		},
		{
			"buffer":0,
			"byteLength":74460,
			"byteOffset":350672,
			"target":34962
		},
		{
			"buffer":0,
			"byteLength":74460,
			"byteOffset":425132,
			"target":34962
		},
		{
			"buffer":0,
			"byteLength":49640,
			"byteOffset":499592,
			"target":34962
		},
		{
			"buffer":0,
			"byteLength":33606,
			"byteOffset":549232,
			"target":34963
		},
		{
			"buffer":0,
			"byteLength":96876,
			"byteOffset":582840,
			"target":34962
		},
		{
			"buffer":0,
			"byteLength":96876,
			"byteOffset":679716,
			"target":34962
		},
		{
			"buffer":0,
			"byteLength":64584,
			"byteOffset":776592,
			"target":34962
		},
		{
			"buffer":0,
			"byteLength":74460,
			"byteOffset":841176,
			"target":34962
		},
		{
			"buffer":0,
			"byteLength":74460,
			"byteOffset":915636,
			"target":34962
		},
		{
			"buffer":0,
			"byteLength":49640,
			"byteOffset":990096,
			"target":34962
		}
	],
	"samplers":[
		{
			"magFilter":9729,
			"minFilter":9987
		}
	],
	"buffers":[
		{
			"byteLength":1039736,
			"uri":"collision-world-01.bin"
		}
	]
}
