{
	"asset":{
		"generator":"Khronos glTF Blender I/O v5.1.20",
		"version":"2.0"
	},
	"extensionsUsed":[
		"KHR_materials_emissive_strength",
		"KHR_materials_specular",
		"KHR_lights_punctual"
	],
	"extensionsRequired":[
		"KHR_lights_punctual"
	],
	"extensions":{
		"KHR_lights_punctual":{
			"lights":[
				{
					"color":[
						0.016462313011288643,
						0,
						1
					],
					"intensity":2717.5706532941126,
					"type":"point",
					"name":"Point.002"
				},
				{
					"color":[
						1,
						1,
						1
					],
					"intensity":217.40565226352905,
					"type":"point",
					"name":"Point.003"
				},
				{
					"color":[
						1,
						1,
						1
					],
					"intensity":217.40565226352905,
					"type":"point",
					"name":"Point.004"
				}
			]
		}
	},
	"scene":0,
	"scenes":[
		{
			"name":"World",
			"nodes":[
				0,
				1,
				2,
				3,
				4,
				5,
				6,
				7,
				8,
				9,
				10,
				11,
				12,
				13,
				14,
				15,
				16,
				17,
				18,
				19,
				20,
				21,
				22,
				23,
				24,
				25,
				26,
				27,
				28,
				29,
				30,
				31,
				32,
				33,
				34,
				35,
				36,
				37,
				38,
				39
			]
		}
	],
	"nodes":[
		{
			"mesh":0,
			"name":"Plane.002",
			"rotation":[
				0,
				0.061187904328107834,
				0,
				0.9981262683868408
			],
			"scale":[
				1.232372760772705,
				1.232372760772705,
				5.707563400268555
			],
			"translation":[
				6.634854793548584,
				-79.115478515625,
				-0.9928960800170898
			]
		},
		{
			"mesh":1,
			"name":"Cube.104",
			"rotation":[
				0,
				-0.17003509402275085,
				0,
				0.9854379892349243
			],
			"scale":[
				3.6279664039611816,
				3.6279661655426025,
				3.6279664039611816
			],
			"translation":[
				0.44091057777404785,
				-84.7896499633789,
				-0.37095630168914795
			]
		},
		{
			"mesh":2,
			"name":"Cube.105",
			"scale":[
				0.9629634618759155,
				0.9629634618759155,
				0.9629634618759155
			],
			"translation":[
				7.057487487792969,
				-112.7261962890625,
				11.400063514709473
			]
		},
		{
			"mesh":3,
			"name":"Cube.106",
			"scale":[
				0.9629634618759155,
				0.9629634618759155,
				0.9629634618759155
			],
			"translation":[
				9.514955520629883,
				-115.08504486083984,
				13.93579387664795
			]
		},
		{
			"mesh":4,
			"name":"Cube.107",
			"rotation":[
				0.07671711593866348,
				-0.1006341502070427,
				0.21383899450302124,
				0.9686383008956909
			],
			"scale":[
				0.3978753685951233,
				0.3978753387928009,
				0.3978753983974457
			],
			"translation":[
				10.494223594665527,
				-103.80901336669922,
				12.47299861907959
			]
		},
		{
			"mesh":5,
			"name":"Cube.108",
			"scale":[
				0.5820353627204895,
				0.5820353627204895,
				0.5820353627204895
			],
			"translation":[
				8.938846588134766,
				-109.74530029296875,
				14.665423393249512
			]
		},
		{
			"mesh":6,
			"name":"Cube.109",
			"scale":[
				0.5503904819488525,
				0.44620317220687866,
				0.5503904819488525
			],
			"translation":[
				9.415814399719238,
				-100.1449203491211,
				11.027338027954102
			]
		},
		{
			"mesh":7,
			"name":"Cube.110",
			"scale":[
				0.9629634618759155,
				0.9629634618759155,
				0.9629634618759155
			],
			"translation":[
				6.514426231384277,
				-123.478759765625,
				10.19454574584961
			]
		},
		{
			"mesh":8,
			"name":"Cube.111",
			"scale":[
				0.9629634618759155,
				0.9629634618759155,
				0.9629634618759155
			],
			"translation":[
				8.971895217895508,
				-125.83760070800781,
				12.73027515411377
			]
		},
		{
			"mesh":9,
			"name":"Cube.112",
			"scale":[
				0.9629634618759155,
				0.9629634618759155,
				0.9629634618759155
			],
			"translation":[
				3.6797685623168945,
				-124.53749084472656,
				10.434616088867188
			]
		},
		{
			"mesh":10,
			"name":"Cube.113",
			"scale":[
				0.9629634618759155,
				0.9629634618759155,
				0.9629634618759155
			],
			"translation":[
				6.390775680541992,
				-127.2406997680664,
				14.30013656616211
			]
		},
		{
			"mesh":11,
			"name":"Cylinder.010",
			"scale":[
				10.106743812561035,
				12.247387886047363,
				10.106743812561035
			],
			"translation":[
				0.14848756790161133,
				-121.3291015625,
				0.2459176480770111
			]
		},
		{
			"mesh":12,
			"name":"Cube.133",
			"rotation":[
				0,
				-0.1441335678100586,
				0,
				0.9895583391189575
			],
			"translation":[
				6.282388687133789,
				-81.16769409179688,
				-1.900278925895691
			]
		},
		{
			"mesh":13,
			"name":"Cube.147",
			"rotation":[
				0,
				-0.27188900113105774,
				0,
				0.9623286128044128
			],
			"scale":[
				1.6167408227920532,
				0.04249155521392822,
				0.6378706097602844
			],
			"translation":[
				2.8191070556640625,
				-86.33468627929688,
				-4.964330196380615
			]
		},
		{
			"mesh":14,
			"name":"Cube.148",
			"rotation":[
				0,
				-0.7191524505615234,
				0,
				0.6948522925376892
			],
			"scale":[
				0.7628843188285828,
				0.05410541966557503,
				0.8118007779121399
			],
			"translation":[
				6.094911575317383,
				-86.70662689208984,
				0.08531591296195984
			]
		},
		{
			"mesh":15,
			"name":"Cube.154",
			"scale":[
				0.19232474267482758,
				0.11463910341262817,
				0.19232474267482758
			],
			"translation":[
				0.1575162410736084,
				-87.41067504882812,
				-1.55813729763031
			]
		},
		{
			"mesh":16,
			"name":"Cube.155",
			"scale":[
				0.6500079035758972,
				0.6500079035758972,
				0.6500079035758972
			],
			"translation":[
				1.345313310623169,
				-117.7191390991211,
				0.19321885704994202
			]
		},
		{
			"mesh":17,
			"name":"Cube.156",
			"rotation":[
				0,
				-0.7054662108421326,
				0,
				0.7087435722351074
			],
			"scale":[
				0.37462398409843445,
				0.37462395429611206,
				0.37462398409843445
			],
			"translation":[
				0.7588125467300415,
				-118.11799621582031,
				-4.984785079956055
			]
		},
		{
			"mesh":18,
			"name":"Cube.157",
			"scale":[
				1.696348786354065,
				0.36093443632125854,
				0.36093443632125854
			],
			"translation":[
				-3.695854902267456,
				-116.92326354980469,
				-0.5905219316482544
			]
		},
		{
			"mesh":19,
			"name":"Cube.158",
			"rotation":[
				0,
				-0.029865628108382225,
				0,
				0.999553918838501
			],
			"scale":[
				0.650179922580719,
				0.650179922580719,
				1.9805071353912354
			],
			"translation":[
				-1.8650438785552979,
				-129.90655517578125,
				-0.7301452159881592
			]
		},
		{
			"mesh":20,
			"name":"Cube.167",
			"rotation":[
				0.20053479075431824,
				-0.8316112160682678,
				0.15827487409114838,
				0.49311017990112305
			],
			"scale":[
				1.6460490226745605,
				0.9224233627319336,
				1.5475784540176392
			],
			"translation":[
				6.855379104614258,
				-107.05767822265625,
				-2.470870018005371
			]
		},
		{
			"mesh":21,
			"name":"Cube.168",
			"rotation":[
				-0.0010805068304762244,
				-0.21918167173862457,
				0.22069159150123596,
				0.9503965973854065
			],
			"scale":[
				1.2335281372070312,
				0.054389335215091705,
				0.4866776764392853
			],
			"translation":[
				-1.047459602355957,
				-96.07052612304688,
				3.638718843460083
			]
		},
		{
			"mesh":22,
			"name":"Cube.169",
			"scale":[
				1.696348786354065,
				0.36093443632125854,
				0.36093443632125854
			],
			"translation":[
				0.8838111162185669,
				-119.88114166259766,
				4.009027481079102
			]
		},
		{
			"mesh":23,
			"name":"Cube.170",
			"rotation":[
				0,
				-0.1441335678100586,
				0,
				0.9895583391189575
			],
			"translation":[
				4.134801864624023,
				-81.20745086669922,
				3.0559864044189453
			]
		},
		{
			"mesh":24,
			"name":"Cube.171",
			"rotation":[
				0,
				0.5518012642860413,
				0,
				0.8339756727218628
			],
			"translation":[
				3.890693187713623,
				-80.53904724121094,
				1.9230070114135742
			]
		},
		{
			"mesh":25,
			"name":"Cube.172",
			"rotation":[
				0,
				-0.9708351492881775,
				0,
				0.23974798619747162
			],
			"scale":[
				3.912938117980957,
				0.10284071415662766,
				1.543815016746521
			],
			"translation":[
				3.168006181716919,
				-82.90396881103516,
				5.756643295288086
			]
		},
		{
			"mesh":26,
			"name":"Cube.173",
			"rotation":[
				0,
				0.9596279859542847,
				0,
				0.2812723219394684
			],
			"scale":[
				3.912937641143799,
				0.10284071415662766,
				1.543815016746521
			],
			"translation":[
				-2.474714517593384,
				-82.9723892211914,
				6.2800469398498535
			]
		},
		{
			"mesh":27,
			"name":"Cube.174",
			"scale":[
				0.19232474267482758,
				0.11463910341262817,
				0.19232474267482758
			],
			"translation":[
				0.5162649154663086,
				-87.86304473876953,
				-0.8255211114883423
			]
		},
		{
			"mesh":28,
			"name":"Cube.175",
			"scale":[
				0.17223326861858368,
				0.10266315937042236,
				0.17223326861858368
			],
			"translation":[
				-0.736238956451416,
				-91.80815124511719,
				-0.3588130474090576
			]
		},
		{
			"mesh":29,
			"name":"Cube.176",
			"rotation":[
				0.20053476095199585,
				-0.8316112160682678,
				0.15827487409114838,
				0.49311017990112305
			],
			"scale":[
				1.136466145515442,
				0.6368599534034729,
				1.0684798955917358
			],
			"translation":[
				6.1909942626953125,
				-100.98965454101562,
				2.023738384246826
			]
		},
		{
			"mesh":30,
			"name":"Cube.177",
			"rotation":[
				0,
				-0.7191522717475891,
				0,
				0.6948525309562683
			],
			"translation":[
				5.094610691070557,
				-95.4631118774414,
				3.5788393020629883
			]
		},
		{
			"mesh":31,
			"name":"mouth.002",
			"translation":[
				0.5450023412704468,
				-156.01641845703125,
				-0.249200701713562
			]
		},
		{
			"mesh":32,
			"name":"safa.005",
			"scale":[
				7.044510364532471,
				8.5365629196167,
				7.044510364532471
			],
			"translation":[
				0.14848756790161133,
				-87.90544128417969,
				0.2459176480770111
			]
		},
		{
			"mesh":33,
			"name":"Cube.150",
			"rotation":[
				-0.7276546359062195,
				0.18904171884059906,
				-0.48846450448036194,
				0.4429270625114441
			],
			"translation":[
				7.838071823120117,
				-95.53024291992188,
				14.782548904418945
			]
		},
		{
			"mesh":34,
			"name":"mouth-remesh",
			"translation":[
				0.3604339361190796,
				-120.32940673828125,
				-0.22222056984901428
			]
		},
		{
			"mesh":35,
			"name":"keyboard_low",
			"rotation":[
				0.4315824806690216,
				-0.005322098266333342,
				-0.05905571207404137,
				0.9001225829124451
			],
			"scale":[
				0.43431296944618225,
				0.4343128502368927,
				0.43431293964385986
			],
			"translation":[
				1.155055046081543,
				-98.25062561035156,
				2.512103319168091
			]
		},
		{
			"mesh":36,
			"name":"pPlane54",
			"rotation":[
				0.3380645215511322,
				-0.32978004217147827,
				0.5909790396690369,
				0.653988778591156
			],
			"translation":[
				0.2220315784215927,
				-100.86976623535156,
				-0.5988044738769531
			]
		},
		{
			"extensions":{
				"KHR_lights_punctual":{
					"light":0
				}
			},
			"name":"Point.002",
			"rotation":[
				0.7071069478988647,
				0,
				0,
				0.7071065902709961
			],
			"translation":[
				2.4079017639160156,
				-125.06021881103516,
				0.36611929535865784
			]
		},
		{
			"extensions":{
				"KHR_lights_punctual":{
					"light":1
				}
			},
			"name":"ScreenLight",
			"rotation":[
				0.7071069478988647,
				0,
				0,
				0.7071065902709961
			],
			"translation":[
				-0.4430263638496399,
				-97.71234893798828,
				-1.7495242357254028
			]
		},
		{
			"extensions":{
				"KHR_lights_punctual":{
					"light":2
				}
			},
			"name":"ScreenLight.001",
			"rotation":[
				0.7071069478988647,
				0,
				0,
				0.7071065902709961
			],
			"translation":[
				2.2160284519195557,
				-97.91246795654297,
				-2.0601131916046143
			]
		}
	],
	"materials":[
		{
			"doubleSided":true,
			"name":"alert-blue",
			"pbrMetallicRoughness":{
				"baseColorTexture":{
					"index":0
				},
				"metallicFactor":0,
				"roughnessFactor":0.5
			}
		},
		{
			"doubleSided":true,
			"name":"blue",
			"pbrMetallicRoughness":{
				"baseColorFactor":[
					0.0032289999071508646,
					0.002061000093817711,
					0.7002450227737427,
					1
				],
				"metallicFactor":0,
				"roughnessFactor":0.5
			}
		},
		{
			"doubleSided":true,
			"emissiveFactor":[
				1,
				0.05780536810346164,
				0.0009103329735162079
			],
			"extensions":{
				"KHR_materials_emissive_strength":{
					"emissiveStrength":2.0000481605529785
				}
			},
			"name":"red-emissive",
			"pbrMetallicRoughness":{
				"baseColorFactor":[
					0.5457167029380798,
					0.021219048649072647,
					0.0027310645673424006,
					1
				],
				"metallicFactor":0,
				"roughnessFactor":0.5
			}
		},
		{
			"doubleSided":true,
			"name":"alert",
			"pbrMetallicRoughness":{
				"baseColorTexture":{
					"index":1
				},
				"metallicFactor":0,
				"roughnessFactor":0.5
			}
		},
		{
			"doubleSided":true,
			"emissiveFactor":[
				1,
				1,
				1
			],
			"emissiveTexture":{
				"index":2
			},
			"extensions":{
				"KHR_materials_emissive_strength":{
					"emissiveStrength":5
				}
			},
			"name":"mouth",
			"pbrMetallicRoughness":{
				"baseColorFactor":[
					0.12253385782241821,
					0.11071726679801941,
					0.12264115363359451,
					1
				],
				"metallicFactor":0,
				"roughnessFactor":0.15636366605758667
			}
		},
		{
			"doubleSided":true,
			"name":"teeth",
			"pbrMetallicRoughness":{
				"baseColorFactor":[
					0.800000011920929,
					0.800000011920929,
					0.800000011920929,
					1
				],
				"metallicFactor":0,
				"roughnessFactor":0.030909091234207153
			}
		},
		{
			"doubleSided":true,
			"emissiveFactor":[
				1,
				1,
				1
			],
			"emissiveTexture":{
				"index":3
			},
			"extensions":{
				"KHR_materials_emissive_strength":{
					"emissiveStrength":5
				}
			},
			"name":"mouth-blue",
			"pbrMetallicRoughness":{
				"baseColorFactor":[
					0.00860399380326271,
					0.008009239099919796,
					0.008609345182776451,
					1
				],
				"metallicFactor":0,
				"roughnessFactor":0.32363638281822205
			}
		},
		{
			"doubleSided":true,
			"name":"Material.008",
			"pbrMetallicRoughness":{
				"baseColorTexture":{
					"index":4
				}
			}
		},
		{
			"doubleSided":true,
			"extensions":{
				"KHR_materials_specular":{
					"specularColorFactor":[
						0.5,
						0.5,
						0.5
					]
				}
			},
			"name":"laptop-red",
			"pbrMetallicRoughness":{
				"baseColorFactor":[
					0.4999902844429016,
					0.011661907657980919,
					0,
					1
				],
				"metallicFactor":0
			}
		},
		{
			"doubleSided":true,
			"emissiveFactor":[
				1,
				1,
				1
			],
			"emissiveTexture":{
				"index":5
			},
			"extensions":{
				"KHR_materials_emissive_strength":{
					"emissiveStrength":50
				}
			},
			"name":"laptop-screen",
			"pbrMetallicRoughness":{
				"baseColorFactor":[
					0,
					0,
					0,
					1
				]
			}
		}
	],
	"meshes":[
		{
			"name":"Plane.005",
			"primitives":[
				{
					"attributes":{
						"POSITION":0,
						"NORMAL":1,
						"TEXCOORD_0":2
					},
					"indices":3
				}
			]
		},
		{
			"name":"Cube.107",
			"primitives":[
				{
					"attributes":{
						"POSITION":4,
						"NORMAL":5,
						"TEXCOORD_0":6
					},
					"indices":7,
					"material":0
				}
			]
		},
		{
			"name":"Cube.108",
			"primitives":[
				{
					"attributes":{
						"POSITION":8,
						"NORMAL":9,
						"TEXCOORD_0":10
					},
					"indices":11
				}
			]
		},
		{
			"name":"Cube.109",
			"primitives":[
				{
					"attributes":{
						"POSITION":12,
						"NORMAL":13,
						"TEXCOORD_0":14
					},
					"indices":11
				}
			]
		},
		{
			"name":"Cube.110",
			"primitives":[
				{
					"attributes":{
						"POSITION":15,
						"NORMAL":16,
						"TEXCOORD_0":17
					},
					"indices":11
				}
			]
		},
		{
			"name":"Cube.112",
			"primitives":[
				{
					"attributes":{
						"POSITION":18,
						"NORMAL":19,
						"TEXCOORD_0":20
					},
					"indices":11
				}
			]
		},
		{
			"name":"Cube.113",
			"primitives":[
				{
					"attributes":{
						"POSITION":21,
						"NORMAL":22,
						"TEXCOORD_0":23
					},
					"indices":11
				}
			]
		},
		{
			"name":"Cube.114",
			"primitives":[
				{
					"attributes":{
						"POSITION":24,
						"NORMAL":25,
						"TEXCOORD_0":26
					},
					"indices":11
				}
			]
		},
		{
			"name":"Cube.115",
			"primitives":[
				{
					"attributes":{
						"POSITION":27,
						"NORMAL":28,
						"TEXCOORD_0":29
					},
					"indices":11
				}
			]
		},
		{
			"name":"Cube.116",
			"primitives":[
				{
					"attributes":{
						"POSITION":30,
						"NORMAL":31,
						"TEXCOORD_0":32
					},
					"indices":11
				}
			]
		},
		{
			"name":"Cube.117",
			"primitives":[
				{
					"attributes":{
						"POSITION":33,
						"NORMAL":34,
						"TEXCOORD_0":35
					},
					"indices":11
				}
			]
		},
		{
			"name":"Cylinder.016",
			"primitives":[
				{
					"attributes":{
						"POSITION":36,
						"NORMAL":37,
						"TEXCOORD_0":38
					},
					"indices":39,
					"material":1
				}
			]
		},
		{
			"name":"Cube.137",
			"primitives":[
				{
					"attributes":{
						"POSITION":40,
						"NORMAL":41,
						"TEXCOORD_0":42
					},
					"indices":11,
					"material":2
				}
			]
		},
		{
			"name":"Cube.152",
			"primitives":[
				{
					"attributes":{
						"POSITION":43,
						"NORMAL":44,
						"TEXCOORD_0":45
					},
					"indices":11,
					"material":3
				}
			]
		},
		{
			"name":"Cube.153",
			"primitives":[
				{
					"attributes":{
						"POSITION":46,
						"NORMAL":47,
						"TEXCOORD_0":48
					},
					"indices":11,
					"material":0
				}
			]
		},
		{
			"name":"Cube.160",
			"primitives":[
				{
					"attributes":{
						"POSITION":49,
						"NORMAL":50,
						"TEXCOORD_0":51
					},
					"indices":52,
					"material":0
				}
			]
		},
		{
			"name":"Cube.161",
			"primitives":[
				{
					"attributes":{
						"POSITION":53,
						"NORMAL":54,
						"TEXCOORD_0":55
					},
					"indices":11,
					"material":3
				}
			]
		},
		{
			"name":"Cube.162",
			"primitives":[
				{
					"attributes":{
						"POSITION":56,
						"NORMAL":57,
						"TEXCOORD_0":58
					},
					"indices":11,
					"material":3
				}
			]
		},
		{
			"name":"Cube.163",
			"primitives":[
				{
					"attributes":{
						"POSITION":59,
						"NORMAL":60,
						"TEXCOORD_0":61
					},
					"indices":62,
					"material":3
				}
			]
		},
		{
			"name":"Cube.164",
			"primitives":[
				{
					"attributes":{
						"POSITION":63,
						"NORMAL":64,
						"TEXCOORD_0":65
					},
					"indices":11,
					"material":3
				}
			]
		},
		{
			"name":"Cube.173",
			"primitives":[
				{
					"attributes":{
						"POSITION":66,
						"NORMAL":67,
						"TEXCOORD_0":68
					},
					"indices":11,
					"material":0
				}
			]
		},
		{
			"name":"Cube.174",
			"primitives":[
				{
					"attributes":{
						"POSITION":69,
						"NORMAL":70,
						"TEXCOORD_0":71
					},
					"indices":72,
					"material":0
				}
			]
		},
		{
			"name":"Cube.175",
			"primitives":[
				{
					"attributes":{
						"POSITION":73,
						"NORMAL":74,
						"TEXCOORD_0":75
					},
					"indices":62,
					"material":3
				}
			]
		},
		{
			"name":"Cube.176",
			"primitives":[
				{
					"attributes":{
						"POSITION":76,
						"NORMAL":77,
						"TEXCOORD_0":78
					},
					"indices":79,
					"material":0
				}
			]
		},
		{
			"name":"Cube.177",
			"primitives":[
				{
					"attributes":{
						"POSITION":80,
						"NORMAL":81,
						"TEXCOORD_0":82
					},
					"indices":11,
					"material":0
				}
			]
		},
		{
			"name":"Cube.178",
			"primitives":[
				{
					"attributes":{
						"POSITION":83,
						"NORMAL":84,
						"TEXCOORD_0":85
					},
					"indices":11,
					"material":3
				}
			]
		},
		{
			"name":"Cube.179",
			"primitives":[
				{
					"attributes":{
						"POSITION":86,
						"NORMAL":87,
						"TEXCOORD_0":88
					},
					"indices":11,
					"material":3
				}
			]
		},
		{
			"name":"Cube.180",
			"primitives":[
				{
					"attributes":{
						"POSITION":89,
						"NORMAL":90,
						"TEXCOORD_0":91
					},
					"indices":11,
					"material":0
				}
			]
		},
		{
			"name":"Cube.181",
			"primitives":[
				{
					"attributes":{
						"POSITION":92,
						"NORMAL":93,
						"TEXCOORD_0":94
					},
					"indices":95,
					"material":0
				}
			]
		},
		{
			"name":"Cube.182",
			"primitives":[
				{
					"attributes":{
						"POSITION":96,
						"NORMAL":97,
						"TEXCOORD_0":98
					},
					"indices":11,
					"material":0
				}
			]
		},
		{
			"name":"Cube.183",
			"primitives":[
				{
					"attributes":{
						"POSITION":99,
						"NORMAL":100,
						"TEXCOORD_0":101
					},
					"indices":102,
					"material":0
				}
			]
		},
		{
			"name":"posast.007",
			"primitives":[
				{
					"attributes":{
						"POSITION":103,
						"NORMAL":104,
						"TEXCOORD_0":105
					},
					"indices":106,
					"material":4
				},
				{
					"attributes":{
						"POSITION":107,
						"NORMAL":108,
						"TEXCOORD_0":109
					},
					"indices":110,
					"material":5
				}
			]
		},
		{
			"name":"Cylinder.025",
			"primitives":[
				{
					"attributes":{
						"POSITION":111,
						"NORMAL":112,
						"TEXCOORD_0":113
					},
					"indices":114,
					"material":0
				}
			]
		},
		{
			"name":"Cube.155",
			"primitives":[
				{
					"attributes":{
						"POSITION":115,
						"NORMAL":116,
						"TEXCOORD_0":117
					},
					"indices":11,
					"material":3
				}
			]
		},
		{
			"name":"posast.004",
			"primitives":[
				{
					"attributes":{
						"POSITION":118,
						"NORMAL":119,
						"TEXCOORD_0":120
					},
					"indices":121,
					"material":6
				},
				{
					"attributes":{
						"POSITION":122,
						"NORMAL":123,
						"TEXCOORD_0":124
					},
					"indices":125,
					"material":5
				}
			]
		},
		{
			"name":"keyboard_low",
			"primitives":[
				{
					"attributes":{
						"POSITION":126,
						"NORMAL":127,
						"TEXCOORD_0":128,
						"COLOR_0":129,
						"COLOR_1":130,
						"COLOR_2":131,
						"COLOR_3":132
					},
					"indices":133,
					"material":7
				}
			]
		},
		{
			"name":"Mesh",
			"primitives":[
				{
					"attributes":{
						"POSITION":134,
						"NORMAL":135,
						"TEXCOORD_0":136
					},
					"indices":137,
					"material":8
				},
				{
					"attributes":{
						"POSITION":138,
						"NORMAL":139,
						"TEXCOORD_0":140
					},
					"indices":141,
					"material":9
				}
			]
		}
	],
	"textures":[
		{
			"sampler":0,
			"source":0
		},
		{
			"sampler":0,
			"source":1
		},
		{
			"sampler":0,
			"source":2
		},
		{
			"sampler":0,
			"source":3
		},
		{
			"sampler":0,
			"source":4
		},
		{
			"sampler":0,
			"source":5
		}
	],
	"images":[
		{
			"mimeType":"image/jpeg",
			"name":"alert-blue",
			"uri":"tex/alert-blue.jpg"
		},
		{
			"mimeType":"image/jpeg",
			"name":"alert",
			"uri":"tex/alert.jpg"
		},
		{
			"mimeType":"image/jpeg",
			"name":"mouth_emit",
			"uri":"tex/mouth_emit.jpg"
		},
		{
			"mimeType":"image/jpeg",
			"name":"mouth-remesh-blue",
			"uri":"tex/mouth-remesh-blue.jpg"
		},
		{
			"mimeType":"image/jpeg",
			"name":"laptop_albedo",
			"uri":"tex/laptop_albedo.jpg"
		},
		{
			"mimeType":"image/jpeg",
			"name":"tdemo_insane",
			"uri":"tex/tdemo_insane.jpg"
		}
	],
	"accessors":[
		{
			"bufferView":0,
			"componentType":5126,
			"count":4,
			"max":[
				1,
				0,
				1
			],
			"min":[
				-1,
				0,
				-1
			],
			"type":"VEC3"
		},
		{
			"bufferView":1,
			"componentType":5126,
			"count":4,
			"type":"VEC3"
		},
		{
			"bufferView":2,
			"componentType":5126,
			"count":4,
			"type":"VEC2"
		},
		{
			"bufferView":3,
			"componentType":5123,
			"count":6,
			"type":"SCALAR"
		},
		{
			"bufferView":4,
			"componentType":5126,
			"count":150,
			"max":[
				1,
				1,
				1
			],
			"min":[
				-1,
				-1,
				-1
			],
			"type":"VEC3"
		},
		{
			"bufferView":5,
			"componentType":5126,
			"count":150,
			"type":"VEC3"
		},
		{
			"bufferView":6,
			"componentType":5126,
			"count":150,
			"type":"VEC2"
		},
		{
			"bufferView":7,
			"componentType":5123,
			"count":240,
			"type":"SCALAR"
		},
		{
			"bufferView":8,
			"componentType":5126,
			"count":24,
			"max":[
				1,
				1,
				1
			],
			"min":[
				-1,
				-1,
				-1
			],
			"type":"VEC3"
		},
		{
			"bufferView":9,
			"componentType":5126,
			"count":24,
			"type":"VEC3"
		},
		{
			"bufferView":10,
			"componentType":5126,
			"count":24,
			"type":"VEC2"
		},
		{
			"bufferView":11,
			"componentType":5123,
			"count":36,
			"type":"SCALAR"
		},
		{
			"bufferView":12,
			"componentType":5126,
			"count":24,
			"max":[
				1,
				1,
				1
			],
			"min":[
				-1,
				-1,
				-1
			],
			"type":"VEC3"
		},
		{
			"bufferView":13,
			"componentType":5126,
			"count":24,
			"type":"VEC3"
		},
		{
			"bufferView":14,
			"componentType":5126,
			"count":24,
			"type":"VEC2"
		},
		{
			"bufferView":15,
			"componentType":5126,
			"count":24,
			"max":[
				1,
				1,
				1
			],
			"min":[
				-1,
				-1,
				-1
			],
			"type":"VEC3"
		},
		{
			"bufferView":16,
			"componentType":5126,
			"count":24,
			"type":"VEC3"
		},
		{
			"bufferView":17,
			"componentType":5126,
			"count":24,
			"type":"VEC2"
		},
		{
			"bufferView":18,
			"componentType":5126,
			"count":24,
			"max":[
				1,
				1,
				1
			],
			"min":[
				-1,
				-1,
				-1
			],
			"type":"VEC3"
		},
		{
			"bufferView":19,
			"componentType":5126,
			"count":24,
			"type":"VEC3"
		},
		{
			"bufferView":20,
			"componentType":5126,
			"count":24,
			"type":"VEC2"
		},
		{
			"bufferView":21,
			"componentType":5126,
			"count":24,
			"max":[
				1,
				1,
				1
			],
			"min":[
				-1,
				-1,
				-1
			],
			"type":"VEC3"
		},
		{
			"bufferView":22,
			"componentType":5126,
			"count":24,
			"type":"VEC3"
		},
		{
			"bufferView":23,
			"componentType":5126,
			"count":24,
			"type":"VEC2"
		},
		{
			"bufferView":24,
			"componentType":5126,
			"count":24,
			"max":[
				1,
				1,
				1
			],
			"min":[
				-1,
				-1,
				-1
			],
			"type":"VEC3"
		},
		{
			"bufferView":25,
			"componentType":5126,
			"count":24,
			"type":"VEC3"
		},
		{
			"bufferView":26,
			"componentType":5126,
			"count":24,
			"type":"VEC2"
		},
		{
			"bufferView":27,
			"componentType":5126,
			"count":24,
			"max":[
				1,
				1,
				1
			],
			"min":[
				-1,
				-1,
				-1
			],
			"type":"VEC3"
		},
		{
			"bufferView":28,
			"componentType":5126,
			"count":24,
			"type":"VEC3"
		},
		{
			"bufferView":29,
			"componentType":5126,
			"count":24,
			"type":"VEC2"
		},
		{
			"bufferView":30,
			"componentType":5126,
			"count":24,
			"max":[
				1,
				1,
				1
			],
			"min":[
				-1,
				-1,
				-1
			],
			"type":"VEC3"
		},
		{
			"bufferView":31,
			"componentType":5126,
			"count":24,
			"type":"VEC3"
		},
		{
			"bufferView":32,
			"componentType":5126,
			"count":24,
			"type":"VEC2"
		},
		{
			"bufferView":33,
			"componentType":5126,
			"count":24,
			"max":[
				1,
				1,
				1
			],
			"min":[
				-1,
				-1,
				-1
			],
			"type":"VEC3"
		},
		{
			"bufferView":34,
			"componentType":5126,
			"count":24,
			"type":"VEC3"
		},
		{
			"bufferView":35,
			"componentType":5126,
			"count":24,
			"type":"VEC2"
		},
		{
			"bufferView":36,
			"componentType":5126,
			"count":40,
			"max":[
				1.1915698051452637,
				1,
				1
			],
			"min":[
				-0.8660253882408142,
				-2.088017702102661,
				-1.5638595819473267
			],
			"type":"VEC3"
		},
		{
			"bufferView":37,
			"componentType":5126,
			"count":40,
			"type":"VEC3"
		},
		{
			"bufferView":38,
			"componentType":5126,
			"count":40,
			"type":"VEC2"
		},
		{
			"bufferView":39,
			"componentType":5123,
			"count":72,
			"type":"SCALAR"
		},
		{
			"bufferView":40,
			"componentType":5126,
			"count":24,
			"max":[
				10.615303993225098,
				0.3549582064151764,
				0.18619273602962494
			],
			"min":[
				-10.61530590057373,
				-0.35495105385780334,
				-0.18619273602962494
			],
			"type":"VEC3"
		},
		{
			"bufferView":41,
			"componentType":5126,
			"count":24,
			"type":"VEC3"
		},
		{
			"bufferView":42,
			"componentType":5126,
			"count":24,
			"type":"VEC2"
		},
		{
			"bufferView":43,
			"componentType":5126,
			"count":24,
			"max":[
				1,
				1,
				1
			],
			"min":[
				-1,
				-1,
				-1
			],
			"type":"VEC3"
		},
		{
			"bufferView":44,
			"componentType":5126,
			"count":24,
			"type":"VEC3"
		},
		{
			"bufferView":45,
			"componentType":5126,
			"count":24,
			"type":"VEC2"
		},
		{
			"bufferView":46,
			"componentType":5126,
			"count":24,
			"max":[
				1,
				1,
				1
			],
			"min":[
				-1,
				-1,
				-1
			],
			"type":"VEC3"
		},
		{
			"bufferView":47,
			"componentType":5126,
			"count":24,
			"type":"VEC3"
		},
		{
			"bufferView":48,
			"componentType":5126,
			"count":24,
			"type":"VEC2"
		},
		{
			"bufferView":49,
			"componentType":5126,
			"count":36,
			"max":[
				2.060563087463379,
				2.060563087463379,
				2.060563087463379
			],
			"min":[
				-2.060563087463379,
				-2.060563087463379,
				-2.060563087463379
			],
			"type":"VEC3"
		},
		{
			"bufferView":50,
			"componentType":5126,
			"count":36,
			"type":"VEC3"
		},
		{
			"bufferView":51,
			"componentType":5126,
			"count":36,
			"type":"VEC2"
		},
		{
			"bufferView":52,
			"componentType":5123,
			"count":36,
			"type":"SCALAR"
		},
		{
			"bufferView":53,
			"componentType":5126,
			"count":24,
			"max":[
				1,
				1,
				1
			],
			"min":[
				-1,
				-1,
				-1
			],
			"type":"VEC3"
		},
		{
			"bufferView":54,
			"componentType":5126,
			"count":24,
			"type":"VEC3"
		},
		{
			"bufferView":55,
			"componentType":5126,
			"count":24,
			"type":"VEC2"
		},
		{
			"bufferView":56,
			"componentType":5126,
			"count":24,
			"max":[
				8.302008628845215,
				0.2824159562587738,
				0.9600841403007507
			],
			"min":[
				-8.302008628845215,
				-0.2824159562587738,
				-0.9600841403007507
			],
			"type":"VEC3"
		},
		{
			"bufferView":57,
			"componentType":5126,
			"count":24,
			"type":"VEC3"
		},
		{
			"bufferView":58,
			"componentType":5126,
			"count":24,
			"type":"VEC2"
		},
		{
			"bufferView":59,
			"componentType":5126,
			"count":36,
			"max":[
				1,
				1,
				1
			],
			"min":[
				-1,
				-1,
				-1
			],
			"type":"VEC3"
		},
		{
			"bufferView":60,
			"componentType":5126,
			"count":36,
			"type":"VEC3"
		},
		{
			"bufferView":61,
			"componentType":5126,
			"count":36,
			"type":"VEC2"
		},
		{
			"bufferView":62,
			"componentType":5123,
			"count":36,
			"type":"SCALAR"
		},
		{
			"bufferView":63,
			"componentType":5126,
			"count":24,
			"max":[
				1,
				1,
				1
			],
			"min":[
				-1,
				-1,
				-1
			],
			"type":"VEC3"
		},
		{
			"bufferView":64,
			"componentType":5126,
			"count":24,
			"type":"VEC3"
		},
		{
			"bufferView":65,
			"componentType":5126,
			"count":24,
			"type":"VEC2"
		},
		{
			"bufferView":66,
			"componentType":5126,
			"count":24,
			"max":[
				1,
				1,
				1
			],
			"min":[
				-1,
				-1,
				-1
			],
			"type":"VEC3"
		},
		{
			"bufferView":67,
			"componentType":5126,
			"count":24,
			"type":"VEC3"
		},
		{
			"bufferView":68,
			"componentType":5126,
			"count":24,
			"type":"VEC2"
		},
		{
			"bufferView":69,
			"componentType":5126,
			"count":31,
			"max":[
				1,
				1,
				1
			],
			"min":[
				-1,
				-1,
				-1
			],
			"type":"VEC3"
		},
		{
			"bufferView":70,
			"componentType":5126,
			"count":31,
			"type":"VEC3"
		},
		{
			"bufferView":71,
			"componentType":5126,
			"count":31,
			"type":"VEC2"
		},
		{
			"bufferView":72,
			"componentType":5123,
			"count":36,
			"type":"SCALAR"
		},
		{
			"bufferView":73,
			"componentType":5126,
			"count":36,
			"max":[
				1,
				1,
				1
			],
			"min":[
				-1,
				-1,
				-1
			],
			"type":"VEC3"
		},
		{
			"bufferView":74,
			"componentType":5126,
			"count":36,
			"type":"VEC3"
		},
		{
			"bufferView":75,
			"componentType":5126,
			"count":36,
			"type":"VEC2"
		},
		{
			"bufferView":76,
			"componentType":5126,
			"count":24,
			"max":[
				10.615303993225098,
				0.3549582064151764,
				0.18619273602962494
			],
			"min":[
				-10.61530590057373,
				-0.35495105385780334,
				-0.18619273602962494
			],
			"type":"VEC3"
		},
		{
			"bufferView":77,
			"componentType":5126,
			"count":24,
			"type":"VEC3"
		},
		{
			"bufferView":78,
			"componentType":5126,
			"count":24,
			"type":"VEC2"
		},
		{
			"bufferView":79,
			"componentType":5123,
			"count":36,
			"type":"SCALAR"
		},
		{
			"bufferView":80,
			"componentType":5126,
			"count":24,
			"max":[
				4.567444324493408,
				0.15272779762744904,
				0.08011329174041748
			],
			"min":[
				-4.567445278167725,
				-0.1527247130870819,
				-0.08011329174041748
			],
			"type":"VEC3"
		},
		{
			"bufferView":81,
			"componentType":5126,
			"count":24,
			"type":"VEC3"
		},
		{
			"bufferView":82,
			"componentType":5126,
			"count":24,
			"type":"VEC2"
		},
		{
			"bufferView":83,
			"componentType":5126,
			"count":24,
			"max":[
				1,
				1,
				1
			],
			"min":[
				-1,
				-1,
				-1
			],
			"type":"VEC3"
		},
		{
			"bufferView":84,
			"componentType":5126,
			"count":24,
			"type":"VEC3"
		},
		{
			"bufferView":85,
			"componentType":5126,
			"count":24,
			"type":"VEC2"
		},
		{
			"bufferView":86,
			"componentType":5126,
			"count":24,
			"max":[
				1,
				1,
				1
			],
			"min":[
				-1,
				-1,
				-1
			],
			"type":"VEC3"
		},
		{
			"bufferView":87,
			"componentType":5126,
			"count":24,
			"type":"VEC3"
		},
		{
			"bufferView":88,
			"componentType":5126,
			"count":24,
			"type":"VEC2"
		},
		{
			"bufferView":89,
			"componentType":5126,
			"count":24,
			"max":[
				2.060563087463379,
				2.060563087463379,
				2.060563087463379
			],
			"min":[
				-2.060563087463379,
				-2.060563087463379,
				-2.060563087463379
			],
			"type":"VEC3"
		},
		{
			"bufferView":90,
			"componentType":5126,
			"count":24,
			"type":"VEC3"
		},
		{
			"bufferView":91,
			"componentType":5126,
			"count":24,
			"type":"VEC2"
		},
		{
			"bufferView":92,
			"componentType":5126,
			"count":36,
			"max":[
				2.060563087463379,
				2.060563087463379,
				2.060563087463379
			],
			"min":[
				-2.060563087463379,
				-2.060563087463379,
				-2.060563087463379
			],
			"type":"VEC3"
		},
		{
			"bufferView":93,
			"componentType":5126,
			"count":36,
			"type":"VEC3"
		},
		{
			"bufferView":94,
			"componentType":5126,
			"count":36,
			"type":"VEC2"
		},
		{
			"bufferView":95,
			"componentType":5123,
			"count":36,
			"type":"SCALAR"
		},
		{
			"bufferView":96,
			"componentType":5126,
			"count":24,
			"max":[
				1,
				1,
				1
			],
			"min":[
				-1,
				-1,
				-1
			],
			"type":"VEC3"
		},
		{
			"bufferView":97,
			"componentType":5126,
			"count":24,
			"type":"VEC3"
		},
		{
			"bufferView":98,
			"componentType":5126,
			"count":24,
			"type":"VEC2"
		},
		{
			"bufferView":99,
			"componentType":5126,
			"count":144,
			"max":[
				3.2703194618225098,
				0.11031100153923035,
				4.810058116912842
			],
			"min":[
				-1.2674598693847656,
				-0.0967489555478096,
				-0.50006502866745
			],
			"type":"VEC3"
		},
		{
			"bufferView":100,
			"componentType":5126,
			"count":144,
			"type":"VEC3"
		},
		{
			"bufferView":101,
			"componentType":5126,
			"count":144,
			"type":"VEC2"
		},
		{
			"bufferView":102,
			"componentType":5123,
			"count":144,
			"type":"SCALAR"
		},
		{
			"bufferView":103,
			"componentType":5126,
			"count":8073,
			"max":[
				12.36605167388916,
				9.900225639343262,
				14.914605140686035
			],
			"min":[
				-12.419824600219727,
				-10.93510913848877,
				-15.768324851989746
			],
			"type":"VEC3"
		},
		{
			"bufferView":104,
			"componentType":5126,
			"count":8073,
			"type":"VEC3"
		},
		{
			"bufferView":105,
			"componentType":5126,
			"count":8073,
			"type":"VEC2"
		},
		{
			"bufferView":106,
			"componentType":5123,
			"count":26550,
			"type":"SCALAR"
		},
		{
			"bufferView":107,
			"componentType":5126,
			"count":6205,
			"max":[
				7.184359073638916,
				9.751983642578125,
				9.036450386047363
			],
			"min":[
				-6.275650501251221,
				-1.1739062070846558,
				-7.8194732666015625
			],
			"type":"VEC3"
		},
		{
			"bufferView":108,
			"componentType":5126,
			"count":6205,
			"type":"VEC3"
		},
		{
			"bufferView":109,
			"componentType":5126,
			"count":6205,
			"type":"VEC2"
		},
		{
			"bufferView":110,
			"componentType":5123,
			"count":16803,
			"type":"SCALAR"
		},
		{
			"bufferView":111,
			"componentType":5126,
			"count":372,
			"max":[
				1.9709314107894897,
				1,
				2.7127206325531006
			],
			"min":[
				-1.747023344039917,
				-6.689633369445801,
				-2.0172886848449707
			],
			"type":"VEC3"
		},
		{
			"bufferView":112,
			"componentType":5126,
			"count":372,
			"type":"VEC3"
		},
		{
			"bufferView":113,
			"componentType":5126,
			"count":372,
			"type":"VEC2"
		},
		{
			"bufferView":114,
			"componentType":5123,
			"count":372,
			"type":"SCALAR"
		},
		{
			"bufferView":115,
			"componentType":5126,
			"count":24,
			"max":[
				6.288983345031738,
				0.6058759689331055,
				6.288983345031738
			],
			"min":[
				-6.288983345031738,
				-0.6058759689331055,
				-6.288983345031738
			],
			"type":"VEC3"
		},
		{
			"bufferView":116,
			"componentType":5126,
			"count":24,
			"type":"VEC3"
		},
		{
			"bufferView":117,
			"componentType":5126,
			"count":24,
			"type":"VEC2"
		},
		{
			"bufferView":118,
			"componentType":5126,
			"count":6332,
			"max":[
				9.781210899353027,
				4.457232475280762,
				7.243527889251709
			],
			"min":[
				-8.874363899230957,
				-7.946022033691406,
				-7.6648688316345215
			],
			"type":"VEC3"
		},
		{
			"bufferView":119,
			"componentType":5126,
			"count":6332,
			"type":"VEC3"
		},
		{
			"bufferView":120,
			"componentType":5126,
			"count":6332,
			"type":"VEC2"
		},
		{
			"bufferView":121,
			"componentType":5123,
			"count":35706,
			"type":"SCALAR"
		},
		{
			"bufferView":122,
			"componentType":5126,
			"count":2567,
			"max":[
				4.920794486999512,
				4.442416191101074,
				4.047987461090088
			],
			"min":[
				-5.20695686340332,
				-2.0331497192382812,
				-4.154233932495117
			],
			"type":"VEC3"
		},
		{
			"bufferView":123,
			"componentType":5126,
			"count":2567,
			"type":"VEC3"
		},
		{
			"bufferView":124,
			"componentType":5126,
			"count":2567,
			"type":"VEC2"
		},
		{
			"bufferView":125,
			"componentType":5123,
			"count":15381,
			"type":"SCALAR"
		},
		{
			"bufferView":126,
			"componentType":5126,
			"count":13474,
			"max":[
				6.41455602645874,
				5.693819046020508,
				0.0572890006005764
			],
			"min":[
				-6.624133110046387,
				-4.025024890899658,
				-10.798924446105957
			],
			"type":"VEC3"
		},
		{
			"bufferView":127,
			"componentType":5126,
			"count":13474,
			"type":"VEC3"
		},
		{
			"bufferView":128,
			"componentType":5126,
			"count":13474,
			"type":"VEC2"
		},
		{
			"bufferView":129,
			"componentType":5121,
			"count":13474,
			"normalized":true,
			"type":"VEC4"
		},
		{
			"bufferView":130,
			"componentType":5123,
			"count":13474,
			"normalized":true,
			"type":"VEC4"
		},
		{
			"bufferView":131,
			"componentType":5123,
			"count":13474,
			"normalized":true,
			"type":"VEC4"
		},
		{
			"bufferView":132,
			"componentType":5123,
			"count":13474,
			"normalized":true,
			"type":"VEC4"
		},
		{
			"bufferView":133,
			"componentType":5123,
			"count":42207,
			"type":"SCALAR"
		},
		{
			"bufferView":134,
			"componentType":5126,
			"count":8002,
			"max":[
				1.7584145069122314,
				2.560157299041748,
				-0.912067174911499
			],
			"min":[
				-2.10817551612854,
				-3.5440266132354736,
				-4.657941818237305
			],
			"type":"VEC3"
		},
		{
			"bufferView":135,
			"componentType":5126,
			"count":8002,
			"type":"VEC3"
		},
		{
			"bufferView":136,
			"componentType":5126,
			"count":8002,
			"type":"VEC2"
		},
		{
			"bufferView":137,
			"componentType":5123,
			"count":22548,
			"type":"SCALAR"
		},
		{
			"bufferView":138,
			"componentType":5126,
			"count":64,
			"max":[
				0.4489619731903076,
				2.2337851524353027,
				-1.9852652549743652
			],
			"min":[
				0.44760769605636597,
				-3.235722064971924,
				-4.6436662673950195
			],
			"type":"VEC3"
		},
		{
			"bufferView":139,
			"componentType":5126,
			"count":64,
			"type":"VEC3"
		},
		{
			"bufferView":140,
			"componentType":5126,
			"count":64,
			"type":"VEC2"
		},
		{
			"bufferView":141,
			"componentType":5123,
			"count":96,
			"type":"SCALAR"
		}
	],
	"bufferViews":[
		{
			"buffer":0,
			"byteLength":48,
			"byteOffset":0,
			"target":34962
		},
		{
			"buffer":0,
			"byteLength":48,
			"byteOffset":48,
			"target":34962
		},
		{
			"buffer":0,
			"byteLength":32,
			"byteOffset":96,
			"target":34962
		},
		{
			"buffer":0,
			"byteLength":12,
			"byteOffset":128,
			"target":34963
		},
		{
			"buffer":0,
			"byteLength":1800,
			"byteOffset":140,
			"target":34962
		},
		{
			"buffer":0,
			"byteLength":1800,
			"byteOffset":1940,
			"target":34962
		},
		{
			"buffer":0,
			"byteLength":1200,
			"byteOffset":3740,
			"target":34962
		},
		{
			"buffer":0,
			"byteLength":480,
			"byteOffset":4940,
			"target":34963
		},
		{
			"buffer":0,
			"byteLength":288,
			"byteOffset":5420,
			"target":34962
		},
		{
			"buffer":0,
			"byteLength":288,
			"byteOffset":5708,
			"target":34962
		},
		{
			"buffer":0,
			"byteLength":192,
			"byteOffset":5996,
			"target":34962
		},
		{
			"buffer":0,
			"byteLength":72,
			"byteOffset":6188,
			"target":34963
		},
		{
			"buffer":0,
			"byteLength":288,
			"byteOffset":6260,
			"target":34962
		},
		{
			"buffer":0,
			"byteLength":288,
			"byteOffset":6548,
			"target":34962
		},
		{
			"buffer":0,
			"byteLength":192,
			"byteOffset":6836,
			"target":34962
		},
		{
			"buffer":0,
			"byteLength":288,
			"byteOffset":7028,
			"target":34962
		},
		{
			"buffer":0,
			"byteLength":288,
			"byteOffset":7316,
			"target":34962
		},
		{
			"buffer":0,
			"byteLength":192,
			"byteOffset":7604,
			"target":34962
		},
		{
			"buffer":0,
			"byteLength":288,
			"byteOffset":7796,
			"target":34962
		},
		{
			"buffer":0,
			"byteLength":288,
			"byteOffset":8084,
			"target":34962
		},
		{
			"buffer":0,
			"byteLength":192,
			"byteOffset":8372,
			"target":34962
		},
		{
			"buffer":0,
			"byteLength":288,
			"byteOffset":8564,
			"target":34962
		},
		{
			"buffer":0,
			"byteLength":288,
			"byteOffset":8852,
			"target":34962
		},
		{
			"buffer":0,
			"byteLength":192,
			"byteOffset":9140,
			"target":34962
		},
		{
			"buffer":0,
			"byteLength":288,
			"byteOffset":9332,
			"target":34962
		},
		{
			"buffer":0,
			"byteLength":288,
			"byteOffset":9620,
			"target":34962
		},
		{
			"buffer":0,
			"byteLength":192,
			"byteOffset":9908,
			"target":34962
		},
		{
			"buffer":0,
			"byteLength":288,
			"byteOffset":10100,
			"target":34962
		},
		{
			"buffer":0,
			"byteLength":288,
			"byteOffset":10388,
			"target":34962
		},
		{
			"buffer":0,
			"byteLength":192,
			"byteOffset":10676,
			"target":34962
		},
		{
			"buffer":0,
			"byteLength":288,
			"byteOffset":10868,
			"target":34962
		},
		{
			"buffer":0,
			"byteLength":288,
			"byteOffset":11156,
			"target":34962
		},
		{
			"buffer":0,
			"byteLength":192,
			"byteOffset":11444,
			"target":34962
		},
		{
			"buffer":0,
			"byteLength":288,
			"byteOffset":11636,
			"target":34962
		},
		{
			"buffer":0,
			"byteLength":288,
			"byteOffset":11924,
			"target":34962
		},
		{
			"buffer":0,
			"byteLength":192,
			"byteOffset":12212,
			"target":34962
		},
		{
			"buffer":0,
			"byteLength":480,
			"byteOffset":12404,
			"target":34962
		},
		{
			"buffer":0,
			"byteLength":480,
			"byteOffset":12884,
			"target":34962
		},
		{
			"buffer":0,
			"byteLength":320,
			"byteOffset":13364,
			"target":34962
		},
		{
			"buffer":0,
			"byteLength":144,
			"byteOffset":13684,
			"target":34963
		},
		{
			"buffer":0,
			"byteLength":288,
			"byteOffset":13828,
			"target":34962
		},
		{
			"buffer":0,
			"byteLength":288,
			"byteOffset":14116,
			"target":34962
		},
		{
			"buffer":0,
			"byteLength":192,
			"byteOffset":14404,
			"target":34962
		},
		{
			"buffer":0,
			"byteLength":288,
			"byteOffset":14596,
			"target":34962
		},
		{
			"buffer":0,
			"byteLength":288,
			"byteOffset":14884,
			"target":34962
		},
		{
			"buffer":0,
			"byteLength":192,
			"byteOffset":15172,
			"target":34962
		},
		{
			"buffer":0,
			"byteLength":288,
			"byteOffset":15364,
			"target":34962
		},
		{
			"buffer":0,
			"byteLength":288,
			"byteOffset":15652,
			"target":34962
		},
		{
			"buffer":0,
			"byteLength":192,
			"byteOffset":15940,
			"target":34962
		},
		{
			"buffer":0,
			"byteLength":432,
			"byteOffset":16132,
			"target":34962
		},
		{
			"buffer":0,
			"byteLength":432,
			"byteOffset":16564,
			"target":34962
		},
		{
			"buffer":0,
			"byteLength":288,
			"byteOffset":16996,
			"target":34962
		},
		{
			"buffer":0,
			"byteLength":72,
			"byteOffset":17284,
			"target":34963
		},
		{
			"buffer":0,
			"byteLength":288,
			"byteOffset":17356,
			"target":34962
		},
		{
			"buffer":0,
			"byteLength":288,
			"byteOffset":17644,
			"target":34962
		},
		{
			"buffer":0,
			"byteLength":192,
			"byteOffset":17932,
			"target":34962
		},
		{
			"buffer":0,
			"byteLength":288,
			"byteOffset":18124,
			"target":34962
		},
		{
			"buffer":0,
			"byteLength":288,
			"byteOffset":18412,
			"target":34962
		},
		{
			"buffer":0,
			"byteLength":192,
			"byteOffset":18700,
			"target":34962
		},
		{
			"buffer":0,
			"byteLength":432,
			"byteOffset":18892,
			"target":34962
		},
		{
			"buffer":0,
			"byteLength":432,
			"byteOffset":19324,
			"target":34962
		},
		{
			"buffer":0,
			"byteLength":288,
			"byteOffset":19756,
			"target":34962
		},
		{
			"buffer":0,
			"byteLength":72,
			"byteOffset":20044,
			"target":34963
		},
		{
			"buffer":0,
			"byteLength":288,
			"byteOffset":20116,
			"target":34962
		},
		{
			"buffer":0,
			"byteLength":288,
			"byteOffset":20404,
			"target":34962
		},
		{
			"buffer":0,
			"byteLength":192,
			"byteOffset":20692,
			"target":34962
		},
		{
			"buffer":0,
			"byteLength":288,
			"byteOffset":20884,
			"target":34962
		},
		{
			"buffer":0,
			"byteLength":288,
			"byteOffset":21172,
			"target":34962
		},
		{
			"buffer":0,
			"byteLength":192,
			"byteOffset":21460,
			"target":34962
		},
		{
			"buffer":0,
			"byteLength":372,
			"byteOffset":21652,
			"target":34962
		},
		{
			"buffer":0,
			"byteLength":372,
			"byteOffset":22024,
			"target":34962
		},
		{
			"buffer":0,
			"byteLength":248,
			"byteOffset":22396,
			"target":34962
		},
		{
			"buffer":0,
			"byteLength":72,
			"byteOffset":22644,
			"target":34963
		},
		{
			"buffer":0,
			"byteLength":432,
			"byteOffset":22716,
			"target":34962
		},
		{
			"buffer":0,
			"byteLength":432,
			"byteOffset":23148,
			"target":34962
		},
		{
			"buffer":0,
			"byteLength":288,
			"byteOffset":23580,
			"target":34962
		},
		{
			"buffer":0,
			"byteLength":288,
			"byteOffset":23868,
			"target":34962
		},
		{
			"buffer":0,
			"byteLength":288,
			"byteOffset":24156,
			"target":34962
		},
		{
			"buffer":0,
			"byteLength":192,
			"byteOffset":24444,
			"target":34962
		},
		{
			"buffer":0,
			"byteLength":72,
			"byteOffset":24636,
			"target":34963
		},
		{
			"buffer":0,
			"byteLength":288,
			"byteOffset":24708,
			"target":34962
		},
		{
			"buffer":0,
			"byteLength":288,
			"byteOffset":24996,
			"target":34962
		},
		{
			"buffer":0,
			"byteLength":192,
			"byteOffset":25284,
			"target":34962
		},
		{
			"buffer":0,
			"byteLength":288,
			"byteOffset":25476,
			"target":34962
		},
		{
			"buffer":0,
			"byteLength":288,
			"byteOffset":25764,
			"target":34962
		},
		{
			"buffer":0,
			"byteLength":192,
			"byteOffset":26052,
			"target":34962
		},
		{
			"buffer":0,
			"byteLength":288,
			"byteOffset":26244,
			"target":34962
		},
		{
			"buffer":0,
			"byteLength":288,
			"byteOffset":26532,
			"target":34962
		},
		{
			"buffer":0,
			"byteLength":192,
			"byteOffset":26820,
			"target":34962
		},
		{
			"buffer":0,
			"byteLength":288,
			"byteOffset":27012,
			"target":34962
		},
		{
			"buffer":0,
			"byteLength":288,
			"byteOffset":27300,
			"target":34962
		},
		{
			"buffer":0,
			"byteLength":192,
			"byteOffset":27588,
			"target":34962
		},
		{
			"buffer":0,
			"byteLength":432,
			"byteOffset":27780,
			"target":34962
		},
		{
			"buffer":0,
			"byteLength":432,
			"byteOffset":28212,
			"target":34962
		},
		{
			"buffer":0,
			"byteLength":288,
			"byteOffset":28644,
			"target":34962
		},
		{
			"buffer":0,
			"byteLength":72,
			"byteOffset":28932,
			"target":34963
		},
		{
			"buffer":0,
			"byteLength":288,
			"byteOffset":29004,
			"target":34962
		},
		{
			"buffer":0,
			"byteLength":288,
			"byteOffset":29292,
			"target":34962
		},
		{
			"buffer":0,
			"byteLength":192,
			"byteOffset":29580,
			"target":34962
		},
		{
			"buffer":0,
			"byteLength":1728,
			"byteOffset":29772,
			"target":34962
		},
		{
			"buffer":0,
			"byteLength":1728,
			"byteOffset":31500,
			"target":34962
		},
		{
			"buffer":0,
			"byteLength":1152,
			"byteOffset":33228,
			"target":34962
		},
		{
			"buffer":0,
			"byteLength":288,
			"byteOffset":34380,
			"target":34963
		},
		{
			"buffer":0,
			"byteLength":96876,
			"byteOffset":34668,
			"target":34962
		},
		{
			"buffer":0,
			"byteLength":96876,
			"byteOffset":131544,
			"target":34962
		},
		{
			"buffer":0,
			"byteLength":64584,
			"byteOffset":228420,
			"target":34962
		},
		{
			"buffer":0,
			"byteLength":53100,
			"byteOffset":293004,
			"target":34963
		},
		{
			"buffer":0,
			"byteLength":74460,
			"byteOffset":346104,
			"target":34962
		},
		{
			"buffer":0,
			"byteLength":74460,
			"byteOffset":420564,
			"target":34962
		},
		{
			"buffer":0,
			"byteLength":49640,
			"byteOffset":495024,
			"target":34962
		},
		{
			"buffer":0,
			"byteLength":33606,
			"byteOffset":544664,
			"target":34963
		},
		{
			"buffer":0,
			"byteLength":4464,
			"byteOffset":578272,
			"target":34962
		},
		{
			"buffer":0,
			"byteLength":4464,
			"byteOffset":582736,
			"target":34962
		},
		{
			"buffer":0,
			"byteLength":2976,
			"byteOffset":587200,
			"target":34962
		},
		{
			"buffer":0,
			"byteLength":744,
			"byteOffset":590176,
			"target":34963
		},
		{
			"buffer":0,
			"byteLength":288,
			"byteOffset":590920,
			"target":34962
		},
		{
			"buffer":0,
			"byteLength":288,
			"byteOffset":591208,
			"target":34962
		},
		{
			"buffer":0,
			"byteLength":192,
			"byteOffset":591496,
			"target":34962
		},
		{
			"buffer":0,
			"byteLength":75984,
			"byteOffset":591688,
			"target":34962
		},
		{
			"buffer":0,
			"byteLength":75984,
			"byteOffset":667672,
			"target":34962
		},
		{
			"buffer":0,
			"byteLength":50656,
			"byteOffset":743656,
			"target":34962
		},
		{
			"buffer":0,
			"byteLength":71412,
			"byteOffset":794312,
			"target":34963
		},
		{
			"buffer":0,
			"byteLength":30804,
			"byteOffset":865724,
			"target":34962
		},
		{
			"buffer":0,
			"byteLength":30804,
			"byteOffset":896528,
			"target":34962
		},
		{
			"buffer":0,
			"byteLength":20536,
			"byteOffset":927332,
			"target":34962
		},
		{
			"buffer":0,
			"byteLength":30762,
			"byteOffset":947868,
			"target":34963
		},
		{
			"buffer":0,
			"byteLength":161688,
			"byteOffset":978632,
			"target":34962
		},
		{
			"buffer":0,
			"byteLength":161688,
			"byteOffset":1140320,
			"target":34962
		},
		{
			"buffer":0,
			"byteLength":107792,
			"byteOffset":1302008,
			"target":34962
		},
		{
			"buffer":0,
			"byteLength":53896,
			"byteOffset":1409800,
			"target":34962
		},
		{
			"buffer":0,
			"byteLength":107792,
			"byteOffset":1463696,
			"target":34962
		},
		{
			"buffer":0,
			"byteLength":107792,
			"byteOffset":1571488,
			"target":34962
		},
		{
			"buffer":0,
			"byteLength":107792,
			"byteOffset":1679280,
			"target":34962
		},
		{
			"buffer":0,
			"byteLength":84414,
			"byteOffset":1787072,
			"target":34963
		},
		{
			"buffer":0,
			"byteLength":96024,
			"byteOffset":1871488,
			"target":34962
		},
		{
			"buffer":0,
			"byteLength":96024,
			"byteOffset":1967512,
			"target":34962
		},
		{
			"buffer":0,
			"byteLength":64016,
			"byteOffset":2063536,
			"target":34962
		},
		{
			"buffer":0,
			"byteLength":45096,
			"byteOffset":2127552,
			"target":34963
		},
		{
			"buffer":0,
			"byteLength":768,
			"byteOffset":2172648,
			"target":34962
		},
		{
			"buffer":0,
			"byteLength":768,
			"byteOffset":2173416,
			"target":34962
		},
		{
			"buffer":0,
			"byteLength":512,
			"byteOffset":2174184,
			"target":34962
		},
		{
			"buffer":0,
			"byteLength":192,
			"byteOffset":2174696,
			"target":34963
		}
	],
	"samplers":[
		{
			"magFilter":9729,
			"minFilter":9987
		}
	],
	"buffers":[
		{
			"byteLength":2174888,
			"uri":"collision-world-02.bin"
		}
	]
}
