{
	"asset":{
		"generator":"Khronos glTF Blender I/O v5.1.20",
		"version":"2.0"
	},
	"extensionsUsed":[
		"KHR_lights_punctual"
	],
	"extensionsRequired":[
		"KHR_lights_punctual"
	],
	"extensions":{
		"KHR_lights_punctual":{
			"lights":[
				{
					"color":[
						1,
						1,
						1
					],
					"intensity":2717.5706532941126,
					"type":"point",
					"name":"Point.001"
				}
			]
		}
	},
	"scene":0,
	"scenes":[
		{
			"name":"World",
			"nodes":[
				0,
				1,
				2,
				3
			]
		}
	],
	"nodes":[
		{
			"mesh":0,
			"name":"terrain",
			"translation":[
				1,
				0,
				1
			]
		},
		{
			"mesh":1,
			"name":"platforms",
			"translation":[
				-0.09592998027801514,
				-22.306278228759766,
				1.0605666637420654
			]
		},
		{
			"mesh":2,
			"name":"well.001",
			"translation":[
				-11.453863143920898,
				-4.063425540924072,
				-11.453863143920898
			]
		},
		{
			"extensions":{
				"KHR_lights_punctual":{
					"light":0
				}
			},
			"name":"Point.001",
			"rotation":[
				0.7071069478988647,
				0,
				0,
				0.7071065902709961
			],
			"translation":[
				-3.0160396099090576,
				45.30262756347656,
				-6.196352958679199
			]
		}
	],
	"materials":[
		{
			"name":"Ground",
			"pbrMetallicRoughness":{
				"baseColorTexture":{
					"index":0
				},
				"metallicFactor":0
			}
		},
		{
			"doubleSided":true,
			"name":"alert",
			"pbrMetallicRoughness":{
				"baseColorTexture":{
					"index":1
				},
				"metallicFactor":0,
				"roughnessFactor":0.5
			}
		},
		{
			"doubleSided":true,
			"name":"well",
			"pbrMetallicRoughness":{
				"baseColorTexture":{
					"index":2
				},
				"metallicFactor":0,
				"roughnessFactor":0.5
			}
		}
	],
	"meshes":[
		{
			"name":"Plane.006",
			"primitives":[
				{
					"attributes":{
						"POSITION":0,
						"NORMAL":1,
						"TEXCOORD_0":2
					},
					"indices":3,
					"material":0
				}
			]
		},
		{
			"name":"Plane.019",
			"primitives":[
				{
					"attributes":{
						"POSITION":4,
						"NORMAL":5,
						"TEXCOORD_0":6
					},
					"indices":7,
					"material":1
				}
			]
		},
		{
			"name":"Cylinder.027",
			"primitives":[
				{
					"attributes":{
						"POSITION":8,
						"NORMAL":9,
						"TEXCOORD_0":10
					},
					"indices":11,
					"material":2
				}
			]
		}
	],
	"textures":[
		{
			"sampler":0,
			"source":0
		},
		{
			"sampler":0,
			"source":1
		},
		{
			"sampler":0,
			"source":2
		}
	],
	"images":[
		{
			"mimeType":"image/jpeg",
			"name":"Cracks_04",
			"uri":"tex/Cracks_04.jpg"
		},
		{
			"mimeType":"image/png",
			"name":"alert",
			"uri":"tex/alert.png"
		},
		{
			"mimeType":"image/jpeg",
			"name":"cobblestone",
			"uri":"tex/cobblestone.jpg"
		}
	],
	"accessors":[
		{
			"bufferView":0,
			"componentType":5126,
			"count":1238,
			"max":[
				39.85236358642578,
				24.361042022705078,
				39.85236358642578
			],
			"min":[
				-39.85236358642578,
				0,
				-39.85236358642578
			],
			"type":"VEC3"
		},
		{
			"bufferView":1,
			"componentType":5126,
			"count":1238,
			"type":"VEC3"
		},
		{
			"bufferView":2,
			"componentType":5126,
			"count":1238,
			"type":"VEC2"
		},
		{
			"bufferView":3,
			"componentType":5123,
			"count":6216,
			"type":"SCALAR"
		},
		{
			"bufferView":4,
			"componentType":5126,
			"count":268,
			"max":[
				2.8357973098754883,
				9.913924217224121,
				2.8357973098754883
			],
			"min":[
				-17.097713470458984,
				-0.6761890649795532,
				-13.892924308776855
			],
			"type":"VEC3"
		},
		{
			"bufferView":5,
			"componentType":5126,
			"count":268,
			"type":"VEC3"
		},
		{
			"bufferView":6,
			"componentType":5126,
			"count":268,
			"type":"VEC2"
		},
		{
			"bufferView":7,
			"componentType":5123,
			"count":456,
			"type":"SCALAR"
		},
		{
			"bufferView":8,
			"componentType":5126,
			"count":6938,
			"max":[
				1.1257381439208984,
				4.623064994812012,
				1.1473618745803833
			],
			"min":[
				-1.1452889442443848,
				-3.4488909244537354,
				-1.1150355339050293
			],
			"type":"VEC3"
		},
		{
			"bufferView":9,
			"componentType":5126,
			"count":6938,
			"type":"VEC3"
		},
		{
			"bufferView":10,
			"componentType":5126,
			"count":6938,
			"type":"VEC2"
		},
		{
			"bufferView":11,
			"componentType":5123,
			"count":14796,
			"type":"SCALAR"
		}
	],
	"bufferViews":[
		{
			"buffer":0,
			"byteLength":14856,
			"byteOffset":0,
			"target":34962
		},
		{
			"buffer":0,
			"byteLength":14856,
			"byteOffset":14856,
			"target":34962
		},
		{
			"buffer":0,
			"byteLength":9904,
			"byteOffset":29712,
			"target":34962
		},
		{
			"buffer":0,
			"byteLength":12432,
			"byteOffset":39616,
			"target":34963
		},
		{
			"buffer":0,
			"byteLength":3216,
			"byteOffset":52048,
			"target":34962
		},
		{
			"buffer":0,
			"byteLength":3216,
			"byteOffset":55264,
			"target":34962
		},
		{
			"buffer":0,
			"byteLength":2144,
			"byteOffset":58480,
			"target":34962
		},
		{
			"buffer":0,
			"byteLength":912,
			"byteOffset":60624,
			"target":34963
		},
		{
			"buffer":0,
			"byteLength":83256,
			"byteOffset":61536,
			"target":34962
		},
		{
			"buffer":0,
			"byteLength":83256,
			"byteOffset":144792,
			"target":34962
		},
		{
			"buffer":0,
			"byteLength":55504,
			"byteOffset":228048,
			"target":34962
		},
		{
			"buffer":0,
			"byteLength":29592,
			"byteOffset":283552,
			"target":34963
		}
	],
	"samplers":[
		{
			"magFilter":9729,
			"minFilter":9987
		}
	],
	"buffers":[
		{
			"byteLength":313144,
			"uri":"ground.bin"
		}
	]
}
