{
	"asset":{
		"generator":"Khronos glTF Blender I/O v5.1.20",
		"version":"2.0"
	},
	"scene":0,
	"scenes":[
		{
			"name":"World",
			"nodes":[
				0
			]
		}
	],
	"nodes":[
		{
			"mesh":0,
			"name":"invisible-collisions"
		}
	],
	"materials":[
		{
			"alphaMode":"MASK",
			"doubleSided":true,
			"name":"invisible",
			"pbrMetallicRoughness":{
				"baseColorFactor":[
					0.800000011920929,
					0.800000011920929,
					0.800000011920929,
					0
				],
				"metallicFactor":0,
				"roughnessFactor":0.5
			}
		}
	],
	"meshes":[
		{
			"name":"Plane.023",
			"primitives":[
				{
					"attributes":{
						"POSITION":0,
						"NORMAL":1,
						"TEXCOORD_0":2
					},
					"indices":3,
					"material":0
				}
			]
		}
	],
	"accessors":[
		{
			"bufferView":0,
			"componentType":5126,
			"count":408,
			"max":[
				38.159542083740234,
				11.799089431762695,
				38.159542083740234
			],
			"min":[
				-38.159542083740234,
				-6.690562725067139,
				-38.159542083740234
			],
			"type":"VEC3"
		},
		{
			"bufferView":1,
			"componentType":5126,
			"count":408,
			"type":"VEC3"
		},
		{
			"bufferView":2,
			"componentType":5126,
			"count":408,
			"type":"VEC2"
		},
		{
			"bufferView":3,
			"componentType":5123,
			"count":804,
			"type":"SCALAR"
		}
	],
	"bufferViews":[
		{
			"buffer":0,
			"byteLength":4896,
			"byteOffset":0,
			"target":34962
		},
		{
			"buffer":0,
			"byteLength":4896,
			"byteOffset":4896,
			"target":34962
		},
		{
			"buffer":0,
			"byteLength":3264,
			"byteOffset":9792,
			"target":34962
		},
		{
			"buffer":0,
			"byteLength":1608,
			"byteOffset":13056,
			"target":34963
		}
	],
	"buffers":[
		{
			"byteLength":14664,
			"uri":"invisible-collisions.bin"
		}
	]
}
