{
	"asset":{
		"generator":"Khronos glTF Blender I/O v5.1.20",
		"version":"2.0"
	},
	"extensionsUsed":[
		"KHR_materials_emissive_strength"
	],
	"scene":0,
	"scenes":[
		{
			"name":"World",
			"nodes":[
				3
			]
		}
	],
	"nodes":[
		{
			"mesh":0,
			"name":"mouth"
		},
		{
			"name":"Bone",
			"translation":[
				0,
				-43.677001953125,
				18.104856491088867
			]
		},
		{
			"name":"Bone.001",
			"rotation":[
				-0.24038952589035034,
				-1.1571363245366229e-07,
				2.8656655715053603e-08,
				0.9706764817237854
			],
			"scale":[
				1,
				0.9999999403953552,
				1
			],
			"translation":[
				0,
				-43.677001953125,
				18.104856491088867
			]
		},
		{
			"children":[
				0,
				1,
				2
			],
			"name":"mouth_armature",
			"translation":[
				-3.2798633575439453,
				-53.01617431640625,
				-1.9412174224853516
			]
		}
	],
	"materials":[
		{
			"doubleSided":true,
			"emissiveFactor":[
				1,
				1,
				1
			],
			"emissiveTexture":{
				"index":0
			},
			"extensions":{
				"KHR_materials_emissive_strength":{
					"emissiveStrength":5
				}
			},
			"name":"mouth",
			"pbrMetallicRoughness":{
				"baseColorFactor":[
					0.07786507904529572,
					0.07057487964630127,
					0.07793129980564117,
					1
				],
				"metallicFactor":0,
				"roughnessFactor":0.15636366605758667
			}
		},
		{
			"doubleSided":true,
			"name":"teeth",
			"pbrMetallicRoughness":{
				"baseColorFactor":[
					0.800000011920929,
					0.800000011920929,
					0.800000011920929,
					1
				],
				"metallicFactor":0,
				"roughnessFactor":0.030909091234207153
			}
		}
	],
	"meshes":[
		{
			"name":"posast",
			"primitives":[
				{
					"attributes":{
						"POSITION":0,
						"NORMAL":1,
						"TEXCOORD_0":2
					},
					"indices":3,
					"material":0
				},
				{
					"attributes":{
						"POSITION":4,
						"NORMAL":5,
						"TEXCOORD_0":6
					},
					"indices":7,
					"material":1
				}
			]
		}
	],
	"textures":[
		{
			"sampler":0,
			"source":0
		}
	],
	"images":[
		{
			"mimeType":"image/jpeg",
			"name":"mouth_emit",
			"uri":"tex/mouth_emit.jpg"
		}
	],
	"accessors":[
		{
			"bufferView":0,
			"componentType":5126,
			"count":8073,
			"max":[
				40.21785354614258,
				35.01851272583008,
				45.75576400756836
			],
			"min":[
				-40.392738342285156,
				-30.52506446838379,
				-44.765602111816406
			],
			"type":"VEC3"
		},
		{
			"bufferView":1,
			"componentType":5126,
			"count":8073,
			"type":"VEC3"
		},
		{
			"bufferView":2,
			"componentType":5126,
			"count":8073,
			"type":"VEC2"
		},
		{
			"bufferView":3,
			"componentType":5123,
			"count":26550,
			"type":"SCALAR"
		},
		{
			"bufferView":4,
			"componentType":5126,
			"count":6205,
			"max":[
				23.365541458129883,
				35.115421295166016,
				24.754364013671875
			],
			"min":[
				-20.410167694091797,
				-3.9196133613586426,
				-17.877382278442383
			],
			"type":"VEC3"
		},
		{
			"bufferView":5,
			"componentType":5126,
			"count":6205,
			"type":"VEC3"
		},
		{
			"bufferView":6,
			"componentType":5126,
			"count":6205,
			"type":"VEC2"
		},
		{
			"bufferView":7,
			"componentType":5123,
			"count":16803,
			"type":"SCALAR"
		}
	],
	"bufferViews":[
		{
			"buffer":0,
			"byteLength":96876,
			"byteOffset":0,
			"target":34962
		},
		{
			"buffer":0,
			"byteLength":96876,
			"byteOffset":96876,
			"target":34962
		},
		{
			"buffer":0,
			"byteLength":64584,
			"byteOffset":193752,
			"target":34962
		},
		{
			"buffer":0,
			"byteLength":53100,
			"byteOffset":258336,
			"target":34963
		},
		{
			"buffer":0,
			"byteLength":74460,
			"byteOffset":311436,
			"target":34962
		},
		{
			"buffer":0,
			"byteLength":74460,
			"byteOffset":385896,
			"target":34962
		},
		{
			"buffer":0,
			"byteLength":49640,
			"byteOffset":460356,
			"target":34962
		},
		{
			"buffer":0,
			"byteLength":33606,
			"byteOffset":509996,
			"target":34963
		}
	],
	"samplers":[
		{
			"magFilter":9729,
			"minFilter":9987
		}
	],
	"buffers":[
		{
			"byteLength":543604,
			"uri":"mouth.bin"
		}
	]
}
