{
	"asset":{
		"generator":"Khronos glTF Blender I/O v5.1.20",
		"version":"2.0"
	},
	"extensionsUsed":[
		"KHR_materials_emissive_strength",
		"KHR_lights_punctual"
	],
	"extensionsRequired":[
		"KHR_lights_punctual"
	],
	"extensions":{
		"KHR_lights_punctual":{
			"lights":[
				{
					"color":[
						1,
						0.013393405824899673,
						0.02041935734450817
					],
					"intensity":108.70282613176452,
					"type":"point",
					"name":"Point.005"
				},
				{
					"color":[
						1,
						0.013393405824899673,
						0.02041935734450817
					],
					"intensity":108.70282613176452,
					"type":"point",
					"name":"Point.007"
				},
				{
					"color":[
						1,
						0.013393405824899673,
						0.02041935734450817
					],
					"intensity":108.70282613176452,
					"type":"point",
					"name":"Point.008"
				},
				{
					"color":[
						1,
						0.013393405824899673,
						0.02041935734450817
					],
					"intensity":108.70282613176452,
					"type":"point",
					"name":"Point.009"
				},
				{
					"color":[
						1,
						0.013393405824899673,
						0.02041935734450817
					],
					"intensity":108.70282613176452,
					"type":"point",
					"name":"Point.010"
				}
			]
		}
	},
	"scene":0,
	"scenes":[
		{
			"name":"World",
			"nodes":[
				0,
				1,
				2,
				3,
				4,
				5,
				6,
				7,
				8,
				9,
				10
			]
		}
	],
	"nodes":[
		{
			"mesh":0,
			"name":"trigger_01",
			"translation":[
				-6.856679439544678,
				0.4439071714878082,
				-6.763019561767578
			]
		},
		{
			"mesh":1,
			"name":"trigger_02",
			"translation":[
				1.835611343383789,
				-21.733383178710938,
				2.905729293823242
			]
		},
		{
			"mesh":2,
			"name":"trigger_03",
			"translation":[
				4.954252243041992,
				-96.1998519897461,
				8.569746017456055
			]
		},
		{
			"mesh":3,
			"name":"trigger_04",
			"translation":[
				3.4271228313446045,
				-161.15798950195312,
				-1.1308506727218628
			]
		},
		{
			"mesh":4,
			"name":"trigger_start",
			"translation":[
				0,
				0.267608642578125,
				0
			]
		},
		{
			"extensions":{
				"KHR_lights_punctual":{
					"light":0
				}
			},
			"name":"trigger_01_light",
			"rotation":[
				0.7071069478988647,
				0,
				0,
				0.7071065902709961
			],
			"translation":[
				-6.856679439544678,
				0.4439072608947754,
				-6.763019561767578
			]
		},
		{
			"mesh":5,
			"name":"trigger_05",
			"translation":[
				-3.7221474647521973,
				-296.334228515625,
				-2.955735206604004
			]
		},
		{
			"extensions":{
				"KHR_lights_punctual":{
					"light":1
				}
			},
			"name":"trigger_02_light",
			"rotation":[
				0.7071069478988647,
				0,
				0,
				0.7071065902709961
			],
			"translation":[
				1.8356118202209473,
				-21.733383178710938,
				2.905729293823242
			]
		},
		{
			"extensions":{
				"KHR_lights_punctual":{
					"light":2
				}
			},
			"name":"trigger_03_light",
			"rotation":[
				0.7071069478988647,
				0,
				0,
				0.7071065902709961
			],
			"translation":[
				4.954252243041992,
				-96.1998519897461,
				8.569746017456055
			]
		},
		{
			"extensions":{
				"KHR_lights_punctual":{
					"light":3
				}
			},
			"name":"trigger_04_light",
			"rotation":[
				0.7071069478988647,
				0,
				0,
				0.7071065902709961
			],
			"translation":[
				3.4271228313446045,
				-161.15798950195312,
				-1.1308507919311523
			]
		},
		{
			"extensions":{
				"KHR_lights_punctual":{
					"light":4
				}
			},
			"name":"trigger_05_light",
			"rotation":[
				0.7071069478988647,
				0,
				0,
				0.7071065902709961
			],
			"translation":[
				-3.722147226333618,
				-296.334228515625,
				-2.955735206604004
			]
		}
	],
	"materials":[
		{
			"doubleSided":true,
			"name":"Material Trigger",
			"pbrMetallicRoughness":{
				"baseColorTexture":{
					"index":0
				},
				"metallicFactor":0
			}
		},
		{
			"doubleSided":true,
			"emissiveFactor":[
				1,
				0.0012186123058199883,
				0.008277475833892822
			],
			"extensions":{
				"KHR_materials_emissive_strength":{
					"emissiveStrength":20
				}
			},
			"name":"TriggerCrystal",
			"pbrMetallicRoughness":{
				"baseColorFactor":[
					0.800000011920929,
					0.800000011920929,
					0.800000011920929,
					1
				],
				"metallicFactor":0,
				"roughnessFactor":0
			}
		}
	],
	"meshes":[
		{
			"name":"Icosphere",
			"primitives":[
				{
					"attributes":{
						"POSITION":0,
						"NORMAL":1,
						"TEXCOORD_0":2
					},
					"indices":3,
					"material":0
				},
				{
					"attributes":{
						"POSITION":4,
						"NORMAL":5,
						"TEXCOORD_0":6
					},
					"indices":7,
					"material":1
				}
			]
		},
		{
			"name":"Icosphere.001",
			"primitives":[
				{
					"attributes":{
						"POSITION":8,
						"NORMAL":9,
						"TEXCOORD_0":10
					},
					"indices":3,
					"material":0
				},
				{
					"attributes":{
						"POSITION":11,
						"NORMAL":12,
						"TEXCOORD_0":13
					},
					"indices":7,
					"material":1
				}
			]
		},
		{
			"name":"Icosphere.002",
			"primitives":[
				{
					"attributes":{
						"POSITION":14,
						"NORMAL":15,
						"TEXCOORD_0":16
					},
					"indices":3,
					"material":0
				},
				{
					"attributes":{
						"POSITION":17,
						"NORMAL":18,
						"TEXCOORD_0":19
					},
					"indices":7,
					"material":1
				}
			]
		},
		{
			"name":"Icosphere.003",
			"primitives":[
				{
					"attributes":{
						"POSITION":20,
						"NORMAL":21,
						"TEXCOORD_0":22
					},
					"indices":3,
					"material":0
				},
				{
					"attributes":{
						"POSITION":23,
						"NORMAL":24,
						"TEXCOORD_0":25
					},
					"indices":7,
					"material":1
				}
			]
		},
		{
			"name":"Icosphere.004",
			"primitives":[
				{
					"attributes":{
						"POSITION":26,
						"NORMAL":27,
						"TEXCOORD_0":28
					},
					"indices":3,
					"material":0
				},
				{
					"attributes":{
						"POSITION":29,
						"NORMAL":30,
						"TEXCOORD_0":31
					},
					"indices":7,
					"material":1
				}
			]
		},
		{
			"name":"Icosphere.005",
			"primitives":[
				{
					"attributes":{
						"POSITION":32,
						"NORMAL":33,
						"TEXCOORD_0":34
					},
					"indices":3,
					"material":0
				},
				{
					"attributes":{
						"POSITION":35,
						"NORMAL":36,
						"TEXCOORD_0":37
					},
					"indices":7,
					"material":1
				}
			]
		}
	],
	"textures":[
		{
			"sampler":0,
			"source":0
		}
	],
	"images":[
		{
			"mimeType":"image/jpeg",
			"name":"alert",
			"uri":"tex/alert.jpg"
		}
	],
	"accessors":[
		{
			"bufferView":0,
			"componentType":5126,
			"count":445,
			"max":[
				0.3684489130973816,
				0.08176770806312561,
				0.36648932099342346
			],
			"min":[
				-0.34454140067100525,
				-0.33723685145378113,
				-0.36098721623420715
			],
			"type":"VEC3"
		},
		{
			"bufferView":1,
			"componentType":5126,
			"count":445,
			"type":"VEC3"
		},
		{
			"bufferView":2,
			"componentType":5126,
			"count":445,
			"type":"VEC2"
		},
		{
			"bufferView":3,
			"componentType":5123,
			"count":675,
			"type":"SCALAR"
		},
		{
			"bufferView":4,
			"componentType":5126,
			"count":45,
			"max":[
				0.20140114426612854,
				0.33723685145378113,
				0.19154192507266998
			],
			"min":[
				-0.20140114426612854,
				-0.1508173793554306,
				-0.19154192507266998
			],
			"type":"VEC3"
		},
		{
			"bufferView":5,
			"componentType":5126,
			"count":45,
			"type":"VEC3"
		},
		{
			"bufferView":6,
			"componentType":5126,
			"count":45,
			"type":"VEC2"
		},
		{
			"bufferView":7,
			"componentType":5123,
			"count":45,
			"type":"SCALAR"
		},
		{
			"bufferView":8,
			"componentType":5126,
			"count":445,
			"max":[
				0.3684489130973816,
				0.08176770806312561,
				0.36648932099342346
			],
			"min":[
				-0.34454140067100525,
				-0.33723685145378113,
				-0.36098721623420715
			],
			"type":"VEC3"
		},
		{
			"bufferView":9,
			"componentType":5126,
			"count":445,
			"type":"VEC3"
		},
		{
			"bufferView":10,
			"componentType":5126,
			"count":445,
			"type":"VEC2"
		},
		{
			"bufferView":11,
			"componentType":5126,
			"count":45,
			"max":[
				0.20140114426612854,
				0.33723685145378113,
				0.19154192507266998
			],
			"min":[
				-0.20140114426612854,
				-0.1508173793554306,
				-0.19154192507266998
			],
			"type":"VEC3"
		},
		{
			"bufferView":12,
			"componentType":5126,
			"count":45,
			"type":"VEC3"
		},
		{
			"bufferView":13,
			"componentType":5126,
			"count":45,
			"type":"VEC2"
		},
		{
			"bufferView":14,
			"componentType":5126,
			"count":445,
			"max":[
				0.3684489130973816,
				0.08176770806312561,
				0.36648932099342346
			],
			"min":[
				-0.34454140067100525,
				-0.33723685145378113,
				-0.36098721623420715
			],
			"type":"VEC3"
		},
		{
			"bufferView":15,
			"componentType":5126,
			"count":445,
			"type":"VEC3"
		},
		{
			"bufferView":16,
			"componentType":5126,
			"count":445,
			"type":"VEC2"
		},
		{
			"bufferView":17,
			"componentType":5126,
			"count":45,
			"max":[
				0.20140114426612854,
				0.33723685145378113,
				0.19154192507266998
			],
			"min":[
				-0.20140114426612854,
				-0.1508173793554306,
				-0.19154192507266998
			],
			"type":"VEC3"
		},
		{
			"bufferView":18,
			"componentType":5126,
			"count":45,
			"type":"VEC3"
		},
		{
			"bufferView":19,
			"componentType":5126,
			"count":45,
			"type":"VEC2"
		},
		{
			"bufferView":20,
			"componentType":5126,
			"count":445,
			"max":[
				0.3684489130973816,
				0.08176770806312561,
				0.36648932099342346
			],
			"min":[
				-0.34454140067100525,
				-0.33723685145378113,
				-0.36098721623420715
			],
			"type":"VEC3"
		},
		{
			"bufferView":21,
			"componentType":5126,
			"count":445,
			"type":"VEC3"
		},
		{
			"bufferView":22,
			"componentType":5126,
			"count":445,
			"type":"VEC2"
		},
		{
			"bufferView":23,
			"componentType":5126,
			"count":45,
			"max":[
				0.20140114426612854,
				0.33723685145378113,
				0.19154192507266998
			],
			"min":[
				-0.20140114426612854,
				-0.1508173793554306,
				-0.19154192507266998
			],
			"type":"VEC3"
		},
		{
			"bufferView":24,
			"componentType":5126,
			"count":45,
			"type":"VEC3"
		},
		{
			"bufferView":25,
			"componentType":5126,
			"count":45,
			"type":"VEC2"
		},
		{
			"bufferView":26,
			"componentType":5126,
			"count":445,
			"max":[
				0.3684489130973816,
				0.08176770806312561,
				0.36648932099342346
			],
			"min":[
				-0.34454140067100525,
				-0.33723685145378113,
				-0.36098721623420715
			],
			"type":"VEC3"
		},
		{
			"bufferView":27,
			"componentType":5126,
			"count":445,
			"type":"VEC3"
		},
		{
			"bufferView":28,
			"componentType":5126,
			"count":445,
			"type":"VEC2"
		},
		{
			"bufferView":29,
			"componentType":5126,
			"count":45,
			"max":[
				0.20140114426612854,
				0.33723685145378113,
				0.19154192507266998
			],
			"min":[
				-0.20140114426612854,
				-0.1508173793554306,
				-0.19154192507266998
			],
			"type":"VEC3"
		},
		{
			"bufferView":30,
			"componentType":5126,
			"count":45,
			"type":"VEC3"
		},
		{
			"bufferView":31,
			"componentType":5126,
			"count":45,
			"type":"VEC2"
		},
		{
			"bufferView":32,
			"componentType":5126,
			"count":445,
			"max":[
				0.3684489130973816,
				0.08176770806312561,
				0.36648932099342346
			],
			"min":[
				-0.34454140067100525,
				-0.33723685145378113,
				-0.36098721623420715
			],
			"type":"VEC3"
		},
		{
			"bufferView":33,
			"componentType":5126,
			"count":445,
			"type":"VEC3"
		},
		{
			"bufferView":34,
			"componentType":5126,
			"count":445,
			"type":"VEC2"
		},
		{
			"bufferView":35,
			"componentType":5126,
			"count":45,
			"max":[
				0.20140114426612854,
				0.33723685145378113,
				0.19154192507266998
			],
			"min":[
				-0.20140114426612854,
				-0.1508173793554306,
				-0.19154192507266998
			],
			"type":"VEC3"
		},
		{
			"bufferView":36,
			"componentType":5126,
			"count":45,
			"type":"VEC3"
		},
		{
			"bufferView":37,
			"componentType":5126,
			"count":45,
			"type":"VEC2"
		}
	],
	"bufferViews":[
		{
			"buffer":0,
			"byteLength":5340,
			"byteOffset":0,
			"target":34962
		},
		{
			"buffer":0,
			"byteLength":5340,
			"byteOffset":5340,
			"target":34962
		},
		{
			"buffer":0,
			"byteLength":3560,
			"byteOffset":10680,
			"target":34962
		},
		{
			"buffer":0,
			"byteLength":1350,
			"byteOffset":14240,
			"target":34963
		},
		{
			"buffer":0,
			"byteLength":540,
			"byteOffset":15592,
			"target":34962
		},
		{
			"buffer":0,
			"byteLength":540,
			"byteOffset":16132,
			"target":34962
		},
		{
			"buffer":0,
			"byteLength":360,
			"byteOffset":16672,
			"target":34962
		},
		{
			"buffer":0,
			"byteLength":90,
			"byteOffset":17032,
			"target":34963
		},
		{
			"buffer":0,
			"byteLength":5340,
			"byteOffset":17124,
			"target":34962
		},
		{
			"buffer":0,
			"byteLength":5340,
			"byteOffset":22464,
			"target":34962
		},
		{
			"buffer":0,
			"byteLength":3560,
			"byteOffset":27804,
			"target":34962
		},
		{
			"buffer":0,
			"byteLength":540,
			"byteOffset":31364,
			"target":34962
		},
		{
			"buffer":0,
			"byteLength":540,
			"byteOffset":31904,
			"target":34962
		},
		{
			"buffer":0,
			"byteLength":360,
			"byteOffset":32444,
			"target":34962
		},
		{
			"buffer":0,
			"byteLength":5340,
			"byteOffset":32804,
			"target":34962
		},
		{
			"buffer":0,
			"byteLength":5340,
			"byteOffset":38144,
			"target":34962
		},
		{
			"buffer":0,
			"byteLength":3560,
			"byteOffset":43484,
			"target":34962
		},
		{
			"buffer":0,
			"byteLength":540,
			"byteOffset":47044,
			"target":34962
		},
		{
			"buffer":0,
			"byteLength":540,
			"byteOffset":47584,
			"target":34962
		},
		{
			"buffer":0,
			"byteLength":360,
			"byteOffset":48124,
			"target":34962
		},
		{
			"buffer":0,
			"byteLength":5340,
			"byteOffset":48484,
			"target":34962
		},
		{
			"buffer":0,
			"byteLength":5340,
			"byteOffset":53824,
			"target":34962
		},
		{
			"buffer":0,
			"byteLength":3560,
			"byteOffset":59164,
			"target":34962
		},
		{
			"buffer":0,
			"byteLength":540,
			"byteOffset":62724,
			"target":34962
		},
		{
			"buffer":0,
			"byteLength":540,
			"byteOffset":63264,
			"target":34962
		},
		{
			"buffer":0,
			"byteLength":360,
			"byteOffset":63804,
			"target":34962
		},
		{
			"buffer":0,
			"byteLength":5340,
			"byteOffset":64164,
			"target":34962
		},
		{
			"buffer":0,
			"byteLength":5340,
			"byteOffset":69504,
			"target":34962
		},
		{
			"buffer":0,
			"byteLength":3560,
			"byteOffset":74844,
			"target":34962
		},
		{
			"buffer":0,
			"byteLength":540,
			"byteOffset":78404,
			"target":34962
		},
		{
			"buffer":0,
			"byteLength":540,
			"byteOffset":78944,
			"target":34962
		},
		{
			"buffer":0,
			"byteLength":360,
			"byteOffset":79484,
			"target":34962
		},
		{
			"buffer":0,
			"byteLength":5340,
			"byteOffset":79844,
			"target":34962
		},
		{
			"buffer":0,
			"byteLength":5340,
			"byteOffset":85184,
			"target":34962
		},
		{
			"buffer":0,
			"byteLength":3560,
			"byteOffset":90524,
			"target":34962
		},
		{
			"buffer":0,
			"byteLength":540,
			"byteOffset":94084,
			"target":34962
		},
		{
			"buffer":0,
			"byteLength":540,
			"byteOffset":94624,
			"target":34962
		},
		{
			"buffer":0,
			"byteLength":360,
			"byteOffset":95164,
			"target":34962
		}
	],
	"samplers":[
		{
			"magFilter":9729,
			"minFilter":9987
		}
	],
	"buffers":[
		{
			"byteLength":95524,
			"uri":"triggers.bin"
		}
	]
}
